<svg width="357" height="298" viewBox="0 0 357 298" fill="none" xmlns="http://www.w3.org/2000/svg">
<path d="M177.445 286.789C251.915 286.789 312.286 226.419 312.286 151.948C312.286 77.4773 251.915 17.1069 177.445 17.1069C102.974 17.1069 42.6035 77.4773 42.6035 151.948C42.6035 226.419 102.974 286.789 177.445 286.789Z" fill="#C2F3FF"/>
<path d="M71.3993 229.983H126.742C132.447 229.983 137.072 234.608 137.072 240.313C137.072 246.018 132.447 250.643 126.742 250.643H71.3993C65.6943 250.643 61.0693 246.018 61.0693 240.313C61.0693 234.608 65.6943 229.983 71.3993 229.983Z" fill="#C2F3FF"/>
<path d="M58.07 270.711H167.488C171.185 270.711 174.183 273.709 174.183 277.406C174.183 281.104 171.185 284.101 167.488 284.101H58.07C54.373 284.101 51.375 281.104 51.375 277.406C51.375 273.709 54.373 270.711 58.07 270.711Z" fill="#C2F3FF"/>
<path d="M236.779 284.102H250.083C253.562 284.102 256.382 286.922 256.382 290.401V291.194C256.382 294.673 253.562 297.493 250.083 297.493H236.779C233.3 297.493 230.479 294.673 230.479 291.194V290.401C230.479 286.922 233.301 284.102 236.779 284.102Z" fill="#C2F3FF"/>
<path d="M170.22 239.51H303.855C309.92 239.51 314.837 244.427 314.837 250.492C314.837 256.557 309.92 261.474 303.855 261.474H170.22C164.155 261.474 159.238 256.557 159.238 250.492C159.237 244.427 164.154 239.51 170.22 239.51Z" fill="#C2F3FF"/>
<path d="M80.9385 250.493H119.497C116.649 250.493 114.059 251.739 112.193 253.625C110.319 255.519 109.162 257.757 109.162 260.645C109.162 266.413 113.792 270.712 119.497 270.712H80.9385C83.7875 270.712 86.3685 269.948 88.2425 268.07C90.1075 266.184 91.2655 263.697 91.2655 260.809C91.2665 255.034 86.6445 250.493 80.9385 250.493Z" fill="#C2F3FF"/>
<path d="M232.099 132.533H331.503C341.751 132.533 350.058 140.841 350.058 151.088C350.058 161.335 341.751 169.643 331.503 169.643H232.099C221.851 169.643 213.544 161.335 213.544 151.088C213.544 140.84 221.851 132.533 232.099 132.533Z" fill="#C2F3FF"/>
<path d="M196.702 205.69H343.988C350.63 205.69 356.013 211.074 356.013 217.715C356.013 224.357 350.629 229.74 343.988 229.74H196.702C190.06 229.74 184.677 224.356 184.677 217.715C184.677 211.074 190.061 205.69 196.702 205.69Z" fill="#C2F3FF"/>
<path d="M261.427 169.642H330.685C325.57 169.642 320.917 171.668 317.567 175.044C314.202 178.435 312.122 182.428 312.122 187.597C312.122 197.92 320.439 205.605 330.685 205.605H261.427C266.543 205.605 271.18 204.148 274.546 200.788C277.897 197.412 279.976 193.12 279.976 187.95C279.976 177.612 271.674 169.642 261.427 169.642Z" fill="#C2F3FF"/>
<path d="M149.014 116.398H32.532C21.652 116.398 12.833 107.579 12.833 96.699C12.833 85.819 21.652 76.999 32.532 76.999H149.013C159.893 76.999 168.713 85.819 168.713 96.699C168.714 107.579 159.894 116.398 149.014 116.398Z" fill="#C2F3FF"/>
<path d="M197.53 230.454H29.2043C13.4823 230.454 0.736328 217.708 0.736328 201.985C0.736328 186.263 13.4823 173.517 29.2043 173.517H197.53C213.253 173.517 225.998 186.263 225.998 201.985C225.998 217.707 213.253 230.454 197.53 230.454Z" fill="#C2F3FF"/>
<path d="M292.776 71.1389H199.844C191.164 71.1389 184.127 64.102 184.127 55.422C184.127 46.741 191.164 39.705 199.844 39.705H292.776C301.456 39.705 308.493 46.741 308.493 55.422C308.493 64.102 301.456 71.1389 292.776 71.1389Z" fill="#C2F3FF"/>
<path d="M161.354 44.311H90.7192C83.4382 44.311 77.5342 38.409 77.5342 31.126C77.5342 23.845 83.4372 17.942 90.7192 17.942H161.354C168.635 17.942 174.538 23.844 174.538 31.126C174.537 38.409 168.635 44.311 161.354 44.311Z" fill="#C2F3FF"/>
<path d="M264.189 17.107H242.121C237.396 17.107 233.567 13.277 233.567 8.55298C233.567 3.82898 237.396 0 242.121 0H264.189C268.913 0 272.743 3.82898 272.743 8.55298C272.743 13.277 268.913 17.107 264.189 17.107Z" fill="#C2F3FF"/>
<path d="M246.44 171.548C246.415 171.34 246.225 171.143 246.02 171.107L245.209 170.966C245.001 170.929 244.78 170.738 244.713 170.537L244.387 169.735C244.297 169.547 244.32 169.255 244.446 169.086L244.927 168.416C245.048 168.247 245.045 167.97 244.918 167.806L244.482 167.289C244.337 167.138 244.07 167.087 243.88 167.179L243.139 167.543C242.95 167.633 242.661 167.606 242.497 167.48C242.497 167.48 242.371 167.382 242.134 167.236C241.901 167.091 241.756 167.022 241.756 167.022C241.571 166.926 241.418 166.682 241.416 166.473L241.413 165.645C241.409 165.439 241.245 165.216 241.045 165.157L240.391 164.997C240.189 164.958 239.94 165.075 239.84 165.26L239.715 165.497L239.564 165.784L239.457 165.987C239.357 166.172 239.106 166.326 238.897 166.328L238.579 166.349L238.435 166.36L238.033 166.39C237.824 166.419 237.554 166.305 237.43 166.134L236.945 165.473C236.821 165.302 236.558 165.22 236.362 165.29L235.736 165.543C235.545 165.633 235.414 165.874 235.443 166.079L235.559 166.895C235.587 167.105 235.474 167.374 235.303 167.496L234.64 168.059C234.491 168.203 234.206 168.268 234.007 168.205L233.222 167.954C233.022 167.891 232.76 167.975 232.636 168.144C232.636 168.144 232.575 168.226 232.451 168.429C232.324 168.637 232.278 168.721 232.278 168.721C232.181 168.905 232.219 169.18 232.364 169.327L232.938 169.92C233.083 170.069 233.151 170.358 233.089 170.556L232.877 171.403C232.84 171.606 232.65 171.827 232.451 171.895L231.67 172.154C231.472 172.219 231.315 172.443 231.319 172.65L231.367 173.329C231.393 173.536 231.582 173.732 231.787 173.769L232.598 173.91C232.806 173.947 233.027 174.138 233.094 174.338L233.42 175.141C233.513 175.329 233.488 175.621 233.367 175.791L232.883 176.463C232.76 176.63 232.764 176.907 232.894 177.07L233.325 177.587C233.47 177.739 233.738 177.79 233.928 177.697L234.668 177.333C234.856 177.241 235.144 177.27 235.31 177.396C235.31 177.396 235.441 177.495 235.673 177.642C235.907 177.786 236.053 177.86 236.053 177.86C236.239 177.95 236.392 178.195 236.394 178.406L236.397 179.232C236.398 179.438 236.562 179.662 236.762 179.72L237.416 179.88C237.619 179.92 237.867 179.802 237.967 179.618L238.353 178.889C238.451 178.704 238.703 178.553 238.912 178.549L239.775 178.486C239.985 178.458 240.254 178.571 240.379 178.742L240.864 179.403C240.988 179.574 241.25 179.657 241.447 179.587L242.075 179.328C242.264 179.243 242.394 179.002 242.366 178.795L242.249 177.981C242.221 177.771 242.335 177.502 242.505 177.38L243.169 176.817C243.32 176.673 243.607 176.606 243.804 176.671L244.589 176.92C244.786 176.985 245.049 176.898 245.172 176.731C245.172 176.731 245.233 176.651 245.36 176.448C245.489 176.24 245.53 176.153 245.53 176.153C245.628 175.971 245.589 175.696 245.444 175.544L244.872 174.956C244.726 174.804 244.658 174.518 244.722 174.32L244.931 173.475C244.968 173.27 245.159 173.049 245.357 172.982L246.141 172.723C246.337 172.655 246.498 172.433 246.49 172.222L246.44 171.548ZM242.55 174.703C241.3 176.716 238.655 177.331 236.641 176.081C234.631 174.83 234.011 172.188 235.264 170.174C235.977 169.025 237.144 168.334 238.388 168.18C238.53 168.161 238.676 168.154 238.819 168.155C238.953 168.149 239.084 168.152 239.215 168.166C239.361 168.172 239.501 168.187 239.647 168.214C240.171 168.303 240.689 168.496 241.171 168.795C243.183 170.043 243.8 172.688 242.55 174.703Z" fill="#35A6B4"/>
<path d="M240.519 169.845C240.232 169.662 239.924 169.54 239.613 169.464C239.193 169.363 238.766 169.355 238.356 169.431C237.539 169.58 236.783 170.06 236.308 170.826C235.415 172.262 235.857 174.143 237.295 175.036C238.729 175.929 240.613 175.49 241.508 174.052C242.398 172.618 241.954 170.733 240.519 169.845ZM239.843 173.016C239.521 173.533 238.841 173.697 238.327 173.374C237.806 173.05 237.651 172.371 237.971 171.854C238.058 171.715 238.17 171.597 238.301 171.515C238.647 171.286 239.109 171.269 239.489 171.502C239.515 171.516 239.537 171.532 239.558 171.553C240.016 171.887 240.146 172.524 239.843 173.016Z" fill="#35A6B4"/>
<path d="M211.781 90.0201L207.291 93.142C207.148 93.162 207.014 93.238 206.926 93.365C206.853 93.469 206.826 93.59 206.833 93.707C206.826 93.824 206.853 93.943 206.926 94.048C207.014 94.176 207.149 94.252 207.291 94.271L211.781 97.3931C212.025 97.5621 212.36 97.502 212.528 97.259C212.695 97.016 212.635 96.6821 212.393 96.5151L208.354 93.707L212.393 90.899C212.635 90.731 212.695 90.397 212.528 90.155C212.36 89.913 212.025 89.8531 211.781 90.0201Z" fill="#35A6B4"/>
<path d="M216.587 90.0201L212.097 93.142C211.954 93.162 211.82 93.238 211.73 93.365C211.658 93.469 211.63 93.59 211.637 93.707C211.63 93.824 211.658 93.943 211.73 94.048C211.82 94.176 211.955 94.252 212.097 94.271L216.587 97.3931C216.83 97.5621 217.163 97.502 217.331 97.259C217.501 97.016 217.441 96.6821 217.199 96.5151L213.157 93.707L217.199 90.899C217.441 90.731 217.501 90.397 217.331 90.155C217.163 89.913 216.83 89.8531 216.587 90.0201Z" fill="#35A6B4"/>
<path d="M221.389 89.815L216.901 92.9359C216.757 92.9559 216.623 93.032 216.535 93.159C216.462 93.263 216.434 93.384 216.443 93.502C216.434 93.618 216.462 93.738 216.535 93.843C216.623 93.97 216.758 94.046 216.901 94.066L221.389 97.187C221.635 97.357 221.968 97.295 222.136 97.053C222.304 96.81 222.244 96.4769 222.002 96.3089L217.962 93.502L222.002 90.6939C222.244 90.5249 222.304 90.192 222.136 89.95C221.968 89.706 221.635 89.647 221.389 89.815Z" fill="#35A6B4"/>
<path d="M226.195 89.815L221.704 92.9359C221.561 92.9559 221.427 93.032 221.338 93.159C221.267 93.263 221.238 93.384 221.247 93.502C221.238 93.618 221.267 93.738 221.338 93.843C221.427 93.97 221.562 94.046 221.704 94.066L226.195 97.187C226.438 97.357 226.772 97.295 226.941 97.053C227.109 96.81 227.048 96.4769 226.806 96.3089L222.766 93.502L226.806 90.6939C227.048 90.5249 227.109 90.192 226.941 89.95C226.772 89.706 226.438 89.647 226.195 89.815Z" fill="#35A6B4"/>
<path d="M275.965 111.269L270.88 114.805C270.718 114.826 270.567 114.913 270.466 115.057C270.384 115.174 270.353 115.311 270.361 115.444C270.353 115.577 270.384 115.712 270.466 115.831C270.567 115.976 270.718 116.061 270.88 116.083L275.965 119.619C276.242 119.81 276.621 119.742 276.812 119.467C277 119.193 276.934 118.815 276.659 118.624L272.085 115.444L276.659 112.264C276.934 112.074 277.001 111.696 276.812 111.421C276.621 111.146 276.242 111.079 275.965 111.269Z" fill="#35A6B4"/>
<path d="M281.407 111.269L276.322 114.805C276.16 114.826 276.007 114.913 275.906 115.057C275.824 115.174 275.793 115.311 275.802 115.444C275.793 115.577 275.824 115.712 275.906 115.831C276.007 115.976 276.16 116.061 276.322 116.083L281.407 119.619C281.682 119.81 282.059 119.742 282.251 119.467C282.443 119.193 282.375 118.815 282.101 118.624L277.524 115.444L282.101 112.264C282.375 112.074 282.444 111.696 282.251 111.421C282.06 111.146 281.683 111.079 281.407 111.269Z" fill="#35A6B4"/>
<path d="M286.848 111.036L281.764 114.571C281.601 114.594 281.449 114.68 281.35 114.824C281.266 114.942 281.236 115.078 281.245 115.212C281.236 115.344 281.266 115.48 281.35 115.599C281.449 115.743 281.601 115.828 281.764 115.851L286.848 119.386C287.126 119.578 287.504 119.509 287.694 119.235C287.885 118.96 287.817 118.582 287.543 118.391L282.967 115.212L287.543 112.032C287.817 111.842 287.886 111.464 287.694 111.189C287.504 110.914 287.126 110.846 286.848 111.036Z" fill="#35A6B4"/>
<path d="M292.291 111.036L287.203 114.571C287.042 114.594 286.89 114.68 286.789 114.824C286.709 114.942 286.676 115.078 286.685 115.212C286.675 115.344 286.708 115.48 286.789 115.599C286.89 115.743 287.042 115.828 287.203 115.851L292.291 119.386C292.565 119.578 292.944 119.509 293.136 119.235C293.325 118.96 293.258 118.582 292.983 118.391L288.408 115.212L292.983 112.032C293.258 111.842 293.326 111.464 293.136 111.189C292.944 110.914 292.565 110.846 292.291 111.036Z" fill="#35A6B4"/>
<path d="M284.766 228.493H48.7656C47.9366 228.493 47.2656 227.821 47.2656 226.993C47.2656 226.165 47.9366 225.493 48.7656 225.493H284.766C285.595 225.493 286.266 226.165 286.266 226.993C286.266 227.821 285.594 228.493 284.766 228.493Z" fill="#35A6B4"/>
<path fill-rule="evenodd" clip-rule="evenodd" d="M218.854 114.147C226.675 114.147 233.443 118.652 236.707 125.209C238.698 124.247 240.931 123.707 243.291 123.707C249.556 123.707 254.932 127.51 257.237 132.933C259.381 131.001 262.217 129.825 265.33 129.825C272.007 129.825 277.421 135.239 277.421 141.917C277.421 148.595 272.007 154.008 265.33 154.008H218.854C207.848 154.008 198.924 145.085 198.924 134.078C198.925 123.069 207.849 114.147 218.854 114.147Z" fill="white"/>
<path fill-rule="evenodd" clip-rule="evenodd" d="M231.894 129.294C233.011 127.449 234.649 125.941 236.588 124.989C233.283 118.552 226.587 114.146 218.855 114.146C218.36 114.146 217.87 114.169 217.383 114.206C225.454 114.705 231.367 121.371 231.894 129.294Z" fill="#35A6B4"/>
<path fill-rule="evenodd" clip-rule="evenodd" d="M265.33 129.824C264.512 129.824 263.714 129.91 262.941 130.065C263.142 130.052 263.34 130.035 263.549 130.035C273.754 130.035 273.737 145.869 263.549 145.869C255.744 145.869 253.926 136.614 258.057 132.258C257.774 132.471 257.5 132.696 257.237 132.933C254.931 127.51 249.555 123.707 243.291 123.707C242.491 123.707 241.709 123.773 240.943 123.894C241.055 123.89 241.166 123.875 241.279 123.875C247.228 123.875 252.249 128.896 252.249 134.845C252.249 140.773 247.207 145.815 241.279 145.815C235.855 145.815 231.216 141.638 230.437 136.393C227.837 141.53 222.215 145.173 216.418 145.173C207.724 145.173 201.286 138.068 200.91 129.665C200.796 127.115 201.44 124.682 202.616 122.528C200.294 125.787 198.924 129.77 198.924 134.077C198.924 145.084 207.848 154.007 218.854 154.007H265.33C272.007 154.007 277.421 148.594 277.421 141.916C277.421 135.238 272.007 129.824 265.33 129.824Z" fill="#35A6B4"/>
<path d="M294.362 153.998H259.057C256.819 153.998 255.003 152.184 255.003 149.944C255.003 147.706 256.818 145.891 259.057 145.891H294.362C296.6 145.891 298.415 147.705 298.415 149.944C298.415 152.183 296.601 153.998 294.362 153.998Z" fill="#35A6B4"/>
<path d="M289.405 136.915H275.783C276.236 138.341 276.273 139.915 275.891 141.365H289.405C290.634 141.365 291.63 140.369 291.63 139.14C291.63 137.912 290.634 136.915 289.405 136.915Z" fill="#35A6B4"/>
<path d="M309.833 141.506H302.777C301.493 141.506 300.452 140.466 300.452 139.182C300.452 137.898 301.493 136.857 302.777 136.857H309.833C311.117 136.857 312.158 137.898 312.158 139.182C312.158 140.466 311.117 141.506 309.833 141.506Z" fill="#35A6B4"/>
<path d="M283.094 145.891H274.232C274.886 145.891 275.482 145.608 275.911 145.179C276.342 144.748 276.607 144.24 276.607 143.583C276.607 142.271 275.544 141.294 274.232 141.294H283.094C282.439 141.294 281.846 141.468 281.415 141.895C280.986 142.324 280.72 142.889 280.72 143.546C280.72 144.859 281.782 145.891 283.094 145.891Z" fill="#35A6B4"/>
<path d="M103.167 97.165L102.236 97.522C102.209 97.533 102.179 97.519 102.169 97.493C102.159 97.467 102.173 97.4361 102.199 97.4271C102.199 97.4271 102.202 97.425 102.204 97.425L103.167 97.165Z" fill="#32B3C2"/>
<path d="M98.7683 99.196L97.1143 100.201C96.9713 100.288 96.7853 100.242 96.6993 100.099C96.6123 99.956 96.6583 99.771 96.8013 99.684C96.8073 99.68 96.8153 99.676 96.8213 99.673L98.5493 98.798C98.6603 98.741 98.7983 98.7861 98.8553 98.8981C98.9063 99.0041 98.8673 99.134 98.7683 99.196Z" fill="#32B3C2"/>
<path d="M94.0768 102.489L92.6428 103.793C92.4308 103.985 92.1028 103.971 91.9108 103.759C91.7178 103.547 91.7328 103.219 91.9448 103.026C91.9538 103.018 91.9638 103.01 91.9728 103.003L93.4938 101.802C93.6888 101.648 93.9728 101.681 94.1278 101.876C94.2748 102.062 94.2498 102.331 94.0768 102.489Z" fill="#32B3C2"/>
<path d="M90.0876 106.565L88.9086 108.105C88.6796 108.403 88.2536 108.459 87.9546 108.231C87.6566 108.002 87.6006 107.576 87.8286 107.278C87.8356 107.268 87.8456 107.257 87.8516 107.249L89.1146 105.777C89.3406 105.514 89.7356 105.484 89.9976 105.709C90.2516 105.926 90.2876 106.303 90.0876 106.565Z" fill="#32B3C2"/>
<path d="M86.8752 111.276C86.8752 111.276 86.8162 111.382 86.7282 111.542C86.6472 111.698 86.5402 111.906 86.4312 112.114C86.2082 112.545 85.9862 112.975 85.9862 112.975C85.7842 113.367 85.3022 113.52 84.9122 113.318C84.5202 113.116 84.3672 112.635 84.5702 112.244C84.5742 112.235 84.5802 112.224 84.5852 112.216C84.5852 112.216 84.8252 111.794 85.0642 111.372C85.1892 111.155 85.3132 110.937 85.4072 110.774C85.5022 110.618 85.5642 110.514 85.5642 110.514C85.7822 110.157 86.2492 110.042 86.6062 110.26C86.9542 110.472 87.0702 110.922 86.8752 111.276Z" fill="#32B3C2"/>
<path d="M84.5435 116.424L83.9505 118.272C83.8025 118.738 83.3035 118.994 82.8375 118.845C82.3715 118.696 82.1145 118.197 82.2645 117.731C82.2665 117.725 82.2695 117.715 82.2715 117.71L82.9085 115.877C83.0645 115.427 83.5555 115.189 84.0065 115.346C84.4485 115.499 84.6865 115.98 84.5435 116.424Z" fill="#32B3C2"/>
<path d="M83.1529 121.894L82.9169 123.82C82.8529 124.344 82.3749 124.716 81.8519 124.653C81.3279 124.589 80.9549 124.111 81.0189 123.588C81.0199 123.581 81.0209 123.57 81.0219 123.565L81.3049 121.646C81.3799 121.136 81.8539 120.784 82.3639 120.859C82.8639 120.931 83.2139 121.393 83.1529 121.894Z" fill="#32B3C2"/>
<path d="M82.7992 127.504L82.9332 129.44C82.9702 129.98 82.5622 130.448 82.0232 130.485C81.4832 130.522 81.0142 130.115 80.9772 129.575L80.9762 129.567L80.8592 127.63C80.8272 127.094 81.2342 126.633 81.7702 126.601C82.3032 126.569 82.7622 126.973 82.7992 127.504Z" fill="#32B3C2"/>
<path d="M83.5663 133.049L84.1023 134.912C84.2543 135.441 83.9503 135.993 83.4203 136.146C82.8913 136.298 82.3393 135.993 82.1873 135.463L82.1863 135.462L81.6533 133.598C81.5013 133.069 81.8063 132.518 82.3353 132.367C82.8643 132.215 83.4153 132.521 83.5663 133.049Z" fill="#32B3C2"/>
<path d="M85.4895 138.281L86.4395 139.971C86.7035 140.439 86.5375 141.033 86.0685 141.296C85.6025 141.558 85.0115 141.395 84.7465 140.932L83.7835 139.248C83.5135 138.778 83.6775 138.179 84.1465 137.909C84.6155 137.639 85.2155 137.803 85.4855 138.272L85.4895 138.281Z" fill="#32B3C2"/>
<path d="M88.601 142.88L89.942 144.281C90.299 144.654 90.287 145.246 89.914 145.603C89.547 145.955 88.965 145.947 88.606 145.589L87.234 144.22C86.859 143.847 86.858 143.241 87.232 142.866C87.605 142.492 88.211 142.491 88.586 142.864C88.59 142.869 88.597 142.876 88.601 142.88Z" fill="#32B3C2"/>
<path d="M92.7945 146.555C92.7945 146.555 93.2065 146.812 93.6175 147.069L93.7355 147.14L93.8875 147.225C93.9875 147.281 94.0795 147.331 94.1585 147.376C94.3165 147.464 94.4235 147.523 94.4235 147.523C94.8405 147.755 94.9895 148.282 94.7575 148.699C94.5285 149.11 94.0135 149.261 93.6005 149.044C93.6005 149.044 93.4935 148.987 93.3315 148.902C93.2505 148.86 93.1575 148.81 93.0575 148.757L92.9025 148.676L92.7085 148.566C92.2905 148.319 91.8735 148.073 91.8735 148.073C91.4505 147.823 91.3105 147.279 91.5605 146.856C91.8095 146.434 92.3545 146.293 92.7775 146.543C92.7805 146.547 92.7895 146.552 92.7945 146.555Z" fill="#32B3C2"/>
<path d="M97.7841 148.855L99.6821 149.248C100.093 149.333 100.358 149.735 100.273 150.147C100.19 150.548 99.8031 150.809 99.4031 150.744L97.4911 150.429C97.0541 150.357 96.7601 149.945 96.8321 149.508C96.9031 149.072 97.3151 148.778 97.7521 148.85C97.7621 148.85 97.7741 148.853 97.7841 148.855Z" fill="#32B3C2"/>
<path d="M103.313 149.37L105.238 149.136C105.583 149.094 105.896 149.339 105.938 149.685C105.979 150.017 105.749 150.321 105.423 150.38L103.515 150.721C103.143 150.787 102.788 150.54 102.722 150.168C102.656 149.797 102.903 149.441 103.275 149.375C103.286 149.373 103.301 149.371 103.313 149.37Z" fill="#32B3C2"/>
<path d="M108.821 148.161L110.615 147.423C110.846 147.327 111.112 147.438 111.208 147.67C111.299 147.891 111.2 148.144 110.989 148.249L109.25 149.11C108.992 149.237 108.68 149.131 108.552 148.874C108.425 148.616 108.531 148.304 108.788 148.176C108.799 148.17 108.811 148.165 108.821 148.161Z" fill="#32B3C2"/>
<path d="M113.939 145.602L115.534 144.498C115.638 144.426 115.78 144.452 115.852 144.556C115.92 144.655 115.899 144.789 115.808 144.864L114.303 146.089C114.173 146.194 113.982 146.175 113.876 146.045C113.77 145.915 113.789 145.724 113.92 145.617C113.927 145.612 113.934 145.606 113.939 145.602Z" fill="#32B3C2"/>
<path d="M118.517 142.02L119.244 141.331L118.593 142.093C118.574 142.114 118.542 142.117 118.52 142.099C118.499 142.079 118.496 142.047 118.514 142.025C118.515 142.023 118.516 142.022 118.517 142.02Z" fill="#32B3C2"/>
<path d="M88.8147 101.568C88.8147 101.568 88.6937 101.801 88.5727 102.034C88.4427 102.258 88.3117 102.481 88.3117 102.481C88.2257 102.628 88.0377 102.678 87.8897 102.592C87.7417 102.506 87.6927 102.318 87.7787 102.17C87.8067 102.121 87.8477 102.082 87.8937 102.057C87.8937 102.057 88.1197 101.93 88.3447 101.803C88.5797 101.685 88.8147 101.568 88.8147 101.568Z" fill="#32B3C2"/>
<path d="M86.6494 105.145C86.6494 105.145 86.4334 105.479 86.2174 105.813C85.9934 106.14 85.7703 106.468 85.7703 106.468C85.4693 106.906 84.8714 107.019 84.4324 106.718C83.9944 106.418 83.8814 105.82 84.1824 105.381C84.2034 105.35 84.2304 105.316 84.2544 105.287C84.2544 105.287 84.5174 104.99 84.7794 104.692C85.0504 104.401 85.3224 104.11 85.3224 104.11C85.6394 103.769 86.1744 103.75 86.5154 104.068C86.8204 104.352 86.8684 104.807 86.6494 105.145Z" fill="#32B3C2"/>
<path d="M84.0671 108.997L83.1801 110.292C82.9151 110.679 82.3881 110.777 82.0021 110.513C81.6581 110.278 81.5431 109.832 81.7081 109.465C81.7081 109.465 81.7491 109.374 81.8101 109.238C81.8411 109.17 81.8761 109.091 81.9141 109.006L81.9831 108.858L82.0481 108.725C82.2301 108.371 82.4101 108.018 82.4101 108.018L82.4131 108.014C82.6551 107.54 83.2361 107.353 83.7101 107.595C84.1841 107.838 84.3711 108.419 84.1281 108.893C84.1121 108.927 84.0891 108.965 84.0671 108.997Z" fill="#32B3C2"/>
<path d="M81.3193 112.838C81.3193 112.838 81.1593 113.042 81.0003 113.245C80.8283 113.444 80.6553 113.642 80.6553 113.642C80.6553 113.642 80.6773 113.38 80.6993 113.119C80.7333 112.862 80.7663 112.605 80.7663 112.605C80.7883 112.435 80.9453 112.315 81.1163 112.337C81.2863 112.359 81.4053 112.516 81.3833 112.686C81.3753 112.744 81.3533 112.796 81.3193 112.838Z" fill="#32B3C2"/>
<path d="M100.066 102.83C100.066 102.83 99.9124 103.036 99.7564 103.241C99.6014 103.447 99.4364 103.639 99.4364 103.639C99.3514 103.74 99.2014 103.751 99.1014 103.665C99.0004 103.58 98.9894 103.43 99.0754 103.33C99.0954 103.307 99.1184 103.289 99.1424 103.275C99.1424 103.275 99.3664 103.154 99.5994 103.046C99.8324 102.938 100.066 102.83 100.066 102.83Z" fill="#32B3C2"/>
<path d="M96.6883 106.915C96.6883 106.915 96.3422 107.328 95.9892 107.734C95.6362 108.141 95.2842 108.548 95.2842 108.548C94.9362 108.948 94.3312 108.992 93.9302 108.646C93.5292 108.298 93.4862 107.693 93.8322 107.292C93.8562 107.264 93.8832 107.237 93.9092 107.213C93.9092 107.213 94.3063 106.849 94.7043 106.484C95.1003 106.12 95.5042 105.762 95.5042 105.762C95.8462 105.458 96.3692 105.491 96.6732 105.832C96.9492 106.145 96.9483 106.605 96.6883 106.915Z" fill="#32B3C2"/>
<path d="M92.5689 111.728C92.5689 111.728 92.2219 112.14 91.8749 112.552C91.5269 112.963 91.1739 113.371 91.1739 113.371C90.8729 113.718 90.3489 113.756 90.0009 113.455C89.6849 113.181 89.6259 112.718 89.8479 112.376C89.8479 112.376 90.1409 111.923 90.4379 111.474C90.7369 111.026 91.0359 110.577 91.0359 110.577C91.3299 110.136 91.9259 110.015 92.3679 110.309C92.8089 110.603 92.9299 111.199 92.6359 111.641C92.6149 111.671 92.5929 111.701 92.5689 111.728Z" fill="#32B3C2"/>
<path d="M88.3447 116.6C88.3447 116.6 88.1777 116.791 87.9977 116.976C87.8167 117.16 87.6367 117.343 87.6367 117.343C87.6367 117.343 87.7087 117.096 87.7807 116.849C87.8537 116.601 87.9397 116.362 87.9397 116.362C87.9847 116.238 88.1217 116.173 88.2457 116.217C88.3707 116.262 88.4347 116.399 88.3907 116.524C88.3797 116.552 88.3637 116.579 88.3447 116.6Z" fill="#32B3C2"/>
<path d="M108.416 96.748C108.416 96.748 116.065 81.906 120.581 89.41C125.097 96.915 108.416 96.748 108.416 96.748Z" fill="#F7B75D"/>
<path d="M122.196 73.236L132.373 73.989L125.3 78.262L123.624 79.275L119.887 73.088L122.196 73.236Z" fill="#32B3C2"/>
<path d="M135.67 95.5361L134.701 97.6091L131.013 91.5031L132.689 90.4921L139.762 86.217L135.67 95.5361Z" fill="#32B3C2"/>
<path d="M135.781 71.929C135.807 71.913 138.199 72.442 140.649 72.99C143.51 73.63 145.259 76.525 144.495 79.355C143.84 81.779 143.195 84.142 143.17 84.158L143.241 84.115L135.852 71.886L135.781 71.929Z" fill="white"/>
<path d="M135.849 71.914L133.462 73.3564L140.852 85.5855L143.239 84.1431L135.849 71.914Z" fill="#32B3C2"/>
<path d="M140.854 85.557L127.428 93.668C124.818 95.245 122.519 92.849 122.519 92.849L118.481 86.166C118.481 86.166 117.231 83.137 120.04 81.439L133.466 73.327L140.854 85.557Z" fill="#35A6B4"/>
<path d="M133.1 84.761C134.683 84.761 135.965 83.4783 135.965 81.896C135.965 80.3137 134.683 79.031 133.1 79.031C131.518 79.031 130.235 80.3137 130.235 81.896C130.235 83.4783 131.518 84.761 133.1 84.761Z" fill="white"/>
<path d="M127.317 88.2539C128.899 88.2539 130.182 86.9712 130.182 85.3889C130.182 83.8066 128.899 82.5239 127.317 82.5239C125.735 82.5239 124.452 83.8066 124.452 85.3889C124.452 86.9712 125.735 88.2539 127.317 88.2539Z" fill="white"/>
<path d="M176.261 84.536H175.868C162.251 84.672 151.25 96.254 151.25 110.535C151.25 115.392 152.452 119.984 154.762 123.812C160.561 133.427 163.806 146.553 163.806 146.553H175.869H176.262H188.325C188.325 146.553 191.569 133.427 197.369 123.812C199.678 119.984 200.88 115.392 200.88 110.535C200.879 96.253 189.879 84.671 176.261 84.536Z" fill="white"/>
<path d="M163.146 144.689V153.53L165.871 158.276H176.019H186.167L188.893 153.53V144.689H163.146Z" fill="#32B3C2"/>
<path fill-rule="evenodd" clip-rule="evenodd" d="M176.064 92.282C173.926 90.194 167.464 91.516 167.464 96.139C163.122 96.139 159.293 101.911 162.302 106.652C158.19 108.97 157.739 116.486 162.657 119.07C162.657 125.008 169.411 128.93 176.063 125.436C182.715 128.93 189.47 125.008 189.47 119.07C194.389 116.486 193.937 108.97 189.825 106.652C192.833 101.912 189.004 96.139 184.663 96.139C184.665 91.516 178.203 90.194 176.064 92.282Z" fill="#F7B75D"/>
<path d="M183.343 108.176C183.318 107.976 183.136 107.785 182.937 107.75L182.155 107.614C181.955 107.578 181.741 107.394 181.676 107.2L181.362 106.426C181.275 106.244 181.297 105.961 181.418 105.798L181.884 105.151C182 104.988 181.998 104.72 181.875 104.562L181.455 104.063C181.315 103.917 181.056 103.868 180.873 103.957L180.157 104.309C179.974 104.396 179.696 104.37 179.537 104.248L178.822 103.805C178.643 103.713 178.495 103.477 178.493 103.276L178.491 102.476C178.486 102.277 178.328 102.061 178.135 102.004L177.503 101.849C177.308 101.811 177.067 101.924 176.971 102.102L176.851 102.331L176.705 102.609L176.601 102.805C176.505 102.983 176.261 103.131 176.06 103.133L175.226 103.194C175.023 103.221 174.763 103.111 174.643 102.946L174.174 102.307C174.054 102.142 173.8 102.063 173.611 102.13L173.007 102.375C172.822 102.462 172.696 102.695 172.724 102.893L172.837 103.682C172.864 103.884 172.754 104.144 172.59 104.262L171.948 104.806C171.804 104.946 171.53 105.008 171.338 104.947L170.579 104.705C170.386 104.643 170.133 104.726 170.014 104.89C170.014 104.89 169.955 104.968 169.835 105.164C169.712 105.364 169.668 105.446 169.668 105.446C169.574 105.624 169.611 105.89 169.751 106.032L170.306 106.605C170.446 106.749 170.511 107.028 170.452 107.218L170.247 108.036C170.212 108.232 170.027 108.445 169.836 108.511L169.081 108.761C168.89 108.824 168.738 109.04 168.742 109.24L168.789 109.895C168.814 110.095 168.996 110.285 169.195 110.321L169.977 110.457C170.177 110.492 170.391 110.677 170.456 110.87L170.771 111.645C170.86 111.827 170.835 112.109 170.719 112.273L170.251 112.922C170.132 113.083 170.137 113.351 170.262 113.509L170.678 114.008C170.817 114.154 171.076 114.203 171.259 114.114L171.975 113.762C172.156 113.672 172.434 113.701 172.595 113.823L173.313 114.271C173.491 114.358 173.64 114.594 173.641 114.798L173.644 115.595C173.646 115.795 173.804 116.01 173.998 116.067L174.63 116.222C174.825 116.26 175.066 116.147 175.162 115.969L175.534 115.265C175.628 115.087 175.871 114.941 176.073 114.937L176.907 114.876C177.11 114.849 177.37 114.959 177.49 115.124L177.959 115.763C178.079 115.928 178.333 116.007 178.522 115.94L179.128 115.69C179.311 115.608 179.437 115.375 179.409 115.174L179.296 114.388C179.269 114.186 179.379 113.925 179.544 113.808L180.185 113.264C180.331 113.124 180.608 113.06 180.798 113.123L181.557 113.363C181.747 113.426 182 113.342 182.12 113.18C182.12 113.18 182.178 113.102 182.301 112.906C182.426 112.706 182.465 112.622 182.465 112.622C182.559 112.446 182.522 112.181 182.382 112.033L181.829 111.466C181.687 111.319 181.622 111.042 181.683 110.852L181.884 110.036C181.92 109.838 182.105 109.625 182.296 109.559L183.053 109.309C183.242 109.244 183.399 109.03 183.39 108.826L183.343 108.176ZM179.585 111.223C178.377 113.167 175.823 113.762 173.877 112.554C171.936 111.346 171.337 108.794 172.547 106.849C173.235 105.739 174.362 105.071 175.565 104.922C175.702 104.904 175.843 104.897 175.981 104.898C176.111 104.892 176.237 104.895 176.363 104.908C176.505 104.915 176.64 104.929 176.78 104.954C177.287 105.041 177.787 105.227 178.253 105.517C180.195 106.723 180.792 109.278 179.585 111.223Z" fill="white"/>
<path d="M177.622 106.532C177.346 106.356 177.048 106.237 176.748 106.164C176.342 106.066 175.929 106.059 175.533 106.133C174.743 106.277 174.013 106.739 173.555 107.479C172.693 108.867 173.118 110.684 174.508 111.546C175.893 112.408 177.713 111.984 178.577 110.595C179.438 109.209 179.01 107.389 177.622 106.532ZM176.97 109.594C176.658 110.093 176.002 110.252 175.506 109.941C175.003 109.628 174.854 108.972 175.162 108.473C175.245 108.339 175.353 108.224 175.48 108.146C175.814 107.924 176.26 107.908 176.627 108.133C176.652 108.146 176.673 108.162 176.693 108.182C177.137 108.503 177.264 109.12 176.97 109.594Z" fill="white"/>
<path d="M292.196 223.487V192.641C292.196 190.925 290.846 189.535 289.18 189.535H242.245C240.58 189.535 239.23 190.926 239.23 192.641V223.487H292.196Z" fill="white"/>
<path d="M287.23 207.943H301.748C303.245 207.943 304.458 209.157 304.458 210.653C304.458 212.15 303.245 213.363 301.748 213.363H287.23C285.733 213.363 284.52 212.15 284.52 210.653C284.52 209.157 285.733 207.943 287.23 207.943Z" fill="white"/>
<path d="M288.566 197.305H296.46C297.957 197.305 299.17 198.518 299.17 200.015C299.17 201.512 297.957 202.725 296.46 202.725H288.566C287.069 202.725 285.856 201.512 285.856 200.015C285.856 198.518 287.069 197.305 288.566 197.305Z" fill="white"/>
<path d="M283.733 218.19H305.244C306.214 218.19 307 219.077 307 220.17C307 221.265 306.214 222.151 305.244 222.151H283.733C282.762 222.151 281.976 221.264 281.976 220.17C281.977 219.077 282.763 218.19 283.733 218.19Z" fill="white"/>
<path d="M299.421 192.27H307.205C308.175 192.27 308.961 193.056 308.961 194.026C308.961 194.996 308.175 195.783 307.205 195.783H299.421C298.451 195.783 297.665 194.996 297.665 194.026C297.665 193.056 298.451 192.27 299.421 192.27Z" fill="white"/>
<path d="M289.398 213.11H299.845C299.074 213.11 298.371 213.429 297.866 213.912C297.358 214.397 297.045 214.97 297.045 215.709C297.045 217.185 298.299 218.285 299.845 218.285H289.398C290.169 218.285 290.87 218.089 291.377 217.608C291.882 217.126 292.195 216.489 292.195 215.751C292.196 214.272 290.944 213.11 289.398 213.11Z" fill="white"/>
<path d="M265.981 212.485C268.807 212.485 271.098 210.194 271.098 207.368C271.098 204.542 268.807 202.251 265.981 202.251C263.155 202.251 260.864 204.542 260.864 207.368C260.864 210.194 263.155 212.485 265.981 212.485Z" fill="#35A6B4"/>
<path d="M238.449 222.487V223.953C238.449 224.763 239.091 225.419 239.881 225.419H292.081C292.872 225.419 293.514 224.763 293.514 223.953V222.487H238.449Z" fill="#32B3C2"/>
<path d="M176.853 223.266V192.713C176.853 191.014 178.191 189.636 179.84 189.636H226.329C227.978 189.636 229.315 191.014 229.315 192.713V223.266H176.853Z" fill="white"/>
<path d="M230.288 222.754V224.206C230.288 225.008 229.653 225.657 228.87 225.657H177.298C176.515 225.657 175.88 225.008 175.88 224.206V222.754H230.288Z" fill="#32B3C2"/>
<path d="M203.084 211.568C205.909 211.568 208.2 209.277 208.2 206.452C208.2 203.626 205.909 201.336 203.084 201.336C200.258 201.336 197.968 203.626 197.968 206.452C197.968 209.277 200.258 211.568 203.084 211.568Z" fill="#35A6B4"/>
<path d="M111.853 223.266V192.713C111.853 191.014 113.191 189.636 114.84 189.636H161.329C162.978 189.636 164.315 191.014 164.315 192.713V223.266H111.853Z" fill="white"/>
<path d="M165.288 222.754V224.206C165.288 225.008 164.653 225.657 163.87 225.657H112.298C111.515 225.657 110.88 225.008 110.88 224.206V222.754H165.288Z" fill="#32B3C2"/>
<path d="M138.084 211.568C140.909 211.568 143.2 209.277 143.2 206.452C143.2 203.626 140.909 201.336 138.084 201.336C135.258 201.336 132.968 203.626 132.968 206.452C132.968 209.277 135.258 211.568 138.084 211.568Z" fill="#35A6B4"/>
<path d="M48.8525 223.266V192.713C48.8525 191.014 50.1905 189.636 51.8395 189.636H98.3285C99.9775 189.636 101.315 191.014 101.315 192.713V223.266H48.8525Z" fill="white"/>
<path d="M102.288 222.754V224.206C102.288 225.008 101.653 225.657 100.87 225.657H49.2979C48.5149 225.657 47.8799 225.008 47.8799 224.206V222.754H102.288Z" fill="#32B3C2"/>
<path d="M75.0838 211.568C77.9093 211.568 80.1998 209.277 80.1998 206.452C80.1998 203.626 77.9093 201.336 75.0838 201.336C72.2583 201.336 69.9678 203.626 69.9678 206.452C69.9678 209.277 72.2583 211.568 75.0838 211.568Z" fill="#35A6B4"/>
<path d="M143.693 179.9C143.514 179.422 139.295 168.147 139.295 161.246H141.8C141.8 167.691 145.995 178.904 146.037 179.017L143.693 179.9Z" fill="#F99AB6"/>
<path d="M132.698 170.633L128.502 163.603C128.325 163.308 128.277 162.954 128.371 162.623C128.464 162.292 128.689 162.014 128.994 161.854L135.731 158.31L136.896 160.526L131.329 163.455L134.848 169.351L132.698 170.633Z" fill="#F99AB6"/>
<path d="M144.854 135.911C144.854 135.911 143.202 133.917 142.454 133.274C141.086 132.098 139.957 133.398 139.957 133.398C133.144 132.351 131.865 142.081 134.968 144.505C137.482 146.47 139.581 145.115 139.581 145.115C139.581 145.115 140.999 146.174 143.172 146.508C144.517 146.714 146.141 145.831 146.141 145.831C146.141 145.831 148.041 147.19 149.498 145.18C150.955 143.17 148.8 141.039 147.655 141.019C147.655 141.019 149.026 139.368 147.146 138.273C146.405 137.84 144.854 135.911 144.854 135.911Z" fill="#21899C"/>
<path d="M136.428 147.999C135.97 147.767 135.599 147.07 136.147 146.436C136.688 145.809 137.521 145.461 138.414 145.427L138.645 145.419C139.436 145.389 140.153 145.733 140.63 146.292C140.25 147.468 137.67 148.475 136.428 147.999Z" fill="#F99AB6"/>
<path d="M137.808 143.63L137.787 144.64L137.75 146.537L139.207 146.563L139.253 144.138L139.273 143.199C138.832 143.496 138.33 143.654 137.808 143.63Z" fill="#F99AB6"/>
<path d="M137.808 143.63L137.787 144.64C138.304 144.563 138.931 144.333 139.257 143.952L139.273 143.2C138.832 143.496 138.33 143.654 137.808 143.63Z" fill="#F99AB6"/>
<path d="M136.995 143.629C138.227 144.249 139.619 144.209 140.768 143.642C141.563 143.25 142.241 142.606 142.67 141.752L143.417 140.268C143.96 139.189 143.997 137.988 143.617 136.935C143.263 135.953 142.547 135.098 141.54 134.592C140.875 134.257 140.163 134.114 139.468 134.143C137.985 134.206 136.578 135.048 135.864 136.468L135.117 137.952C134.429 139.319 134.553 140.881 135.306 142.091C135.704 142.728 136.275 143.267 136.995 143.629Z" fill="#F99AB6"/>
<path d="M141.663 139.252C138.63 139.745 138.296 136.476 138.469 135.131C138.83 132.317 142.506 132.859 143.791 134.259C144.588 135.126 146.004 137.476 145.394 140.395C144.783 143.314 141.804 145.128 141.804 145.128C138.531 142.728 141.912 140.428 141.912 140.428L141.663 139.252Z" fill="#21899C"/>
<path d="M139 163.045C141.216 163.045 143.012 161.249 143.012 159.033C143.012 156.817 141.216 155.021 139 155.021C136.785 155.021 134.988 156.817 134.988 159.033C134.988 161.249 136.785 163.045 139 163.045Z" fill="#F7B75D"/>
<path d="M137.329 141.328C137.005 141.752 136.417 141.901 135.923 141.652C135.429 141.404 135.197 140.842 135.345 140.33L137.329 141.328Z" fill="#FFFEFF"/>
<path d="M132.132 160.179C137.433 164.776 144.007 167.03 144.007 167.03C144.007 167.03 145.127 160.304 142.646 157.391C141.4 155.928 134.989 158.054 134.989 158.054L132.132 160.179Z" fill="#F7B75D"/>
<path d="M134.299 148.671C134.025 149.427 134.788 150.191 135.588 150.277C136.388 150.365 137.107 149.788 137.194 148.988C137.281 148.188 136.09 146.436 135.639 147.103C135.211 147.74 134.533 148.024 134.299 148.671Z" fill="#F7B75D"/>
<path d="M140.631 146.292C140.976 146.697 141.196 147.214 141.224 147.786C141.224 147.786 140.864 154.376 142.67 157.411C143.447 158.717 134.967 158.68 134.967 158.68L135.195 148.933C135.149 147.965 135.521 147.078 136.148 146.436C136.185 147.905 139.208 146.137 140.631 146.292Z" fill="#F7B75D"/>
<path d="M139.354 148.696C137.847 148.696 127.693 148.219 122.043 135.7L124.326 134.671C129.591 146.34 139.036 146.204 139.44 146.192L139.526 148.695C139.502 148.695 139.443 148.696 139.354 148.696Z" fill="#F7B75D"/>
<path d="M124.261 132.662C123.81 132.384 123.296 132.293 122.81 132.367L121.089 135.157C121.24 135.625 121.552 136.044 122.003 136.321C123.014 136.945 124.338 136.631 124.962 135.62C125.585 134.61 125.271 133.285 124.261 132.662Z" fill="#F99AB6"/>
<path d="M134.772 172.481C135.674 172.481 136.405 171.75 136.405 170.848C136.405 169.946 135.674 169.215 134.772 169.215C133.87 169.215 133.139 169.946 133.139 170.848C133.139 171.75 133.87 172.481 134.772 172.481Z" fill="#21899C"/>
<path d="M129.279 174.182L135.208 172.421C135.835 172.234 136.192 171.576 136.006 170.949C135.82 170.322 134.599 169.196 133.972 169.383L128.74 172.779C128.164 173.154 128.309 174.076 128.987 174.194C129.087 174.211 129.186 174.21 129.279 174.182Z" fill="#21899C"/>
<path d="M145.14 181.922C146.041 181.922 146.772 181.191 146.772 180.29C146.772 179.389 146.041 178.658 145.14 178.658C144.238 178.658 143.508 179.389 143.508 180.29C143.508 181.191 144.238 181.922 145.14 181.922Z" fill="#21899C"/>
<path d="M141.224 185.383L146.117 181.599C146.634 181.199 146.728 180.455 146.329 179.939C145.929 179.421 144.383 178.813 143.865 179.213L140.215 184.271C139.812 184.829 140.281 185.635 140.956 185.5C141.055 185.481 141.146 185.443 141.224 185.383Z" fill="#21899C"/>
<path d="M137.646 157.875C137.005 157.875 136.314 157.812 135.586 157.655L135.661 157.305C139.085 158.041 141.75 156.577 141.775 156.563L141.951 156.875C141.862 156.926 140.14 157.875 137.646 157.875Z" fill="#F7A93E"/>
<path d="M108.6 177.18L109.341 176.439L110.572 177.67C110.819 177.916 111.203 178.123 111.42 177.906L112.508 176.818L111.668 175.978C111.421 175.731 111.502 175.543 111.718 175.327L112.896 174.15C113.113 173.933 113.322 173.832 113.568 174.079L114.408 174.918L115.345 173.982C115.562 173.765 115.506 173.23 115.26 172.983L114.029 171.752L114.618 171.163C114.835 170.946 114.882 170.578 114.636 170.332L113.294 168.991C113.048 168.744 112.683 168.793 112.466 169.01L111.876 169.599L110.792 168.515C110.545 168.268 110.116 168.32 109.899 168.536L108.962 169.473L109.547 170.057C109.793 170.304 109.947 170.768 109.731 170.985L108.553 172.162C108.336 172.379 107.894 172.204 107.647 171.958L107.063 171.373L105.975 172.461C105.758 172.678 105.858 172.955 106.105 173.202L107.189 174.286L106.448 175.027C106.232 175.244 106.208 175.585 106.455 175.831L107.796 177.172C108.041 177.418 108.384 177.397 108.6 177.18Z" fill="#8EDEF2"/>
<path d="M107.929 168.431L107.177 167.678L108.438 166.416C108.685 166.169 108.971 165.729 108.754 165.513L107.608 164.367L106.7 165.274C106.453 165.521 106.38 165.442 106.164 165.225L104.986 164.048C104.769 163.83 104.582 163.65 104.829 163.402L105.737 162.494L104.83 161.588C104.613 161.371 104.078 161.563 103.831 161.81L102.57 163.071L101.912 162.414C101.695 162.197 101.288 162.051 101.041 162.297L99.7002 163.638C99.4542 163.885 99.5372 164.357 99.7532 164.573L100.411 165.231L99.3623 166.28C99.1163 166.526 99.1433 166.843 99.3603 167.059L100.267 167.966L100.807 167.425C101.053 167.179 101.602 166.998 101.819 167.215L102.997 168.393C103.214 168.61 102.925 169.05 102.679 169.297L102.139 169.837L103.285 170.983C103.502 171.2 103.723 171.132 103.97 170.885L105.018 169.837L105.771 170.589C105.988 170.806 106.365 170.794 106.612 170.547L107.952 169.206C108.197 168.959 108.146 168.648 107.929 168.431Z" fill="#8EDEF2"/>
<path d="M109.885 172.314L109.896 173.855C109.897 173.943 109.862 174.027 109.799 174.088C109.736 174.151 109.653 174.187 109.565 174.183L108.041 174.156L108.052 173.505L109.243 173.526L109.234 172.319L109.885 172.314Z" fill="#21899C"/>
<path d="M104.461 169.218L109.336 174.092L109.797 173.631L104.922 168.757L104.461 169.218Z" fill="#21899C"/>
<path d="M105.705 165.721C105.707 165.721 105.709 165.721 105.711 165.721L107.235 165.747L107.223 166.398L106.033 166.377L106.041 167.584L105.391 167.588L105.38 166.048C105.379 165.96 105.414 165.875 105.477 165.814C105.537 165.754 105.619 165.721 105.705 165.721Z" fill="#21899C"/>
<path d="M105.493 166.295L110.368 171.171L110.829 170.711L105.954 165.835L105.493 166.295Z" fill="#21899C"/>
<path fill-rule="evenodd" clip-rule="evenodd" d="M169.577 165.225C166.675 165.225 163.515 167.471 163.515 171.219C163.515 176.922 169.591 182.949 169.591 182.949C169.591 182.949 175.667 176.824 175.667 171.219C175.668 167.471 172.314 165.225 169.577 165.225ZM171.082 173.79C170.678 174.038 170.181 174.187 169.592 174.196C168.765 174.184 168.119 173.893 167.656 173.446C165.953 171.868 166.601 168.22 169.603 168.22C172.854 168.22 173.346 172.493 171.082 173.79Z" fill="#35A6B4"/>
<path d="M120.938 120.67C124.819 120.67 127.965 117.524 127.965 113.643C127.965 109.762 124.819 106.616 120.938 106.616C117.057 106.616 113.911 109.762 113.911 113.643C113.911 117.524 117.057 120.67 120.938 120.67Z" fill="white"/>
<path d="M120.938 119.153C123.981 119.153 126.448 116.686 126.448 113.643C126.448 110.6 123.981 108.133 120.938 108.133C117.895 108.133 115.428 110.6 115.428 113.643C115.428 116.686 117.895 119.153 120.938 119.153Z" fill="#35A6B4"/>
<path d="M120.938 117.37C122.996 117.37 124.665 115.701 124.665 113.643C124.665 111.585 122.996 109.916 120.938 109.916C118.88 109.916 117.211 111.585 117.211 113.643C117.211 115.701 118.88 117.37 120.938 117.37Z" fill="white"/>
<path d="M120.938 115.38C121.897 115.38 122.675 114.602 122.675 113.643C122.675 112.684 121.897 111.906 120.938 111.906C119.979 111.906 119.201 112.684 119.201 113.643C119.201 114.602 119.979 115.38 120.938 115.38Z" fill="#35A6B4"/>
<path d="M131.33 114.2H120.938C120.63 114.2 120.381 113.951 120.381 113.643C120.381 113.336 120.63 113.087 120.938 113.087H131.33C131.638 113.087 131.887 113.336 131.887 113.643C131.887 113.951 131.638 114.2 131.33 114.2Z" fill="#32B3C2"/>
<path d="M131.057 113.52L132.832 112.448H134.993L133.798 113.643L134.993 114.838H132.832L131.057 113.767V113.52Z" fill="#32B3C2"/>
<path d="M265.638 162.029C265.631 164.094 266.675 165.771 267.971 165.776C269.266 165.78 270.322 164.11 270.33 162.046C270.337 159.981 269.292 158.304 267.997 158.3C266.701 158.295 265.645 159.965 265.638 162.029Z" fill="#21899C"/>
<path d="M279.364 167.518C277.854 166.65 276.183 164.48 276.821 162.569C278.312 158.101 274.829 156.503 273.105 156.173C271.381 155.843 269.86 156.281 268.901 157.05C267.342 158.298 267.808 160.449 268.677 162.182C267.734 162.727 267.281 163.895 267.823 164.765C269.006 166.661 267.987 169.212 267.283 170.729C266.15 173.168 267.729 176.197 270.478 177.579C273.227 178.961 276.808 178.813 279.568 177.577C280.939 176.964 282.174 176.066 282.798 174.877C284.147 172.309 282.2 169.149 279.364 167.518Z" fill="#21899C"/>
<path d="M260.434 184.611C259.778 184.706 259.088 184.763 258.368 184.783C257.84 184.798 257.399 184.381 257.385 183.852C257.37 183.323 257.784 182.882 258.316 182.869C261.674 182.776 264.187 181.787 265.783 179.928C268.219 177.089 267.756 173.142 267.751 173.103C267.685 172.578 268.064 172.104 268.581 172.034C269.105 171.968 269.585 172.34 269.65 172.864C269.675 173.06 270.218 177.699 267.236 181.176C265.633 183.04 263.352 184.192 260.434 184.611Z" fill="#F99AB6"/>
<path d="M268.473 171.339C267.578 171.467 266.942 172.298 267.053 173.187C267.058 173.223 267.461 176.893 265.25 179.47C264.169 180.729 262.595 181.551 260.577 181.929C261.16 182.922 261.26 184.207 260.794 185.258C263.757 184.782 266.106 183.568 267.767 181.63C270.951 177.921 270.371 172.984 270.344 172.776C270.23 171.869 269.399 171.223 268.473 171.339Z" fill="#F7B75D"/>
<path d="M268.736 172.967C268.245 172.718 267.847 171.973 268.435 171.293C269.013 170.622 269.906 170.25 270.861 170.214L271.109 170.204C271.956 170.172 272.723 170.541 273.234 171.14C272.828 172.399 270.065 173.476 268.736 172.967Z" fill="#F99AB6"/>
<path d="M270.356 168.29L270.334 169.371L270.294 171.402L271.855 171.43L271.903 168.834L271.924 167.828C271.452 168.145 270.915 168.315 270.356 168.29Z" fill="#F99AB6"/>
<path d="M270.356 168.547L270.334 169.629C270.887 169.546 271.559 169.3 271.907 168.892L271.924 168.086C271.452 168.403 270.915 168.573 270.356 168.547Z" fill="#F99AB6"/>
<path d="M270.743 169.106C272.221 169.091 273.525 168.371 274.34 167.267C274.904 166.503 275.234 165.557 275.223 164.535L275.205 162.756C275.191 161.463 274.638 160.302 273.76 159.486C272.941 158.724 271.84 158.264 270.634 158.276C269.836 158.284 269.089 158.498 268.442 158.867C267.061 159.654 266.137 161.145 266.155 162.847L266.173 164.626C266.19 166.264 267.073 167.689 268.384 168.471C269.073 168.882 269.881 169.115 270.743 169.106Z" fill="#F99AB6"/>
<path d="M271.489 189.075C273.861 189.075 275.784 187.152 275.784 184.78C275.784 182.408 273.861 180.485 271.489 180.485C269.117 180.485 267.194 182.408 267.194 184.78C267.194 187.152 269.117 189.075 271.489 189.075Z" fill="#21899C"/>
<path d="M270.443 166.752C270.343 167.315 269.857 167.745 269.264 167.751C268.672 167.757 268.177 167.336 268.066 166.775L270.443 166.752Z" fill="#FFFEFF"/>
<path d="M266.455 173.687C266.162 174.497 266.979 175.313 267.836 175.407C268.691 175.501 269.462 174.883 269.556 174.026C269.65 173.171 268.373 171.295 267.892 172.008C267.433 172.689 266.707 172.994 266.455 173.687Z" fill="#F7B75D"/>
<path d="M273.233 171.14C273.603 171.574 273.838 172.127 273.868 172.74C273.868 172.74 273.482 179.795 275.417 183.045L267.192 183.732L267.413 173.968C267.364 172.932 267.763 171.981 268.434 171.294C268.474 172.867 271.71 170.973 273.233 171.14Z" fill="#F7B75D"/>
<path d="M267.696 202.642C266.937 202.679 266.562 203.391 266.498 203.592C266.145 204.699 266.271 205.859 265.562 207.737C265.079 209.018 264.594 209.279 264.25 210.321C263.955 211.216 264.778 211.507 265.59 211.191C265.907 211.068 267.909 210.543 267.945 208.943C267.971 207.774 267.835 206.881 268.205 205.878C268.576 204.875 268.894 205.44 269.014 205.747C269.099 205.966 269.367 206.593 269.456 206.788C269.488 206.859 269.57 206.892 269.644 206.864L269.647 206.862C269.727 206.831 269.764 206.739 269.726 206.662C269.614 206.433 269.406 205.645 269.33 204.638C269.236 203.403 268.385 202.608 267.696 202.642Z" fill="#21899C"/>
<path d="M266.9 208.16C267.316 207.224 267.813 204.35 267.567 203.717C267.277 202.973 265.724 202.916 265.629 203.587C265.464 204.737 265.94 206.746 264.99 208.9C265.108 209.464 266.414 209.248 266.9 208.16Z" fill="#F99AB6"/>
<path d="M272.83 188.729L262.709 193.433L263.668 191.149L267.418 203.302C267.646 204.039 267.232 204.822 266.495 205.049C265.791 205.267 265.045 204.896 264.78 204.221L260.17 192.367C259.83 191.495 260.226 190.517 261.055 190.118L261.129 190.083L271.195 185.266C272.149 184.809 273.293 185.212 273.75 186.166C274.206 187.12 273.803 188.264 272.85 188.72C272.846 188.721 272.833 188.727 272.83 188.729Z" fill="#21899C"/>
<path d="M260.897 198.822C260.209 198.501 259.545 198.956 259.394 199.104C258.565 199.918 258.136 201.002 256.633 202.333C255.608 203.24 255.058 203.246 254.268 204.007C253.59 204.66 254.182 205.302 255.046 205.402C255.385 205.441 257.4 205.91 258.179 204.512C258.747 203.491 259.043 202.637 259.839 201.922C260.635 201.207 260.652 201.857 260.615 202.183C260.588 202.416 260.532 203.096 260.52 203.31C260.515 203.388 260.573 203.456 260.65 203.464L260.654 203.465C260.739 203.475 260.815 203.41 260.817 203.324C260.824 203.07 261.008 202.276 261.411 201.348C261.904 200.213 261.522 199.113 260.897 198.822Z" fill="#21899C"/>
<path d="M257.619 203.331C258.424 202.699 260.203 200.389 260.281 199.713C260.372 198.919 259.024 198.145 258.627 198.693C257.945 199.633 257.429 201.632 255.584 203.095C255.425 203.65 256.681 204.068 257.619 203.331Z" fill="#F99AB6"/>
<path d="M272.119 189.035L260.973 188.475L262.887 186.902L260.534 199.402C260.391 200.16 259.661 200.659 258.902 200.516C258.178 200.38 257.691 199.703 257.772 198.984L259.223 186.348C259.33 185.417 260.135 184.738 261.055 184.771L261.137 184.774L272.289 185.21C273.346 185.251 274.169 186.141 274.128 187.197C274.086 188.254 273.196 189.078 272.14 189.036C272.137 189.036 272.123 189.036 272.119 189.035Z" fill="#21899C"/>
<path d="M272.917 184.781C272.43 184.863 271.907 184.922 271.35 184.958C270.822 184.992 270.367 184.592 270.332 184.063C270.299 183.536 270.701 183.083 271.227 183.046C273 182.932 275.235 182.496 275.807 181.067C276.709 178.814 273.598 174.713 272.437 173.453C272.08 173.064 272.104 172.459 272.493 172.1C272.882 171.741 273.487 171.766 273.846 172.155C274.388 172.743 279.096 178.007 277.585 181.779C276.952 183.359 275.385 184.365 272.917 184.781Z" fill="#F99AB6"/>
<path d="M274.36 171.681C273.978 171.267 273.42 171.076 272.864 171.169C272.487 171.232 272.144 171.424 271.887 171.717C271.326 172.358 271.392 173.347 271.965 173.977C273.287 175.43 275.851 179.07 275.155 180.807C275.034 181.11 274.785 181.353 274.467 181.548C273.875 181.912 273.546 182.586 273.68 183.268C273.682 183.28 273.684 183.291 273.687 183.302C273.89 184.391 275.106 185.001 276.066 184.45C277.101 183.857 277.828 183.053 278.234 182.04C279.871 177.955 275.294 172.694 274.36 171.681Z" fill="#F7B75D"/>
<path d="M267.267 183.86C267.313 184.425 267.561 184.925 267.934 185.298L271.432 185.011C271.739 184.583 271.902 184.05 271.856 183.484C271.752 182.217 270.64 181.275 269.373 181.379C268.105 181.481 267.162 182.593 267.267 183.86Z" fill="#F99AB6"/>
<path d="M255.349 184.29C255.371 184.857 255.599 185.368 255.954 185.755L259.462 185.616C259.786 185.202 259.972 184.676 259.949 184.108C259.899 182.837 258.828 181.848 257.557 181.899C256.288 181.949 255.299 183.02 255.349 184.29Z" fill="#F99AB6"/>
<path d="M270.861 162.992C273.164 163.8 275.442 163.283 275.95 161.837C276.457 160.392 275.001 158.565 272.697 157.757C270.394 156.949 268.115 157.466 267.608 158.911C267.101 160.357 268.557 162.184 270.861 162.992Z" fill="#21899C"/>
<path d="M273.559 185.179C273.559 184.861 273.301 184.603 272.983 184.603H252.128C251.69 184.603 251.333 184.862 251.333 185.178C251.333 185.495 251.69 185.754 252.128 185.754H272.983C273.301 185.754 273.559 185.497 273.559 185.179Z" fill="#21899C"/>
<path d="M274.377 185.178C274.377 185.495 274.098 185.754 273.756 185.754H265.836C265.495 185.754 265.216 185.495 265.216 185.178C265.216 184.862 265.495 184.603 265.836 184.603H273.756C274.098 184.603 274.377 184.862 274.377 185.178Z" fill="white"/>
<path d="M251.365 173.811V184.328C251.365 184.797 251.744 185.177 252.213 185.177H266.089C266.558 185.177 266.938 184.797 266.938 184.328V173.811C266.938 173.342 266.558 172.962 266.089 172.962H252.213C251.744 172.962 251.365 173.342 251.365 173.811Z" fill="white"/>
<path d="M250.717 173.811V184.328C250.717 184.797 251.097 185.177 251.566 185.177H265.442C265.911 185.177 266.291 184.797 266.291 184.328V173.811C266.291 173.342 265.911 172.962 265.442 172.962H251.566C251.097 172.962 250.717 173.342 250.717 173.811Z" fill="#21899C"/>
<path d="M260.792 179.069C260.792 178.576 260.392 178.175 259.897 178.175H257.109C256.616 178.175 256.215 178.575 256.215 179.069C256.215 179.563 256.615 179.964 257.109 179.964H259.897C260.392 179.963 260.792 179.563 260.792 179.069Z" fill="white"/>
<path d="M238.07 120.628C237.591 120.628 237.119 120.407 236.814 119.991L231.435 112.629C231.017 112.057 231.039 111.273 231.491 110.725L238.519 102.189C239.065 101.526 240.043 101.432 240.707 101.977C241.369 102.522 241.464 103.501 240.919 104.165L234.656 111.77L239.324 118.159C239.83 118.851 239.678 119.823 238.985 120.33C238.709 120.532 238.389 120.628 238.07 120.628Z" fill="#F7B75D"/>
<path d="M248.394 120.615C248.076 120.615 247.754 120.517 247.478 120.315C246.786 119.808 246.634 118.836 247.141 118.143L251.829 111.739L245.591 104.154C245.046 103.491 245.142 102.511 245.805 101.966C246.467 101.42 247.447 101.518 247.992 102.179L254.996 110.696C255.447 111.245 255.47 112.028 255.05 112.601L249.651 119.979C249.344 120.394 248.872 120.615 248.394 120.615Z" fill="#F7B75D"/>
<path d="M243.388 97.883C245.864 97.883 247.871 95.8759 247.871 93.4C247.871 90.9241 245.864 88.917 243.388 88.917C240.912 88.917 238.905 90.9241 238.905 93.4C238.905 95.8759 240.912 97.883 243.388 97.883Z" fill="#32B3C2"/>
<path d="M245.032 98.18L245.021 102.444L245.012 105.231L241.744 105.223L241.909 98.408L241.956 96.468L245.032 98.18Z" fill="#F99AB6"/>
<path d="M238.528 104.861C238.54 103.531 239.689 102.244 240.88 101.624C242.662 100.697 245.412 101.343 246.288 101.864C247.779 102.751 248.668 104.553 248.563 106.407L248.667 116.35H238.108C238.108 116.35 238.504 107.886 238.528 104.861Z" fill="#F7B75D"/>
<path d="M243.549 107.86C244.324 105.477 245.175 103.811 245.942 101.692C243.594 100.806 241.321 101.301 240.838 101.692C241.604 103.811 242.455 105.477 243.231 107.861C243.271 108.033 243.387 108.309 243.39 108.305C243.393 108.309 243.396 108.319 243.399 108.322C243.406 108.294 243.509 108.033 243.549 107.86Z" fill="#C2F3FF"/>
<path d="M243.671 101.86H243.39H243.108L242.579 105.082L242.953 107.044L243.39 108.305L243.826 107.044L244.199 105.082L243.671 101.86Z" fill="#21899C"/>
<path d="M244.24 89.9719H242.539C241.036 89.9719 239.63 91.2019 239.818 92.6939C239.955 93.7789 239.818 94.593 239.818 96.205C239.818 97.557 241.4 100.177 242.751 100.177H244.028C245.379 100.177 246.961 97.557 246.961 96.205C246.961 94.594 246.824 93.7789 246.961 92.6939C247.149 91.2029 245.742 89.9719 244.24 89.9719Z" fill="#F99AB6"/>
<path d="M242.012 97.8831C242.134 98.5331 242.703 99.0281 243.39 99.0281C244.077 99.0281 244.646 98.5341 244.768 97.8831H242.012Z" fill="#FFFEFF"/>
<path d="M245.086 125.859H241.693C239.255 125.859 237.427 123.629 237.906 121.239L238.11 116.35H248.669L248.873 121.239C249.351 123.628 247.523 125.859 245.086 125.859Z" fill="#21899C"/>
<path d="M250.32 122.479H236.936C236.357 122.479 235.886 122.008 235.886 121.428V113.947C235.886 113.368 236.357 112.897 236.936 112.897H250.32C250.9 112.897 251.37 113.368 251.37 113.947V121.428C251.37 122.008 250.9 122.479 250.32 122.479Z" fill="#21899C"/>
<path d="M250.32 122.922H236.936C236.357 122.922 235.886 122.452 235.886 121.872V114.391C235.886 113.811 236.357 113.341 236.936 113.341H250.32C250.9 113.341 251.37 113.811 251.37 114.391V121.872C251.37 122.453 250.9 122.922 250.32 122.922Z" fill="white"/>
<path d="M245.174 118.93H242.083C241.646 118.93 241.293 118.576 241.293 118.14V118.123C241.293 117.686 241.647 117.333 242.083 117.333H245.174C245.611 117.333 245.964 117.687 245.964 118.123V118.14C245.964 118.576 245.61 118.93 245.174 118.93Z" fill="#21899C"/>
<path d="M243.807 102.043C243.647 102.189 243.078 102.174 242.925 102.019C242.779 101.871 242.731 101.196 242.731 101.196L244.047 101.233C244.047 101.233 243.96 101.904 243.807 102.043Z" fill="#8EDEF2"/>
<path d="M241.996 102.878L240.884 101.539L241.811 100.347L243.39 101.205L241.996 102.878Z" fill="white"/>
<path d="M244.783 102.878L245.895 101.539L244.968 100.347L243.39 101.205L244.783 102.878Z" fill="white"/>
<path d="M245.233 137.449L246.142 134.037L246.076 134.035C245.869 134.027 245.72 133.832 245.766 133.63C245.801 133.476 245.942 133.368 246.1 133.374L246.317 133.382L246.419 132.998L246.316 132.994C246.109 132.986 245.96 132.792 246.006 132.59C246.042 132.435 246.182 132.327 246.341 132.333L246.593 132.343L247.164 130.197C247.19 130.155 247.224 130.115 247.262 130.078C247.297 129.997 247.336 129.916 247.384 129.839C247.948 128.912 249.156 128.619 250.083 129.184C251.009 129.748 251.302 130.957 250.737 131.883C250.733 131.89 250.728 131.896 250.724 131.903C250.722 131.906 250.72 131.91 250.718 131.914L246.846 138.268C246.784 138.369 246.698 138.45 246.594 138.515C245.896 138.953 245.021 138.248 245.233 137.449Z" fill="#F7B75D"/>
<path d="M248.594 132.715C249.679 132.715 250.558 131.836 250.558 130.751C250.558 129.666 249.679 128.787 248.594 128.787C247.509 128.787 246.63 129.666 246.63 130.751C246.63 131.836 247.509 132.715 248.594 132.715Z" fill="#32B3C2"/>
<path d="M246.38 138.157L250.253 131.803C250.662 131.131 250.45 130.255 249.778 129.846C249.106 129.437 247.107 129.416 246.698 130.088L244.766 137.34C244.553 138.14 245.428 138.845 246.127 138.403C246.231 138.338 246.318 138.257 246.38 138.157Z" fill="#21899C"/>
<path d="M246.944 132.658C246.991 132.456 246.841 132.262 246.634 132.254L245.873 132.226C245.715 132.22 245.574 132.328 245.539 132.482C245.492 132.684 245.642 132.879 245.849 132.887L246.609 132.915C246.769 132.92 246.908 132.813 246.944 132.658Z" fill="white"/>
<path d="M246.704 133.699C246.751 133.496 246.601 133.302 246.394 133.294L245.633 133.266C245.475 133.26 245.334 133.368 245.299 133.522C245.252 133.724 245.401 133.919 245.609 133.927L246.369 133.955C246.528 133.96 246.668 133.853 246.704 133.699Z" fill="white"/>
<path d="M238.152 120.304L249.92 128.742L246.219 131.917L235.625 123.828C234.661 123.138 234.44 121.796 235.131 120.832L235.156 120.797C235.848 119.834 237.189 119.613 238.152 120.304Z" fill="#21899C"/>
<path d="M244.438 142.94L244.672 139.417L244.735 139.436C244.934 139.496 245.137 139.359 245.158 139.152C245.175 138.995 245.076 138.848 244.924 138.802L244.717 138.74L244.743 138.344L244.842 138.373C245.04 138.432 245.244 138.295 245.265 138.088C245.281 137.931 245.182 137.784 245.031 137.738L244.789 137.666L244.936 135.451C244.924 135.401 244.907 135.353 244.882 135.306C244.874 135.217 244.863 135.128 244.843 135.039C244.606 133.98 243.555 133.315 242.496 133.553C241.438 133.79 240.773 134.841 241.011 135.9C241.012 135.908 241.015 135.915 241.017 135.922C241.018 135.926 241.018 135.93 241.019 135.934L242.648 143.194C242.674 143.309 242.731 143.414 242.807 143.509C243.329 144.152 244.384 143.765 244.438 142.94Z" fill="#F7B75D"/>
<path d="M243.406 137.482C244.491 137.482 245.37 136.603 245.37 135.518C245.37 134.433 244.491 133.554 243.406 133.554C242.322 133.554 241.442 134.433 241.442 135.518C241.442 136.603 242.322 137.482 243.406 137.482Z" fill="#F7B75D"/>
<path d="M243.128 143.243L241.498 135.983C241.326 135.215 241.809 134.454 242.576 134.282C243.343 134.109 245.243 134.731 245.415 135.499L244.918 142.987C244.863 143.813 243.809 144.2 243.287 143.558C243.21 143.462 243.153 143.358 243.128 143.243Z" fill="#21899C"/>
<path d="M244.356 137.854C244.377 137.647 244.581 137.51 244.78 137.57L245.509 137.787C245.661 137.833 245.76 137.979 245.744 138.138C245.723 138.344 245.519 138.481 245.32 138.421L244.591 138.204C244.439 138.159 244.341 138.012 244.356 137.854Z" fill="white"/>
<path d="M244.251 138.916C244.272 138.709 244.476 138.572 244.675 138.632L245.404 138.849C245.555 138.895 245.654 139.041 245.638 139.199C245.617 139.406 245.413 139.543 245.214 139.483L244.485 139.266C244.334 139.221 244.235 139.075 244.251 138.916Z" fill="white"/>
<path d="M246.676 122.162L241.1 135.526L245.579 136.063L250.679 123.832C251.136 122.738 250.618 121.48 249.525 121.024L249.485 121.007C248.39 120.55 247.133 121.067 246.676 122.162Z" fill="#21899C"/>
<path d="M243.185 91.834C245.465 90.54 247.051 91.795 247.734 93.157C247.378 91.058 245.564 89.458 243.365 89.458C241.26 89.458 239.506 90.926 239.047 92.891C240.48 93.287 241.766 92.64 243.185 91.834Z" fill="#32B3C2"/>
<path d="M104.671 130.696C102.768 130.696 100.865 130.023 99.4166 128.676C97.2196 126.634 93.6436 126.633 91.4446 128.676C91.0666 129.026 90.4766 129.004 90.1276 128.628C89.7766 128.25 89.7986 127.66 90.1756 127.311C93.0736 124.617 97.7876 124.619 100.686 127.311C102.883 129.353 106.46 129.352 108.659 127.311C111.555 124.618 116.269 124.618 119.168 127.311C121.365 129.353 124.941 129.352 127.14 127.311C130.037 124.617 134.752 124.619 137.649 127.311C138.026 127.662 138.048 128.25 137.697 128.628C137.345 129.004 136.757 129.025 136.38 128.676C134.184 126.634 130.607 126.633 128.41 128.676C125.513 131.367 120.798 131.369 117.9 128.676C115.702 126.633 112.126 126.633 109.928 128.676C108.478 130.022 106.574 130.696 104.671 130.696Z" fill="white"/>
<path d="M81.4371 89.107C80.1611 89.107 78.8841 88.656 77.9131 87.753C76.4391 86.383 74.0411 86.382 72.5661 87.753C72.3131 87.987 71.9181 87.973 71.6821 87.721C71.4471 87.468 71.4611 87.0719 71.7141 86.8369C73.6581 85.0299 76.8201 85.0309 78.7641 86.8369C80.2381 88.2069 82.6371 88.2059 84.1121 86.8369C86.0541 85.0299 89.2171 85.0299 91.1611 86.8369C92.6351 88.2069 95.0341 88.2059 96.5091 86.8369C98.4521 85.0299 101.615 85.0309 103.558 86.8369C103.811 87.0719 103.826 87.468 103.59 87.721C103.354 87.974 102.959 87.988 102.706 87.753C101.233 86.383 98.8341 86.382 97.3601 87.753C95.4161 89.558 92.2541 89.56 90.3101 87.753C88.8351 86.383 86.4371 86.383 84.9621 87.753C83.9901 88.655 82.7141 89.107 81.4371 89.107Z" fill="white"/>
<path d="M191.766 238.493H151.766C150.937 238.493 150.266 237.821 150.266 236.993C150.266 236.165 150.937 235.493 151.766 235.493H191.766C192.595 235.493 193.266 236.165 193.266 236.993C193.266 237.821 192.594 238.493 191.766 238.493Z" fill="#35A6B4"/>
<path d="M139.766 238.493H129.766C128.937 238.493 128.266 237.821 128.266 236.993C128.266 236.165 128.937 235.493 129.766 235.493H139.766C140.595 235.493 141.266 236.165 141.266 236.993C141.266 237.821 140.594 238.493 139.766 238.493Z" fill="#35A6B4"/>
<path d="M164.225 230.508C163.722 230.508 163.225 230.277 162.906 229.838L157.255 222.103C156.816 221.501 156.839 220.678 157.313 220.103L164.699 211.134C165.272 210.438 166.301 210.339 166.997 210.911C167.692 211.484 167.793 212.513 167.22 213.209L160.64 221.199L165.544 227.912C166.075 228.641 165.916 229.661 165.189 230.193C164.896 230.407 164.559 230.508 164.225 230.508Z" fill="#21899C"/>
<path d="M175.071 230.494C174.736 230.494 174.399 230.391 174.108 230.179C173.38 229.647 173.222 228.625 173.754 227.898L178.679 221.169L172.125 213.2C171.552 212.504 171.652 211.474 172.349 210.902C173.045 210.328 174.075 210.429 174.647 211.126L182.006 220.073C182.48 220.649 182.502 221.472 182.062 222.075L176.389 229.826C176.07 230.262 175.574 230.494 175.071 230.494Z" fill="#21899C"/>
<path d="M169.814 205.845C172.415 205.845 174.524 203.736 174.524 201.135C174.524 198.534 172.415 196.425 169.814 196.425C167.212 196.425 165.104 198.534 165.104 201.135C165.104 203.736 167.212 205.845 169.814 205.845Z" fill="#F7B75D"/>
<path d="M171.541 206.922L171.529 211.402L171.519 214.33L168.086 214.322L168.259 207.161L168.308 205.123L171.541 206.922Z" fill="#F99AB6"/>
<path d="M164.709 213.941C164.72 212.544 165.928 211.191 167.179 210.541C169.052 209.566 171.941 210.245 172.862 210.793C174.428 211.725 175.362 213.619 175.252 215.565L175.362 226.012H164.268C164.268 226.012 164.683 217.12 164.709 213.941Z" fill="#21899C"/>
<path d="M172.273 210.526C170.908 209.952 168.981 209.762 167.424 210.429L168.577 211.582C169.306 212.311 170.487 212.311 171.217 211.582C171.569 211.23 171.922 210.878 172.273 210.526Z" fill="#F99AB6"/>
<path d="M170.707 198.441H168.92C167.341 198.441 165.863 199.733 166.062 201.299C166.206 202.44 166.062 203.296 166.062 204.988C166.062 206.408 167.724 209.161 169.143 209.161H170.485C171.904 209.161 173.567 206.408 173.567 204.988C173.567 203.296 173.422 202.439 173.567 201.299C173.764 199.733 172.286 198.441 170.707 198.441Z" fill="#F99AB6"/>
<path d="M168.366 206.61C168.494 207.295 169.092 207.812 169.813 207.812C170.534 207.812 171.132 207.294 171.261 206.61H168.366Z" fill="#FFFEFF"/>
<path d="M171.597 236.003H168.033C165.472 236.003 163.552 233.659 164.054 231.149L164.268 226.012H175.362L175.576 231.149C176.078 233.66 174.158 236.003 171.597 236.003Z" fill="#32B3C2"/>
<path d="M153.581 230.271L168.727 228.827L169.16 233.364L154.014 234.807C152.774 234.926 151.673 234.016 151.554 232.776L151.55 232.731C151.432 231.491 152.341 230.389 153.581 230.271Z" fill="#32B3C2"/>
<path d="M183.817 230.271L168.671 228.827L168.238 233.364L183.384 234.807C184.624 234.926 185.725 234.016 185.844 232.776L185.848 232.731C185.967 231.491 185.058 230.389 183.817 230.271Z" fill="#32B3C2"/>
<path d="M176.096 233.323H163.53C162.884 233.323 162.361 232.8 162.361 232.154V223.824C162.361 223.178 162.884 222.655 163.53 222.655H176.095C176.741 222.655 177.265 223.178 177.265 223.824V232.154C177.266 232.799 176.742 233.323 176.096 233.323Z" fill="white"/>
<path d="M176.096 233.817H163.53C162.884 233.817 162.361 233.294 162.361 232.648V224.318C162.361 223.672 162.884 223.149 163.53 223.149H176.095C176.741 223.149 177.265 223.672 177.265 224.318V232.648C177.266 233.293 176.742 233.817 176.096 233.817Z" fill="#35A6B4"/>
<path d="M171.534 229.372H168.093C167.607 229.372 167.213 228.978 167.213 228.492V228.474C167.213 227.989 167.607 227.594 168.093 227.594H171.534C172.02 227.594 172.414 227.989 172.414 228.474V228.492C172.414 228.978 172.021 229.372 171.534 229.372Z" fill="white"/>
<path d="M163.843 237.977L168.257 237.712L168.243 237.794C168.201 238.051 168.403 238.282 168.663 238.275C168.861 238.269 169.028 238.124 169.06 237.927L169.104 237.66L169.6 237.63L169.579 237.757C169.537 238.014 169.739 238.245 169.999 238.238C170.197 238.233 170.364 238.087 170.396 237.891L170.448 237.578L173.223 237.411C173.283 237.39 173.339 237.359 173.394 237.322C173.503 237.299 173.612 237.27 173.719 237.232C174.996 236.769 175.657 235.359 175.195 234.082C174.733 232.805 173.323 232.144 172.046 232.606C172.037 232.609 172.028 232.614 172.019 232.618C172.015 232.619 172.01 232.619 172.005 232.621L163.242 235.791C163.103 235.842 162.982 235.929 162.876 236.039C162.161 236.79 162.809 238.04 163.843 237.977Z" fill="white"/>
<path d="M172.9 237.983C174.259 237.983 175.36 236.882 175.36 235.523C175.36 234.164 174.259 233.063 172.9 233.063C171.542 233.063 170.44 234.164 170.44 235.523C170.44 236.882 171.542 237.983 172.9 237.983Z" fill="#F7B75D"/>
<path d="M163.259 236.395L172.022 233.225C172.949 232.89 173.971 233.37 174.306 234.295C174.641 235.222 174.167 237.68 173.242 238.015L163.86 238.578C162.826 238.641 162.178 237.391 162.894 236.642C162.999 236.533 163.12 236.446 163.259 236.395Z" fill="#F7B75D"/>
<path d="M170.148 237.073C170.408 237.066 170.61 237.298 170.568 237.554L170.413 238.494C170.382 238.689 170.215 238.835 170.016 238.841C169.756 238.848 169.554 238.616 169.596 238.36L169.751 237.42C169.783 237.224 169.95 237.079 170.148 237.073Z" fill="white"/>
<path d="M168.813 237.109C169.073 237.102 169.275 237.334 169.233 237.59L169.079 238.529C169.047 238.725 168.88 238.871 168.682 238.876C168.421 238.883 168.219 238.651 168.262 238.396L168.416 237.456C168.447 237.259 168.614 237.114 168.813 237.109Z" fill="white"/>
<path d="M182.896 231.227L172.664 233.98C171.68 234.245 171.097 235.256 171.361 236.24L171.371 236.276C171.636 237.259 172.648 237.842 173.632 237.578L183.864 234.825C184.847 234.56 185.43 233.549 185.166 232.565L185.156 232.529C184.891 231.545 183.879 230.962 182.896 231.227Z" fill="#F99AB6"/>
<path d="M173.556 237.977L169.142 237.712L169.156 237.794C169.198 238.051 168.996 238.282 168.736 238.275C168.538 238.269 168.371 238.124 168.339 237.927L168.295 237.66L167.799 237.63L167.82 237.757C167.862 238.014 167.661 238.245 167.4 238.238C167.202 238.233 167.035 238.087 167.003 237.891L166.952 237.578L164.176 237.411C164.116 237.39 164.06 237.359 164.005 237.322C163.896 237.299 163.787 237.27 163.68 237.232C162.403 236.769 161.742 235.359 162.204 234.082C162.666 232.805 164.076 232.144 165.353 232.606C165.362 232.609 165.371 232.614 165.38 232.618C165.385 232.619 165.389 232.619 165.394 232.621L174.157 235.791C174.296 235.842 174.417 235.929 174.523 236.039C175.237 236.79 174.59 238.04 173.556 237.977Z" fill="white"/>
<path d="M164.499 237.983C165.858 237.983 166.959 236.882 166.959 235.523C166.959 234.164 165.858 233.063 164.499 233.063C163.14 233.063 162.039 234.164 162.039 235.523C162.039 236.882 163.14 237.983 164.499 237.983Z" fill="#F7B75D"/>
<path d="M174.14 236.395L165.377 233.225C164.45 232.89 163.428 233.37 163.093 234.295C162.758 235.222 163.232 237.68 164.157 238.015L173.539 238.578C174.573 238.641 175.221 237.391 174.505 236.642C174.399 236.533 174.278 236.446 174.14 236.395Z" fill="#F7B75D"/>
<path d="M167.25 237.073C166.99 237.066 166.788 237.298 166.83 237.554L166.985 238.494C167.016 238.689 167.183 238.835 167.382 238.841C167.642 238.848 167.844 238.616 167.802 238.36L167.647 237.42C167.615 237.224 167.448 237.079 167.25 237.073Z" fill="white"/>
<path d="M168.587 237.109C168.327 237.102 168.125 237.334 168.167 237.59L168.321 238.529C168.353 238.725 168.52 238.871 168.719 238.876C168.979 238.883 169.181 238.651 169.138 238.396L168.984 237.456C168.952 237.259 168.785 237.114 168.587 237.109Z" fill="white"/>
<path d="M154.503 231.227L164.736 233.98C165.719 234.245 166.302 235.256 166.038 236.24L166.028 236.276C165.763 237.259 164.751 237.842 163.767 237.578L153.535 234.825C152.552 234.56 151.969 233.549 152.233 232.565L152.243 232.529C152.508 231.545 153.52 230.962 154.503 231.227Z" fill="#F99AB6"/>
<path d="M169.722 196.425C166.587 196.425 163.872 199.729 163.872 199.729C167.778 202.12 170.526 200.365 171.473 199.591C171.747 199.365 172.307 198.893 172.307 198.272L169.722 196.425Z" fill="#F7B75D"/>
<path d="M207.7 169.653C207.292 169.062 207.846 168.074 207.5 166.902C206.454 163.362 207.681 161.82 207.681 161.82C207.66 160.519 208.752 159.38 210.384 158.779C211.148 158.497 212.03 158.334 212.973 158.327C214.398 158.318 215.699 158.671 216.666 159.252C217.703 159.875 218.456 160.765 218.373 161.75C218.314 162.448 217.565 163.369 218.328 164.548C220.211 167.456 219.394 169.132 218.393 169.653C217.471 170.133 216.411 170.173 215.869 170.482C213.096 172.067 209.149 171.753 207.7 169.653Z" fill="white"/>
<path d="M199 182.612C198.358 182.54 197.697 182.424 197.015 182.266C196.515 182.151 196.202 181.651 196.319 181.15C196.435 180.65 196.932 180.337 197.435 180.454C200.615 181.19 203.219 180.876 205.175 179.518C208.16 177.447 208.692 173.622 208.696 173.584C208.762 173.074 209.235 172.722 209.739 172.782C210.249 172.848 210.607 173.315 210.541 173.825C210.517 174.014 209.891 178.51 206.235 181.047C204.272 182.409 201.845 182.932 199 182.612Z" fill="#F99AB6"/>
<path d="M208.258 175.007C208.075 175.007 207.905 175.026 207.745 175.058C208.058 174.174 208.155 173.528 208.157 173.514C208.252 172.783 208.884 172.231 209.627 172.231C209.686 172.231 209.744 172.235 209.81 172.243C210.617 172.348 211.187 173.09 211.081 173.896C211.068 173.989 210.913 175.07 210.367 176.462C210.077 175.652 209.375 175.007 208.258 175.007Z" fill="#21899C"/>
<path d="M210.01 174.223C209.532 173.982 209.147 173.258 209.717 172.597C210.28 171.945 211.146 171.583 212.074 171.548L212.314 171.539C213.136 171.508 213.882 171.866 214.378 172.448C213.984 173.671 211.301 174.718 210.01 174.223Z" fill="#F99AB6"/>
<path d="M211.583 169.679L211.562 170.73L211.523 172.703L213.039 172.73L213.087 170.209L213.107 169.231C212.648 169.539 212.126 169.704 211.583 169.679Z" fill="#F99AB6"/>
<path d="M211.583 169.93L211.562 170.98C212.1 170.9 212.751 170.661 213.09 170.264L213.107 169.482C212.649 169.79 212.126 169.955 211.583 169.93Z" fill="#F99AB6"/>
<path d="M211.959 170.472C213.395 170.457 214.662 169.757 215.453 168.685C216.001 167.944 216.321 167.024 216.311 166.032L216.293 164.303C216.279 163.047 215.741 161.919 214.889 161.126C214.093 160.387 213.024 159.939 211.852 159.951C211.078 159.959 210.351 160.167 209.723 160.524C208.381 161.289 207.483 162.739 207.5 164.391L207.518 166.12C207.534 167.711 208.393 169.096 209.665 169.854C210.337 170.254 211.122 170.481 211.959 170.472Z" fill="#F99AB6"/>
<path d="M207.24 184.773C206.728 187.02 209.511 189.256 211.758 189.768C214.005 190.279 216.241 188.872 216.753 186.625C217.265 184.378 215.857 182.143 213.61 181.631C211.363 181.119 207.751 182.526 207.24 184.773Z" fill="#21899C"/>
<path d="M211.669 168.185C211.572 168.732 211.099 169.15 210.523 169.156C209.947 169.162 209.466 168.754 209.359 168.209L211.669 168.185Z" fill="#FFFEFF"/>
<path d="M207.532 175.243C207.246 176.029 208.038 176.989 208.87 177.08C209.702 177.171 210.714 176.085 210.806 175.253C210.897 174.421 209.657 172.599 209.189 173.293C208.743 173.954 207.776 174.569 207.532 175.243Z" fill="#21899C"/>
<path d="M214.379 172.449C214.739 172.87 214.968 173.407 214.996 174.003C214.996 174.003 213.642 180.551 216.501 184.014C216.501 184.014 211.342 187.106 207.197 185.017C207.197 182.051 209.01 180.002 208.724 175.196C208.664 174.19 209.064 173.265 209.716 172.598C209.755 174.125 212.899 172.286 214.379 172.449Z" fill="#21899C"/>
<path d="M208.733 203.466C208.001 203.373 207.521 203.989 207.425 204.171C206.898 205.17 206.821 206.301 205.822 207.976C205.141 209.119 204.634 209.286 204.128 210.224C203.693 211.029 204.431 211.448 205.261 211.285C205.585 211.222 207.59 211.059 207.897 209.536C208.122 208.423 209.924 208.057 209.99 207.658C210.029 207.414 209.857 206.632 209.956 205.654C210.076 204.457 209.397 203.552 208.733 203.466Z" fill="#21899C"/>
<path d="M207.031 208.608C207.589 207.785 208.554 205.121 208.427 204.473C208.277 203.711 206.801 203.393 206.595 204.017C206.241 205.089 206.354 207.092 205.078 208.991C205.095 209.551 206.381 209.567 207.031 208.608Z" fill="#F99AB6"/>
<path d="M185.786 193.086C186.299 192.555 186.092 191.802 186.003 191.616C185.518 190.596 184.658 189.858 183.912 188.056C183.403 186.827 183.572 186.321 183.124 185.354C182.738 184.525 181.962 184.865 181.596 185.627C181.453 185.926 180.384 187.629 181.421 188.786C182.18 189.632 181.395 191.295 181.676 191.586C181.848 191.764 182.578 192.093 183.302 192.757C184.189 193.57 185.321 193.568 185.786 193.086Z" fill="#21899C"/>
<path d="M182.684 188.647C183.01 189.586 184.568 191.954 185.163 192.239C185.863 192.574 187.001 191.582 186.624 191.043C185.976 190.119 184.304 189.011 183.544 186.854C183.086 186.532 182.304 187.552 182.684 188.647Z" fill="#F99AB6"/>
<path d="M202.902 190.788L202.974 190.755L212.827 186.23C213.761 185.8 214.865 186.21 215.294 187.144C215.723 188.078 215.315 189.182 214.38 189.611C214.377 189.612 214.364 189.618 214.361 189.62L205.882 193.399L208.881 203.693L206.304 204.545L202.007 192.96C201.691 192.106 202.091 191.163 202.902 190.788Z" fill="#21899C"/>
<path d="M211.95 185.145C211.471 185.145 210.96 185.118 210.42 185.062C209.909 185.009 209.537 184.552 209.59 184.041C209.643 183.53 210.101 183.161 210.611 183.211C212.329 183.388 214.54 183.331 215.318 182.055C216.546 180.042 214.227 175.611 213.318 174.217C213.038 173.786 213.159 173.21 213.589 172.929C214.02 172.649 214.596 172.77 214.876 173.2C215.301 173.85 218.962 179.653 216.905 183.023C216.045 184.434 214.381 185.145 211.95 185.145Z" fill="#F99AB6"/>
<path d="M216.793 164.78C216.793 164.78 213.676 165.895 211.729 164.541C209.783 163.187 208.893 161.099 209.744 159.876C210.594 158.654 212.861 158.762 214.807 160.116C216.754 161.47 216.793 164.78 216.793 164.78Z" fill="white"/>
<path d="M212.914 185.791C212.914 185.791 211.188 185.836 208.603 185.943C207.311 186.005 205.803 186.076 204.188 186.153C202.574 186.249 200.852 186.351 199.13 186.453L198.484 186.492L198.323 186.501L198.283 186.504L198.103 186.521L198.023 186.532L197.704 186.579L197.068 186.677L197.029 186.683L196.873 186.711L196.853 186.716L196.776 186.735L196.621 186.774L196.311 186.85C195.487 187.054 194.675 187.255 193.89 187.449C193.106 187.647 192.344 187.824 191.628 188.018C190.911 188.206 190.232 188.384 189.607 188.549C188.353 188.871 187.316 189.171 186.587 189.371C185.86 189.579 185.444 189.698 185.444 189.698L185.965 192.033C185.965 192.033 186.392 191.965 187.138 191.845C187.882 191.715 188.95 191.546 190.221 191.305C190.858 191.188 191.547 191.061 192.277 190.926C193.007 190.797 193.772 190.633 194.565 190.479C195.359 190.321 196.178 190.158 197.011 189.992L197.324 189.929L197.481 189.898L197.559 189.882L197.579 189.878C197.612 189.872 197.328 189.924 197.453 189.901L197.463 189.9L197.503 189.895L198.142 189.821L198.462 189.781L198.542 189.77L198.552 189.769C198.585 189.766 198.295 189.792 198.423 189.781H198.443L198.484 189.779L198.645 189.773L199.291 189.748C201.015 189.681 202.738 189.613 204.354 189.55C205.969 189.468 207.476 189.392 208.769 189.326C211.352 189.179 213.073 189.054 213.073 189.054L212.914 185.791Z" fill="#21899C"/>
<path d="M212.348 186.889C212.348 186.58 212.098 186.33 211.789 186.33H191.526C191.102 186.33 190.755 186.581 190.755 186.889C190.755 187.198 191.103 187.449 191.526 187.449H211.789C212.098 187.449 212.348 187.199 212.348 186.889Z" fill="#21899C"/>
<path d="M213.143 186.889C213.143 187.198 212.872 187.449 212.54 187.449H204.846C204.515 187.449 204.243 187.198 204.243 186.889C204.243 186.581 204.514 186.33 204.846 186.33H212.54C212.872 186.331 213.143 186.581 213.143 186.889Z" fill="white"/>
<path d="M190.786 175.845V186.063C190.786 186.518 191.155 186.887 191.61 186.887H205.09C205.545 186.887 205.914 186.518 205.914 186.063V175.845C205.914 175.39 205.545 175.021 205.09 175.021H191.61C191.155 175.021 190.786 175.39 190.786 175.845Z" fill="white"/>
<path d="M190.157 175.845V186.063C190.157 186.518 190.526 186.887 190.981 186.887H204.461C204.916 186.887 205.285 186.518 205.285 186.063V175.845C205.285 175.39 204.916 175.021 204.461 175.021H190.981C190.526 175.021 190.157 175.39 190.157 175.845Z" fill="white"/>
<path d="M199.944 180.954C199.944 180.475 199.555 180.086 199.076 180.086H196.368C195.888 180.086 195.499 180.475 195.499 180.954C195.499 181.434 195.888 181.823 196.368 181.823H199.076C199.556 181.823 199.944 181.434 199.944 180.954Z" fill="#35A6B4"/>
<path d="M215.924 174.849C214.824 174.849 214.13 175.472 213.832 176.262C213.492 175.565 213.144 174.948 212.86 174.514C212.417 173.833 212.609 172.918 213.291 172.473C213.531 172.317 213.81 172.234 214.095 172.234C214.596 172.234 215.058 172.484 215.332 172.904C215.544 173.23 215.997 173.957 216.475 174.908C216.304 174.871 216.121 174.849 215.924 174.849Z" fill="#21899C"/>
<path d="M206.386 183.405C206.162 183.911 206.142 184.455 206.287 184.947L209.416 186.331C209.877 186.107 210.266 185.727 210.489 185.221C210.99 184.087 210.478 182.763 209.345 182.261C208.212 181.759 206.887 182.272 206.386 183.405Z" fill="#F99AB6"/>
<path d="M69.5711 185.752C69.0591 185.752 68.5551 185.517 68.2301 185.071L62.4881 177.212C62.0421 176.601 62.0651 175.764 62.5471 175.179L70.0521 166.067C70.6341 165.359 71.6791 165.259 72.3861 165.84C73.0931 166.422 73.1951 167.468 72.6131 168.175L65.9271 176.294L70.9091 183.114C71.4501 183.854 71.2881 184.891 70.5481 185.432C70.2531 185.649 69.9111 185.752 69.5711 185.752Z" fill="#21899C"/>
<path d="M80.5923 185.737C80.2523 185.737 79.9093 185.633 79.6143 185.417C78.8743 184.876 78.7143 183.839 79.2553 183.099L84.2593 176.262L77.6003 168.165C77.0183 167.457 77.1203 166.411 77.8283 165.829C78.5353 165.247 79.5813 165.35 80.1633 166.057L87.6403 175.149C88.1213 175.735 88.1453 176.571 87.6983 177.183L81.9333 185.059C81.6073 185.501 81.1033 185.737 80.5923 185.737Z" fill="#21899C"/>
<path d="M70.7061 155.907C70.7061 158.551 72.8491 160.693 75.4921 160.693C78.135 160.693 80.2781 158.55 80.2781 155.907C80.2781 153.264 78.135 152.062 75.4921 152.062C72.8491 152.062 70.7061 153.263 70.7061 155.907Z" fill="#21899C"/>
<path d="M73.7373 161.787L73.7493 166.338L73.7593 169.314L77.2473 169.305L77.0713 162.029L77.0223 159.959L73.7373 161.787Z" fill="#F99AB6"/>
<path d="M70.0623 168.918C70.0743 167.498 71.3013 166.124 72.5733 165.463C74.4753 164.473 77.4113 165.162 78.3463 165.719C79.9383 166.666 80.8863 168.59 80.7753 170.569L80.8863 181.184H69.6143C69.6143 181.184 70.0353 172.149 70.0623 168.918Z" fill="#21899C"/>
<path d="M77.7493 165.449C76.3613 164.865 74.4033 164.673 72.8213 165.35L73.9933 166.522C74.7343 167.262 75.9343 167.262 76.6763 166.522C77.0333 166.165 77.3923 165.806 77.7493 165.449Z" fill="#F99AB6"/>
<path d="M74.5841 153.168H76.4001C78.0041 153.168 79.5051 154.481 79.3041 156.073C79.1581 157.232 79.3041 158.101 79.3041 159.822C79.3041 161.263 77.6161 164.061 76.1731 164.061H74.8101C73.3681 164.061 71.6791 161.263 71.6791 159.822C71.6791 158.101 71.8251 157.232 71.6791 156.073C71.4791 154.482 72.9791 153.168 74.5841 153.168Z" fill="#F99AB6"/>
<path d="M76.9635 161.47C76.8335 162.164 76.2255 162.691 75.4925 162.691C74.7595 162.691 74.1515 162.165 74.0215 161.47H76.9635Z" fill="#FFFEFF"/>
<path d="M77.0611 191.335H73.4401C70.8371 191.335 68.8861 188.954 69.3971 186.402L69.6151 181.183H80.8861L81.1041 186.402C81.6141 188.955 79.6631 191.335 77.0611 191.335Z" fill="#32B3C2"/>
<path d="M58.7571 185.511L74.1471 184.044L74.5861 188.653L59.1961 190.12C57.9361 190.24 56.8171 189.316 56.6971 188.056L56.6921 188.01C56.5721 186.75 57.4971 185.631 58.7571 185.511Z" fill="#32B3C2"/>
<path d="M89.4794 185.511L74.0884 184.044L73.6494 188.653L89.0404 190.12C90.3004 190.24 91.4194 189.316 91.5394 188.056L91.5434 188.01C91.6634 186.75 90.7394 185.631 89.4794 185.511Z" fill="#32B3C2"/>
<path d="M82.7258 189.231H67.6698C67.0048 189.231 66.4658 188.692 66.4658 188.027V179.448C66.4658 178.783 67.0048 178.244 67.6698 178.244H82.7258C83.3908 178.244 83.9308 178.783 83.9308 179.448V188.027C83.9308 188.692 83.3908 189.231 82.7258 189.231Z" fill="white"/>
<path d="M82.7258 189.741H67.6698C67.0048 189.741 66.4658 189.202 66.4658 188.536V179.957C66.4658 179.292 67.0048 178.753 67.6698 178.753H82.7258C83.3908 178.753 83.9308 179.292 83.9308 179.957V188.536C83.9308 189.202 83.3908 189.741 82.7258 189.741Z" fill="#35A6B4"/>
<path d="M76.8481 185.478H73.5481C73.0821 185.478 72.7041 185.1 72.7041 184.634V184.617C72.7041 184.151 73.0821 183.773 73.5481 183.773H76.8481C77.3141 183.773 77.6921 184.151 77.6921 184.617V184.634C77.6911 185.1 77.3131 185.478 76.8481 185.478Z" fill="white"/>
<path d="M69.1844 193.341L73.6684 193.071L73.6544 193.155C73.6114 193.416 73.8174 193.651 74.0814 193.643C74.2834 193.638 74.4524 193.49 74.4854 193.29L74.5304 193.019L75.0344 192.989L75.0134 193.118C74.9704 193.379 75.1754 193.614 75.4404 193.607C75.6424 193.601 75.8114 193.454 75.8444 193.254L75.8964 192.937L78.7174 192.768C78.7774 192.747 78.8344 192.715 78.8914 192.677C79.0014 192.654 79.1124 192.625 79.2204 192.585C80.5184 192.116 81.1904 190.683 80.7204 189.385C80.2504 188.087 78.8184 187.416 77.5204 187.885C77.5104 187.889 77.5014 187.894 77.4934 187.897C77.4884 187.899 77.4834 187.899 77.4784 187.901L68.5754 191.123C68.4334 191.174 68.3104 191.262 68.2034 191.374C67.4754 192.136 68.1334 193.405 69.1844 193.341Z" fill="white"/>
<path d="M78.3867 193.347C79.7669 193.347 80.8857 192.228 80.8857 190.848C80.8857 189.468 79.7669 188.349 78.3867 188.349C77.0065 188.349 75.8877 189.468 75.8877 190.848C75.8877 192.228 77.0065 193.347 78.3867 193.347Z" fill="#F7B75D"/>
<path d="M68.5914 191.734L77.4944 188.513C78.4344 188.172 79.4734 188.659 79.8144 189.6C80.1554 190.541 79.6734 193.039 78.7324 193.38L69.2004 193.952C68.1494 194.015 67.4914 192.746 68.2184 191.985C68.3264 191.873 68.4494 191.786 68.5914 191.734Z" fill="#F7B75D"/>
<path d="M75.5901 192.422C75.8551 192.415 76.0601 192.651 76.0171 192.911L75.8601 193.866C75.8281 194.065 75.6581 194.213 75.4571 194.219C75.1921 194.226 74.9871 193.99 75.0301 193.73L75.1871 192.775C75.2191 192.576 75.3891 192.428 75.5901 192.422Z" fill="white"/>
<path d="M74.2327 192.458C74.4967 192.451 74.7017 192.687 74.6597 192.947L74.5027 193.902C74.4697 194.101 74.3007 194.25 74.0987 194.255C73.8337 194.262 73.6287 194.026 73.6717 193.766L73.8287 192.811C73.8607 192.612 74.0307 192.464 74.2327 192.458Z" fill="white"/>
<path d="M88.542 186.482L78.146 189.28C77.146 189.549 76.553 190.577 76.823 191.576L76.833 191.613C77.102 192.612 78.13 193.205 79.13 192.935L89.526 190.138C90.526 189.869 91.118 188.841 90.849 187.841L90.839 187.805C90.569 186.806 89.542 186.213 88.542 186.482Z" fill="#F99AB6"/>
<path d="M79.0521 193.341L74.5681 193.071L74.5821 193.155C74.6251 193.416 74.4201 193.651 74.1551 193.643C73.9541 193.638 73.7841 193.49 73.7521 193.29L73.7071 193.019L73.2031 192.989L73.2241 193.118C73.2671 193.379 73.0621 193.614 72.7971 193.607C72.5961 193.601 72.4261 193.454 72.3941 193.254L72.3411 192.937L69.5211 192.768C69.4611 192.747 69.4031 192.715 69.3471 192.677C69.2371 192.654 69.1261 192.625 69.0171 192.585C67.7191 192.116 67.0471 190.683 67.5171 189.385C67.9871 188.087 69.4191 187.416 70.7171 187.885C70.7271 187.889 70.7361 187.894 70.7451 187.897C70.7501 187.899 70.7541 187.899 70.7591 187.901L79.6631 191.123C79.8041 191.174 79.9271 191.262 80.0351 191.374C80.7611 192.136 80.1031 193.405 79.0521 193.341Z" fill="white"/>
<path d="M69.8496 193.347C71.2297 193.347 72.3486 192.228 72.3486 190.848C72.3486 189.468 71.2297 188.349 69.8496 188.349C68.4694 188.349 67.3506 189.468 67.3506 190.848C67.3506 192.228 68.4694 193.347 69.8496 193.347Z" fill="#F7B75D"/>
<path d="M79.6465 191.734L70.7435 188.513C69.8025 188.172 68.7635 188.659 68.4225 189.6C68.0825 190.541 68.5635 193.039 69.5045 193.38L79.0375 193.952C80.0885 194.015 80.7455 192.746 80.0185 191.985C79.9105 191.873 79.7865 191.786 79.6465 191.734Z" fill="#F7B75D"/>
<path d="M72.6466 192.422C72.3816 192.415 72.1766 192.651 72.2196 192.911L72.3766 193.866C72.4096 194.065 72.5786 194.213 72.7806 194.219C73.0446 194.226 73.2496 193.99 73.2066 193.73L73.0506 192.775C73.0176 192.576 72.8476 192.428 72.6466 192.422Z" fill="white"/>
<path d="M74.005 192.458C73.74 192.451 73.535 192.687 73.578 192.947L73.735 193.902C73.767 194.101 73.937 194.25 74.138 194.255C74.403 194.262 74.608 194.026 74.565 193.766L74.408 192.811C74.376 192.612 74.206 192.464 74.005 192.458Z" fill="white"/>
<path d="M59.6935 186.482L70.0905 189.28C71.0895 189.549 71.6825 190.577 71.4135 191.576L71.4025 191.613C71.1335 192.612 70.1055 193.205 69.1065 192.935L58.7095 190.138C57.7105 189.869 57.1175 188.841 57.3875 187.841L57.3975 187.805C57.6665 186.806 58.6945 186.213 59.6935 186.482Z" fill="#F99AB6"/>
<path d="M75.7803 151.316C80.1423 151.316 80.0653 155.994 80.0653 155.994C75.4923 156.87 73.7373 153.629 73.7373 152.997C73.7373 152.997 74.2163 151.316 75.7803 151.316Z" fill="#21899C"/>
<path d="M73.5133 152.346C70.0293 151.884 70.8203 156.455 70.8203 156.455C73.1203 156.012 74.4803 154.142 74.4003 153.727L73.5133 152.346Z" fill="#21899C"/>
</svg>
