<svg width="356" height="298" viewBox="0 0 356 298" fill="none" xmlns="http://www.w3.org/2000/svg">
<path d="M177.26 286.789C251.731 286.789 312.101 226.419 312.101 151.948C312.101 77.4774 251.731 17.1071 177.26 17.1071C102.789 17.1071 42.4189 77.4774 42.4189 151.948C42.4189 226.419 102.789 286.789 177.26 286.789Z" fill="#C2F3FF"/>
<path d="M70.6038 229.982H127.169C132.537 229.982 136.888 234.334 136.888 239.701V240.924C136.888 246.291 132.537 250.643 127.169 250.643H70.6038C65.2368 250.643 60.8848 246.291 60.8848 240.924V239.701C60.8858 234.333 65.2368 229.982 70.6038 229.982Z" fill="#C2F3FF"/>
<path d="M57.4904 270.71H140.282C143.761 270.71 146.582 273.53 146.582 277.009V277.802C146.582 281.281 143.762 284.101 140.282 284.101H57.4904C54.0114 284.101 51.1914 281.281 51.1914 277.802V277.009C51.1914 273.531 54.0124 270.71 57.4904 270.71Z" fill="#C2F3FF"/>
<path d="M236.596 284.101H249.9C253.379 284.101 256.2 286.921 256.2 290.4V291.193C256.2 294.672 253.38 297.492 249.9 297.492H236.596C233.117 297.492 230.297 294.672 230.297 291.193V290.4C230.297 286.921 233.116 284.101 236.596 284.101Z" fill="#C2F3FF"/>
<path d="M230.126 244.495H292.359C298.065 244.495 302.691 249.121 302.691 254.827V256.127C302.691 261.834 298.065 266.459 292.359 266.459H230.126C224.42 266.459 219.794 261.834 219.794 256.127V254.827C219.794 249.121 224.42 244.495 230.126 244.495Z" fill="#C2F3FF"/>
<path d="M80.7559 250.492H119.315C116.466 250.492 113.877 251.724 112.011 253.59C110.137 255.463 108.979 257.678 108.979 260.533C108.979 266.238 113.61 270.492 119.315 270.492H80.7559C83.6039 270.492 86.1858 269.736 88.0588 267.879C89.9248 266.014 91.0818 263.554 91.0818 260.697C91.0818 254.984 86.4599 250.492 80.7559 250.492Z" fill="#C2F3FF"/>
<path d="M231.914 132.532H331.319C341.566 132.532 349.874 140.839 349.874 151.087C349.874 161.335 341.566 169.642 331.319 169.642H231.914C221.667 169.642 213.36 161.335 213.36 151.087C213.36 140.838 221.667 132.532 231.914 132.532Z" fill="#C2F3FF"/>
<path d="M196.519 205.106H343.805C350.447 205.106 355.83 210.49 355.83 217.131C355.83 223.773 350.445 229.157 343.804 229.157H196.519C189.877 229.157 184.493 223.772 184.493 217.131C184.492 210.49 189.877 205.106 196.519 205.106Z" fill="#C2F3FF"/>
<path d="M261.243 169.775H330.501C325.385 169.775 320.733 171.787 317.382 175.137C314.017 178.502 311.938 182.465 311.938 187.596C311.938 197.843 320.254 205.47 330.501 205.47H261.243C266.358 205.47 270.996 204.024 274.361 200.689C277.712 197.337 279.791 193.078 279.791 187.947C279.791 177.685 271.489 169.775 261.243 169.775Z" fill="#C2F3FF"/>
<path d="M149.995 116.397H31.1834C20.9474 116.397 12.6494 108.1 12.6494 97.864V95.532C12.6494 85.296 20.9474 76.998 31.1834 76.998H149.996C160.232 76.998 168.53 85.296 168.53 95.532V97.864C168.529 108.1 160.231 116.397 149.995 116.397Z" fill="#C2F3FF"/>
<path d="M199.032 230.453H27.3357C12.5447 230.453 0.553711 218.462 0.553711 203.67V200.3C0.553711 185.509 12.5447 173.517 27.3357 173.517H199.032C213.824 173.517 225.814 185.509 225.814 200.3V203.67C225.814 218.461 213.824 230.453 199.032 230.453Z" fill="#C2F3FF"/>
<path d="M293.522 71.138H198.73C190.564 71.138 183.944 64.518 183.944 56.351V54.491C183.944 46.324 190.564 39.704 198.73 39.704H293.522C301.688 39.704 308.308 46.324 308.308 54.491V56.351C308.309 64.518 301.688 71.138 293.522 71.138Z" fill="#C2F3FF"/>
<path d="M161.95 44.31H89.7546C82.9036 44.31 77.3516 38.757 77.3516 31.906V30.345C77.3516 23.495 82.9046 17.941 89.7546 17.941H161.95C168.801 17.941 174.354 23.495 174.354 30.345V31.906C174.354 38.757 168.801 44.31 161.95 44.31Z" fill="#C2F3FF"/>
<path d="M264.513 17.106H241.432C236.988 17.106 233.385 13.503 233.385 9.059V8.047C233.385 3.603 236.988 0 241.432 0H264.513C268.957 0 272.56 3.603 272.56 8.047V9.059C272.56 13.503 268.957 17.106 264.513 17.106Z" fill="#C2F3FF"/>
<path d="M188.926 233.492H148.926C148.097 233.492 147.426 232.82 147.426 231.992C147.426 231.164 148.097 230.492 148.926 230.492H188.926C189.755 230.492 190.426 231.164 190.426 231.992C190.426 232.82 189.754 233.492 188.926 233.492Z" fill="#21899C"/>
<path d="M136.926 233.492H126.926C126.097 233.492 125.426 232.82 125.426 231.992C125.426 231.164 126.097 230.492 126.926 230.492H136.926C137.755 230.492 138.426 231.164 138.426 231.992C138.426 232.82 137.754 233.492 136.926 233.492Z" fill="#21899C"/>
<path d="M193.379 170.911C193.315 170.395 192.845 169.907 192.335 169.815L190.325 169.467C189.808 169.375 189.261 168.903 189.093 168.404L188.283 166.413C188.06 165.948 188.116 165.222 188.428 164.802L189.623 163.139C189.924 162.72 189.917 162.033 189.602 161.626L188.521 160.343C188.163 159.968 187.498 159.841 187.027 160.071L185.189 160.974C184.719 161.197 184.003 161.129 183.596 160.818C183.596 160.818 183.283 160.575 182.696 160.21C182.115 159.852 181.758 159.679 181.758 159.679C181.3 159.444 180.918 158.838 180.914 158.319L180.907 156.264C180.896 155.752 180.489 155.199 179.993 155.053L178.37 154.655C177.866 154.557 177.25 154.848 177.003 155.305L176.692 155.895L176.318 156.608L176.051 157.113C175.804 157.571 175.179 157.952 174.66 157.957L173.869 158.009L173.513 158.035L172.517 158.111C171.996 158.182 171.329 157.899 171.021 157.475L169.817 155.833C169.508 155.41 168.856 155.205 168.37 155.38L166.817 156.008C166.34 156.231 166.017 156.83 166.088 157.339L166.378 159.365C166.449 159.886 166.166 160.553 165.742 160.855L164.096 162.251C163.725 162.61 163.021 162.772 162.526 162.614L160.578 161.99C160.082 161.833 159.432 162.046 159.124 162.464C159.124 162.464 158.975 162.667 158.666 163.171C158.351 163.687 158.236 163.895 158.236 163.895C157.997 164.353 158.091 165.037 158.451 165.401L159.876 166.873C160.235 167.244 160.402 167.961 160.251 168.45L159.726 170.553C159.634 171.057 159.163 171.604 158.669 171.772L156.73 172.415C156.238 172.577 155.849 173.134 155.86 173.645L155.979 175.331C156.043 175.845 156.512 176.333 157.022 176.425L159.033 176.773C159.549 176.865 160.097 177.337 160.264 177.836L161.074 179.828C161.303 180.293 161.241 181.02 160.941 181.441L159.741 183.109C159.434 183.522 159.446 184.211 159.767 184.617L160.836 185.898C161.193 186.275 161.859 186.402 162.329 186.171L164.167 185.267C164.632 185.038 165.347 185.113 165.761 185.423C165.761 185.423 166.085 185.667 166.661 186.032C167.241 186.39 167.604 186.575 167.604 186.575C168.063 186.798 168.444 187.405 168.449 187.929L168.456 189.979C168.46 190.492 168.868 191.044 169.364 191.191L170.987 191.588C171.49 191.687 172.107 191.394 172.354 190.938L173.311 189.13C173.552 188.672 174.176 188.296 174.696 188.286L176.84 188.132C177.361 188.062 178.028 188.344 178.336 188.767L179.54 190.409C179.849 190.833 180.5 191.038 180.987 190.863L182.547 190.222C183.017 190.011 183.339 189.411 183.269 188.898L182.978 186.877C182.908 186.357 183.191 185.689 183.614 185.388L185.26 183.99C185.637 183.633 186.347 183.466 186.836 183.629L188.785 184.247C189.274 184.409 189.926 184.191 190.231 183.777C190.231 183.777 190.381 183.577 190.696 183.073C191.016 182.557 191.119 182.343 191.119 182.343C191.36 181.892 191.264 181.208 190.905 180.831L189.485 179.37C189.122 178.993 188.953 178.284 189.111 177.794L189.63 175.697C189.722 175.187 190.194 174.639 190.687 174.471L192.633 173.829C193.119 173.661 193.52 173.111 193.497 172.586L193.379 170.911ZM183.723 178.739C180.62 183.733 174.06 185.26 169.06 182.158C164.073 179.054 162.533 172.499 165.641 167.501C167.411 164.647 170.306 162.934 173.396 162.55C173.747 162.505 174.109 162.486 174.464 162.488C174.796 162.472 175.121 162.481 175.445 162.513C175.806 162.53 176.155 162.568 176.515 162.631C177.817 162.854 179.1 163.332 180.298 164.075C185.292 167.178 186.825 173.74 183.723 178.739Z" fill="#35A6B4"/>
<path d="M178.682 166.684C177.97 166.233 177.206 165.928 176.434 165.741C175.392 165.489 174.331 165.468 173.315 165.659C171.286 166.027 169.41 167.219 168.233 169.117C166.018 172.68 167.113 177.35 170.683 179.565C174.241 181.78 178.916 180.692 181.138 177.122C183.347 173.563 182.246 168.887 178.682 166.684ZM177.004 174.554C176.205 175.834 174.519 176.242 173.244 175.444C171.951 174.638 171.567 172.954 172.36 171.673C172.574 171.329 172.853 171.034 173.177 170.833C174.036 170.264 175.182 170.222 176.125 170.801C176.19 170.833 176.244 170.876 176.297 170.927C177.433 171.75 177.76 173.333 177.004 174.554Z" fill="#35A6B4"/>
<path d="M265.844 217.054C265.844 212.933 265.844 206.958 265.844 206.958H252.181H238.516C238.516 206.958 238.516 212.933 238.516 217.054C238.516 221.175 219.935 224.511 219.935 224.511H252.181H284.426C284.426 224.511 265.844 221.175 265.844 217.054Z" fill="white"/>
<path d="M265.844 216.8C265.844 212.693 265.844 206.958 265.844 206.958H238.516C238.516 206.958 238.516 212.692 238.516 216.8H265.844Z" fill="#21899C"/>
<path d="M302.513 137.992H201.848C200.102 137.992 198.688 139.44 198.688 141.226V205.106H305.672V141.226C305.672 139.44 304.258 137.992 302.513 137.992Z" fill="#35A6B4"/>
<path d="M300.665 142.747H203.822V200.312H300.665V142.747Z" fill="#21899C"/>
<path d="M198.688 204.475V208.621C198.688 210.408 200.102 211.855 201.848 211.855H302.513C304.258 211.855 305.672 210.408 305.672 208.621V204.475H198.688Z" fill="white"/>
<path fill-rule="evenodd" clip-rule="evenodd" d="M198.783 81.226H213.991C216.017 81.226 217.676 82.883 217.676 84.909V119.122C217.676 121.148 216.018 122.806 213.991 122.806H198.783C196.758 122.806 195.099 121.149 195.099 119.122V84.909C195.1 82.883 196.758 81.226 198.783 81.226Z" fill="#35A6B4"/>
<path d="M215.784 85.517H196.99V118.428H215.784V85.517Z" fill="white"/>
<path d="M206.389 84.236C206.616 84.236 206.801 84.0515 206.801 83.824C206.801 83.5964 206.616 83.412 206.389 83.412C206.161 83.412 205.977 83.5964 205.977 83.824C205.977 84.0515 206.161 84.236 206.389 84.236Z" fill="#F7B75D"/>
<path fill-rule="evenodd" clip-rule="evenodd" d="M207.568 121.143H205.207C204.709 121.143 204.305 120.739 204.305 120.241C204.305 119.742 204.709 119.338 205.207 119.338H207.568C208.066 119.338 208.47 119.742 208.47 120.241C208.471 120.739 208.066 121.143 207.568 121.143Z" fill="#F7B75D"/>
<path d="M143.881 220.136V174.512C143.881 171.975 141.87 169.918 139.391 169.918H69.5027C67.0237 169.918 65.0137 171.975 65.0137 174.512V220.136H143.881Z" fill="#35A6B4"/>
<path d="M139.963 174.272H68.9297V216.607H139.963V174.272Z" fill="#21899C"/>
<path d="M104.446 173.303C105.086 173.303 105.604 172.772 105.604 172.116C105.604 171.46 105.086 170.929 104.446 170.929C103.806 170.929 103.288 171.46 103.288 172.116C103.288 172.772 103.806 173.303 104.446 173.303Z" fill="white"/>
<path d="M60.9922 220.136V222.292C60.9922 223.483 61.9352 224.448 63.0992 224.448H145.792C146.955 224.448 147.898 223.483 147.898 222.292V220.136H60.9922Z" fill="white"/>
<path fill-rule="evenodd" clip-rule="evenodd" d="M146.396 173.516C156.462 173.516 165.173 179.316 169.374 187.755C171.937 186.516 174.812 185.822 177.849 185.822C185.913 185.822 192.833 190.717 195.802 197.696C198.56 195.211 202.211 193.695 206.217 193.695C214.813 193.695 221.78 200.664 221.78 209.258C221.78 217.854 214.812 224.822 206.217 224.822H146.397C132.228 224.822 120.743 213.336 120.743 199.168C120.741 185.002 132.227 173.516 146.396 173.516Z" fill="white"/>
<path fill-rule="evenodd" clip-rule="evenodd" d="M163.178 193.014C164.616 190.641 166.725 188.7 169.221 187.473C164.967 179.19 156.348 173.516 146.396 173.516C145.757 173.516 145.126 173.547 144.5 173.594C154.89 174.235 162.5 182.816 163.178 193.014Z" fill="#C2F3FF"/>
<path fill-rule="evenodd" clip-rule="evenodd" d="M206.216 193.696C205.163 193.696 204.137 193.807 203.143 194.007C203.401 193.99 203.657 193.969 203.926 193.969C217.062 193.969 217.04 214.35 203.926 214.35C193.88 214.35 191.539 202.437 196.856 196.829C196.492 197.104 196.139 197.393 195.801 197.698C192.832 190.719 185.912 185.824 177.848 185.824C176.82 185.824 175.812 185.91 174.827 186.062C174.972 186.058 175.114 186.04 175.26 186.04C182.918 186.04 189.38 192.502 189.38 200.159C189.38 207.79 182.891 214.279 175.26 214.279C168.279 214.279 162.308 208.903 161.305 202.152C157.958 208.763 150.723 213.454 143.26 213.454C132.07 213.454 123.783 204.308 123.299 193.493C123.152 190.211 123.982 187.078 125.495 184.306C122.506 188.499 120.742 193.628 120.742 199.17C120.742 213.338 132.227 224.824 146.396 224.824H206.216C214.812 224.824 221.779 217.855 221.779 209.26C221.779 200.665 214.812 193.696 206.216 193.696Z" fill="#C2F3FF"/>
<path d="M243.586 224.812H198.143C195.262 224.812 192.926 222.476 192.926 219.595C192.926 216.714 195.262 214.378 198.143 214.378H243.586C246.468 214.378 248.804 216.714 248.804 219.595C248.804 222.476 246.468 224.812 243.586 224.812Z" fill="#C2F3FF"/>
<path d="M237.205 202.825H219.672C220.255 204.66 220.303 206.686 219.812 208.553H237.206C238.788 208.553 240.07 207.272 240.07 205.69C240.07 204.108 238.787 202.825 237.205 202.825Z" fill="#C2F3FF"/>
<path d="M263.5 208.734H254.418C252.766 208.734 251.426 207.394 251.426 205.742C251.426 204.09 252.766 202.75 254.418 202.75H263.5C265.153 202.75 266.493 204.09 266.493 205.742C266.493 207.394 265.153 208.734 263.5 208.734Z" fill="#C2F3FF"/>
<path d="M229.083 214.378H217.676C218.519 214.378 219.285 214.013 219.837 213.462C220.391 212.907 220.733 212.252 220.733 211.407C220.733 209.719 219.363 208.461 217.675 208.461H229.082C228.239 208.461 227.476 208.685 226.921 209.233C226.369 209.786 226.026 210.513 226.026 211.358C226.027 213.049 227.396 214.378 229.083 214.378Z" fill="#C2F3FF"/>
<path d="M101.633 110.477V140.895C101.633 143.396 103.66 145.423 106.161 145.423H159.397C161.898 145.423 163.925 143.396 163.925 140.895V110.477C163.925 107.977 161.898 105.95 159.397 105.95H106.161C103.66 105.95 101.633 107.977 101.633 110.477Z" fill="white"/>
<path d="M158.176 109.198H105.966V142.637H158.176V109.198Z" fill="#21899C"/>
<path d="M161.176 127.074C161.815 127.074 162.333 126.556 162.333 125.917C162.333 125.278 161.815 124.76 161.176 124.76C160.537 124.76 160.019 125.278 160.019 125.917C160.019 126.556 160.537 127.074 161.176 127.074Z" fill="#C2F3FF"/>
<path d="M191.357 209.598C193.462 209.598 195.169 207.891 195.169 205.786C195.169 203.681 193.462 201.974 191.357 201.974C189.252 201.974 187.545 203.681 187.545 205.786C187.545 207.891 189.252 209.598 191.357 209.598Z" fill="#35A6B4"/>
<path d="M191.357 207.012C192.748 207.012 193.876 205.884 193.876 204.493C193.876 203.102 192.748 201.974 191.357 201.974C189.966 201.974 188.838 203.102 188.838 204.493C188.838 205.884 189.966 207.012 191.357 207.012Z" fill="#35A6B4"/>
<path d="M243.994 177.596C246.098 177.596 247.805 175.89 247.805 173.785C247.805 171.68 246.098 169.974 243.994 169.974C241.889 169.974 240.183 171.68 240.183 173.785C240.183 175.89 241.889 177.596 243.994 177.596Z" fill="#35A6B4"/>
<path d="M243.994 175.012C245.385 175.012 246.513 173.884 246.513 172.493C246.513 171.102 245.385 169.974 243.994 169.974C242.602 169.974 241.475 171.102 241.475 172.493C241.475 173.884 242.602 175.012 243.994 175.012Z" fill="#35A6B4"/>
<path d="M206.946 104.508C209.05 104.508 210.757 102.802 210.757 100.697C210.757 98.5922 209.05 96.886 206.946 96.886C204.841 96.886 203.135 98.5922 203.135 100.697C203.135 102.802 204.841 104.508 206.946 104.508Z" fill="#35A6B4"/>
<path d="M206.946 101.924C208.337 101.924 209.465 100.796 209.465 99.405C209.465 98.0138 208.337 96.886 206.946 96.886C205.555 96.886 204.427 98.0138 204.427 99.405C204.427 100.796 205.555 101.924 206.946 101.924Z" fill="#35A6B4"/>
<path d="M184.334 85.439L183.417 84.521L184.94 82.996C185.246 82.691 185.503 82.216 185.234 81.947L183.886 80.6L182.847 81.64C182.54 81.946 182.308 81.846 182.039 81.577L180.581 80.119C180.312 79.851 180.187 79.593 180.494 79.287L181.533 78.247L180.374 77.088C180.105 76.819 179.442 76.887 179.138 77.193L177.612 78.718L176.883 77.988C176.614 77.72 176.16 77.662 175.854 77.967L174.193 79.628C173.887 79.934 173.948 80.386 174.216 80.654L174.946 81.384L173.603 82.727C173.297 83.033 173.362 83.564 173.63 83.832L174.789 84.991L175.513 84.267C175.819 83.961 176.393 83.771 176.661 84.039L178.119 85.497C178.388 85.766 178.171 86.314 177.865 86.619L177.141 87.343L178.489 88.691C178.758 88.959 179.1 88.835 179.406 88.529L180.749 87.186L181.667 88.103C181.936 88.372 182.357 88.401 182.663 88.095L184.323 86.435C184.63 86.132 184.604 85.708 184.334 85.439Z" fill="#8EDEF2"/>
<path d="M173.498 86.27L172.566 87.203L171.003 85.641C170.697 85.335 170.152 84.98 169.884 85.249L168.465 86.668L169.589 87.793C169.896 88.099 169.797 88.189 169.528 88.458L168.07 89.916C167.801 90.185 167.578 90.417 167.272 90.111L166.147 88.986L165.024 90.109C164.755 90.378 164.993 91.04 165.298 91.346L166.86 92.908L166.046 93.722C165.777 93.991 165.596 94.495 165.902 94.801L167.562 96.461C167.868 96.767 168.452 96.664 168.719 96.396L169.534 95.582L170.832 96.8809C171.138 97.1859 171.529 97.152 171.798 96.884L172.921 95.76L172.252 95.092C171.946 94.786 171.723 94.1059 171.991 93.8379L173.449 92.38C173.718 92.111 174.263 92.469 174.569 92.774L175.238 93.443L176.657 92.024C176.926 91.755 176.842 91.482 176.536 91.176L175.238 89.878L176.17 88.945C176.439 88.677 176.424 88.211 176.118 87.905L174.458 86.245C174.153 85.938 173.767 86.002 173.498 86.27Z" fill="#21899C"/>
<path d="M178.309 83.849L180.217 83.836C180.325 83.835 180.43 83.8779 180.506 83.9559C180.583 84.0329 180.628 84.137 180.623 84.247L180.589 86.135L179.783 86.121L179.808 84.646L178.314 84.656L178.309 83.849Z" fill="#35A6B4"/>
<path d="M174.486 90.5799L180.523 84.542L179.953 83.9714L173.915 90.0092L174.486 90.5799Z" fill="#35A6B4"/>
<path d="M170.143 89.025C170.143 89.023 170.143 89.021 170.144 89.018L170.177 87.13L170.984 87.144L170.958 88.619L172.453 88.609L172.459 89.416L170.551 89.429C170.442 89.43 170.337 89.387 170.261 89.309C170.185 89.233 170.143 89.132 170.143 89.025Z" fill="#35A6B4"/>
<path d="M170.823 89.2868L176.86 83.2496L176.29 82.679L170.253 88.7162L170.823 89.2868Z" fill="#35A6B4"/>
<path fill-rule="evenodd" clip-rule="evenodd" d="M181.239 120.981C178.507 120.981 175.534 123.096 175.534 126.624C175.534 131.991 181.253 137.664 181.253 137.664C181.253 137.664 186.972 131.899 186.972 126.624C186.972 123.096 183.815 120.981 181.239 120.981ZM182.656 129.043C182.275 129.275 181.807 129.416 181.253 129.424C180.475 129.413 179.867 129.14 179.431 128.719C177.828 127.233 178.439 123.8 181.265 123.8C184.323 123.8 184.786 127.821 182.656 129.043Z" fill="#21899C"/>
<path d="M272.721 123.963L268.231 127.086C268.088 127.106 267.955 127.182 267.866 127.309C267.794 127.413 267.766 127.534 267.773 127.651C267.766 127.768 267.794 127.887 267.866 127.992C267.955 128.12 268.089 128.196 268.231 128.214L272.721 131.337C272.965 131.505 273.3 131.445 273.468 131.202C273.635 130.96 273.576 130.626 273.333 130.458L269.294 127.651L273.333 124.842C273.576 124.675 273.635 124.341 273.468 124.098C273.3 123.856 272.965 123.796 272.721 123.963Z" fill="#21899C"/>
<path d="M277.525 123.963L273.035 127.086C272.892 127.106 272.758 127.182 272.669 127.309C272.597 127.413 272.568 127.534 272.576 127.651C272.568 127.768 272.597 127.887 272.669 127.992C272.758 128.12 272.893 128.196 273.035 128.214L277.525 131.337C277.768 131.505 278.101 131.445 278.269 131.202C278.439 130.96 278.379 130.626 278.137 130.458L274.096 127.651L278.137 124.842C278.379 124.675 278.439 124.341 278.269 124.098C278.102 123.856 277.769 123.796 277.525 123.963Z" fill="#21899C"/>
<path d="M282.328 123.758L277.839 126.879C277.695 126.9 277.561 126.976 277.474 127.102C277.4 127.207 277.373 127.327 277.381 127.446C277.373 127.561 277.4 127.682 277.474 127.786C277.561 127.914 277.696 127.989 277.839 128.009L282.328 131.13C282.573 131.3 282.906 131.239 283.075 130.997C283.243 130.754 283.183 130.42 282.94 130.252L278.9 127.446L282.94 124.637C283.183 124.469 283.243 124.135 283.075 123.893C282.906 123.651 282.573 123.591 282.328 123.758Z" fill="#21899C"/>
<path d="M287.134 123.758L282.643 126.879C282.5 126.9 282.367 126.976 282.277 127.102C282.207 127.207 282.177 127.327 282.186 127.446C282.177 127.561 282.207 127.682 282.277 127.786C282.367 127.914 282.501 127.989 282.643 128.009L287.134 131.13C287.377 131.3 287.711 131.239 287.88 130.997C288.048 130.754 287.988 130.42 287.745 130.252L283.706 127.446L287.745 124.637C287.988 124.469 288.048 124.135 287.88 123.893C287.711 123.651 287.377 123.591 287.134 123.758Z" fill="#21899C"/>
<path d="M236.601 95.3461L231.516 98.8821C231.354 98.9041 231.202 98.9901 231.102 99.1331C231.02 99.2511 230.989 99.3891 230.997 99.5211C230.989 99.6551 231.02 99.7891 231.102 99.9081C231.202 100.053 231.354 100.139 231.516 100.16L236.601 103.696C236.878 103.887 237.257 103.819 237.448 103.544C237.636 103.27 237.57 102.892 237.295 102.702L232.722 99.5211L237.295 96.3411C237.57 96.1511 237.637 95.773 237.448 95.498C237.257 95.223 236.878 95.1571 236.601 95.3461Z" fill="#21899C"/>
<path d="M242.044 95.3461L236.959 98.8821C236.797 98.9041 236.645 98.9901 236.543 99.1331C236.461 99.2511 236.43 99.3891 236.439 99.5211C236.43 99.6551 236.461 99.7891 236.543 99.9081C236.645 100.053 236.797 100.139 236.959 100.16L242.044 103.696C242.32 103.887 242.697 103.819 242.888 103.544C243.08 103.27 243.012 102.892 242.738 102.702L238.161 99.5211L242.738 96.3411C243.012 96.1511 243.081 95.773 242.888 95.498C242.697 95.223 242.32 95.1571 242.044 95.3461Z" fill="#21899C"/>
<path d="M247.483 95.1131L242.399 98.6491C242.236 98.6701 242.084 98.7571 241.985 98.9011C241.901 99.0191 241.871 99.1551 241.88 99.2891C241.871 99.4211 241.901 99.5571 241.985 99.6761C242.084 99.8201 242.236 99.9051 242.399 99.9271L247.483 103.463C247.761 103.655 248.139 103.586 248.33 103.312C248.52 103.037 248.452 102.659 248.178 102.468L243.602 99.2891L248.178 96.1091C248.452 95.9191 248.521 95.5401 248.33 95.2661C248.14 94.9911 247.762 94.9241 247.483 95.1131Z" fill="#21899C"/>
<path d="M252.928 95.1131L247.84 98.6491C247.679 98.6701 247.527 98.7571 247.426 98.9011C247.346 99.0191 247.313 99.1551 247.322 99.2891C247.312 99.4211 247.345 99.5571 247.426 99.6761C247.527 99.8201 247.679 99.9051 247.84 99.9271L252.928 103.463C253.202 103.655 253.581 103.586 253.773 103.312C253.963 103.037 253.895 102.659 253.62 102.468L249.045 99.2891L253.62 96.1091C253.895 95.9191 253.964 95.5401 253.773 95.2661C253.581 94.9911 253.202 94.9241 252.928 95.1131Z" fill="#21899C"/>
<path d="M80.8664 142.96C80.8587 145.024 81.9033 146.701 83.1996 146.706C84.4958 146.711 85.5527 145.041 85.5604 142.977C85.568 140.912 84.5234 139.235 83.2272 139.23C81.931 139.225 80.874 140.895 80.8664 142.96Z" fill="#32B3C2"/>
<path d="M94.6194 148.471C93.1104 147.603 91.4384 145.433 92.0774 143.522C93.5674 139.053 90.0854 137.456 88.3604 137.126C86.6364 136.796 85.1154 137.235 84.1564 138.003C82.5974 139.252 83.0634 141.403 83.9324 143.136C82.9894 143.68 82.5364 144.849 83.0784 145.718C84.2614 147.614 83.2424 150.166 82.5394 151.682C81.4064 154.122 82.9854 157.15 85.7344 158.532C88.4834 159.914 92.0634 159.767 94.8234 158.531C96.1944 157.918 97.4294 157.02 98.0534 155.831C99.4024 153.262 97.4554 150.101 94.6194 148.471Z" fill="#32B3C2"/>
<path d="M75.69 165.564C75.033 165.659 74.344 165.715 73.624 165.735C73.095 165.751 72.654 165.333 72.64 164.805C72.625 164.276 73.04 163.835 73.571 163.821C76.929 163.729 79.442 162.739 81.038 160.88C83.475 158.042 83.011 154.095 83.006 154.056C82.94 153.531 83.319 153.057 83.836 152.986C84.361 152.921 84.84 153.293 84.906 153.817C84.93 154.013 85.473 158.652 82.491 162.129C80.89 163.993 78.607 165.145 75.69 165.564Z" fill="#F99AB6"/>
<path d="M83.729 152.292C82.833 152.421 82.197 153.251 82.308 154.14C82.313 154.177 82.716 157.847 80.505 160.423C79.424 161.683 77.851 162.505 75.832 162.882C76.416 163.876 76.515 165.161 76.049 166.212C79.012 165.736 81.361 164.521 83.022 162.584C86.206 158.874 85.626 153.937 85.6 153.73C85.486 152.821 84.655 152.175 83.729 152.292Z" fill="#8EDEF2"/>
<path d="M83.9921 153.92C83.5021 153.671 83.1041 152.926 83.6911 152.245C84.2701 151.574 85.1621 151.203 86.1181 151.166L86.3651 151.156C87.2121 151.125 87.9791 151.494 88.4901 152.092C88.0841 153.352 85.3221 154.429 83.9921 153.92Z" fill="#F99AB6"/>
<path d="M85.6118 149.243L85.5908 150.324L85.5498 152.355L87.1108 152.383L87.1598 149.787L87.1808 148.78C86.7088 149.098 86.1708 149.268 85.6118 149.243Z" fill="#F99AB6"/>
<path d="M85.6118 149.5L85.5908 150.581C86.1438 150.499 86.8148 150.252 87.1628 149.844L87.1798 149.039C86.7088 149.356 86.1708 149.526 85.6118 149.5Z" fill="#F99AB6"/>
<path d="M85.9984 150.059C87.4764 150.043 88.7804 149.323 89.5964 148.219C90.1594 147.455 90.4894 146.51 90.4784 145.488L90.4604 143.708C90.4474 142.415 89.8934 141.255 89.0154 140.438C88.1974 139.677 87.0954 139.216 85.8894 139.229C85.0914 139.237 84.3444 139.451 83.6984 139.819C82.3174 140.606 81.3924 142.098 81.4104 143.799L81.4284 145.578C81.4454 147.217 82.3294 148.641 83.6404 149.423C84.3284 149.834 85.1374 150.068 85.9984 150.059Z" fill="#F99AB6"/>
<path d="M86.7452 170.027C89.1173 170.027 91.0402 168.104 91.0402 165.732C91.0402 163.36 89.1173 161.437 86.7452 161.437C84.3731 161.437 82.4502 163.36 82.4502 165.732C82.4502 168.104 84.3731 170.027 86.7452 170.027Z" fill="#61C8E0"/>
<path d="M85.7003 147.705C85.6003 148.268 85.1133 148.698 84.5203 148.704C83.9283 148.71 83.4333 148.29 83.3223 147.729L85.7003 147.705Z" fill="#FFFEFF"/>
<path d="M81.7111 154.639C81.4181 155.449 82.2351 156.266 83.0921 156.36C83.9491 156.454 84.7181 155.836 84.8121 154.979C84.9071 154.124 83.6291 152.247 83.1481 152.961C82.6881 153.641 81.9631 153.946 81.7111 154.639Z" fill="#8EDEF2"/>
<path d="M88.4892 152.092C88.8592 152.526 89.0952 153.079 89.1242 153.692C89.1242 153.692 88.7382 160.748 90.6742 163.997L82.4492 164.685L82.6702 154.921C82.6202 153.884 83.0192 152.933 83.6912 152.246C83.7292 153.819 86.9672 151.926 88.4892 152.092Z" fill="#8EDEF2"/>
<path d="M82.9516 183.594C82.1926 183.631 81.8176 184.343 81.7536 184.545C81.4006 185.652 81.5266 186.811 80.8176 188.69C80.3346 189.97 79.8496 190.232 79.5066 191.274C79.2116 192.168 80.0337 192.46 80.8457 192.144C81.1627 192.02 83.1646 191.495 83.2006 189.895C83.2266 188.727 83.0906 187.833 83.4606 186.831C83.8316 185.827 84.1496 186.393 84.2696 186.7C84.3546 186.919 84.6227 187.546 84.7117 187.74C84.7437 187.811 84.8256 187.844 84.8996 187.816L84.9027 187.815C84.9827 187.784 85.0206 187.692 84.9816 187.614C84.8696 187.386 84.6626 186.598 84.5856 185.591C84.4916 184.356 83.6406 183.561 82.9516 183.594Z" fill="#32B3C2"/>
<path d="M82.1561 189.112C82.5731 188.176 83.0691 185.303 82.8231 184.67C82.5331 183.925 80.9801 183.868 80.8851 184.539C80.7201 185.69 81.1961 187.698 80.2461 189.852C80.3641 190.417 81.6711 190.202 82.1561 189.112Z" fill="#F99AB6"/>
<path d="M88.0861 169.682L77.9661 174.385L78.9251 172.101L82.6741 184.254C82.9031 184.992 82.4881 185.775 81.7511 186.002C81.0471 186.219 80.3011 185.848 80.0361 185.173L75.4261 173.319C75.0871 172.447 75.4821 171.469 76.3111 171.071L76.3851 171.036L86.4521 166.218C87.4061 165.762 88.5501 166.165 89.0061 167.118C89.4621 168.073 89.0601 169.216 88.1061 169.673C88.1021 169.674 88.0891 169.68 88.0861 169.682Z" fill="#61C8E0"/>
<path d="M76.1518 179.774C75.4638 179.454 74.7997 179.909 74.6487 180.057C73.8197 180.871 73.3908 181.955 71.8878 183.286C70.8638 184.194 70.3128 184.199 69.5228 184.96C68.8448 185.614 69.4368 186.256 70.3018 186.356C70.6398 186.394 72.6557 186.864 73.4337 185.466C74.0017 184.445 74.2977 183.59 75.0937 182.875C75.8897 182.16 75.9067 182.81 75.8697 183.136C75.8427 183.37 75.7867 184.049 75.7747 184.263C75.7697 184.341 75.8278 184.409 75.9048 184.418H75.9087C75.9937 184.428 76.0697 184.364 76.0727 184.277C76.0787 184.023 76.2627 183.229 76.6657 182.301C77.1597 181.167 76.7768 180.065 76.1518 179.774Z" fill="#32B3C2"/>
<path d="M72.8749 184.284C73.6799 183.651 75.4599 181.341 75.5369 180.665C75.6279 179.872 74.2809 179.098 73.8839 179.645C73.2009 180.586 72.6849 182.585 70.8399 184.047C70.6809 184.602 71.9369 185.021 72.8749 184.284Z" fill="#F99AB6"/>
<path d="M87.3761 169.988L76.2301 169.428L78.1431 167.854L75.7901 180.354C75.6471 181.113 74.9171 181.612 74.1581 181.469C73.4341 181.332 72.9481 180.656 73.0281 179.936L74.4801 167.3C74.5861 166.369 75.3911 165.69 76.3111 165.723L76.3941 165.727L87.5451 166.162C88.6021 166.203 89.4251 167.093 89.3841 168.15C89.3431 169.207 88.4521 170.03 87.3961 169.989C87.3941 169.989 87.3801 169.988 87.3761 169.988Z" fill="#61C8E0"/>
<path d="M88.1739 165.733C87.6859 165.815 87.1629 165.874 86.6059 165.911C86.0789 165.944 85.6229 165.544 85.5889 165.016C85.5549 164.489 85.9569 164.036 86.4829 163.998C88.2559 163.885 90.4919 163.449 91.0629 162.019C91.9649 159.767 88.8539 155.665 87.6939 154.406C87.3359 154.017 87.3599 153.412 87.7489 153.052C88.1379 152.695 88.7429 152.719 89.1029 153.107C89.6439 153.695 94.3519 158.959 92.8409 162.732C92.2079 164.311 90.6409 165.317 88.1739 165.733Z" fill="#F99AB6"/>
<path d="M89.6157 152.633C89.2347 152.219 88.6757 152.029 88.1197 152.121C87.7427 152.185 87.3997 152.377 87.1437 152.67C86.5817 153.311 86.6477 154.299 87.2207 154.93C88.5427 156.383 91.1067 160.022 90.4107 161.76C90.2897 162.063 90.0407 162.305 89.7227 162.5C89.1307 162.865 88.8017 163.538 88.9357 164.221C88.9387 164.233 88.9407 164.243 88.9427 164.255C89.1467 165.343 90.3617 165.953 91.3217 165.403C92.3567 164.81 93.0837 164.006 93.4897 162.992C95.1277 158.907 90.5507 153.647 89.6157 152.633Z" fill="#8EDEF2"/>
<path d="M82.5214 164.813C82.5684 165.378 82.8164 165.878 83.1884 166.251L86.6864 165.964C86.9934 165.536 87.1564 165.002 87.1104 164.437C87.0064 163.169 85.8944 162.227 84.6284 162.332C83.3604 162.434 82.4184 163.545 82.5214 164.813Z" fill="#F99AB6"/>
<path d="M70.6053 165.243C70.6273 165.809 70.8543 166.32 71.2093 166.708L74.7173 166.569C75.0413 166.154 75.2273 165.628 75.2043 165.061C75.1543 163.79 74.0843 162.801 72.8133 162.852C71.5443 162.902 70.5553 163.972 70.6053 165.243Z" fill="#F99AB6"/>
<path d="M86.1185 143.967C88.4219 144.775 90.7003 144.258 91.2074 142.812C91.7145 141.367 90.2583 139.54 87.9549 138.732C85.6515 137.924 83.3731 138.441 82.866 139.886C82.3589 141.332 83.8151 143.159 86.1185 143.967Z" fill="#32B3C2"/>
<path d="M88.8139 166.131C88.8139 165.813 88.5559 165.555 88.2389 165.555H67.3829C66.9449 165.555 66.5879 165.815 66.5879 166.131C66.5879 166.448 66.9449 166.707 67.3829 166.707H88.2389C88.5569 166.708 88.8139 166.45 88.8139 166.131Z" fill="#61C8E0"/>
<path d="M89.6327 166.131C89.6327 166.448 89.3537 166.707 89.0117 166.707H81.0917C80.7507 166.707 80.4717 166.448 80.4717 166.131C80.4717 165.815 80.7507 165.555 81.0917 165.555H89.0117C89.3537 165.555 89.6327 165.815 89.6327 166.131Z" fill="white"/>
<path d="M66.6211 154.763V165.281C66.6211 165.749 67.0011 166.13 67.4691 166.13H81.3451C81.8141 166.13 82.1941 165.749 82.1941 165.281V154.763C82.1941 154.295 81.8141 153.914 81.3451 153.914H67.4691C67.0011 153.915 66.6211 154.295 66.6211 154.763Z" fill="white"/>
<path d="M65.9736 154.763V165.281C65.9736 165.749 66.3536 166.13 66.8216 166.13H80.6976C81.1666 166.13 81.5466 165.749 81.5466 165.281V154.763C81.5466 154.295 81.1666 153.914 80.6976 153.914H66.8216C66.3536 153.915 65.9736 154.295 65.9736 154.763Z" fill="#32B3C2"/>
<path d="M76.0477 160.022C76.0477 159.528 75.6477 159.127 75.1527 159.127H72.3657C71.8717 159.127 71.4707 159.527 71.4707 160.022C71.4707 160.516 71.8707 160.917 72.3657 160.917H75.1527C75.6467 160.917 76.0477 160.516 76.0477 160.022Z" fill="white"/>
<path d="M112.526 93.264C110.624 93.264 108.72 92.591 107.272 91.245C105.075 89.203 101.499 89.202 99.3 91.245C98.922 91.594 98.333 91.573 97.983 91.197C97.632 90.82 97.654 90.23 98.031 89.88C100.929 87.187 105.643 87.188 108.541 89.88C110.739 91.922 114.315 91.922 116.514 89.88C119.41 87.187 124.124 87.187 127.023 89.88C129.22 91.922 132.796 91.922 134.996 89.88C137.892 87.187 142.607 87.188 145.504 89.88C145.881 90.231 145.903 90.82 145.552 91.197C145.201 91.574 144.612 91.595 144.236 91.245C142.039 89.203 138.462 89.202 136.265 91.245C133.368 93.936 128.653 93.938 125.755 91.245C123.557 89.203 119.982 89.203 117.783 91.245C116.333 92.591 114.43 93.264 112.526 93.264Z" fill="white"/>
<path d="M111.546 155.862C110.27 155.862 108.993 155.411 108.022 154.508C106.548 153.138 104.149 153.138 102.674 154.508C102.421 154.742 102.026 154.728 101.79 154.476C101.556 154.222 101.57 153.828 101.822 153.592C103.766 151.784 106.928 151.786 108.872 153.592C110.347 154.962 112.746 154.961 114.22 153.592C116.163 151.785 119.325 151.785 121.27 153.592C122.744 154.962 125.143 154.961 126.618 153.592C128.561 151.784 131.723 151.786 133.667 153.592C133.92 153.827 133.935 154.222 133.699 154.476C133.463 154.728 133.068 154.743 132.815 154.508C131.341 153.138 128.942 153.138 127.468 154.508C125.525 156.313 122.362 156.315 120.418 154.508C118.944 153.138 116.545 153.138 115.071 154.508C114.099 155.41 112.822 155.862 111.546 155.862Z" fill="white"/>
<path d="M259.802 220.323C261.014 220.323 261.995 219.341 261.995 218.13C261.995 216.919 261.014 215.937 259.802 215.937C258.591 215.937 257.609 216.919 257.609 218.13C257.609 219.341 258.591 220.323 259.802 220.323Z" fill="#32B3C2"/>
<path d="M251.174 217.949L259.163 220.228C260.008 220.47 260.888 219.98 261.129 219.136C261.369 218.291 260.797 216.134 259.952 215.893L251.573 215.97C250.649 215.978 250.15 217.128 250.833 217.751C250.934 217.843 251.048 217.914 251.174 217.949Z" fill="#32B3C2"/>
<path d="M257.26 216.921C257.491 216.911 257.657 216.693 257.604 216.468L257.409 215.642C257.368 215.469 257.211 215.35 257.034 215.357C256.802 215.367 256.637 215.586 256.69 215.812L256.885 216.638C256.926 216.81 257.083 216.929 257.26 216.921Z" fill="white"/>
<path d="M256.068 216.972C256.3 216.962 256.465 216.743 256.412 216.519L256.217 215.692C256.176 215.519 256.019 215.4 255.842 215.408C255.611 215.418 255.445 215.637 255.498 215.862L255.693 216.689C255.734 216.861 255.892 216.98 256.068 216.972Z" fill="white"/>
<path d="M262.213 202.609L262.256 202.586L274.234 195.526L277.815 199.408L265.248 206.07L262.3 218.899L262.21 218.884L258.844 215.832L261.121 204.073C261.244 203.472 261.628 202.919 262.213 202.609Z" fill="#F7B75D"/>
<path d="M288.296 224.246C289.385 224.246 290.267 223.363 290.267 222.275C290.267 221.186 289.385 220.304 288.296 220.304C287.208 220.304 286.325 221.186 286.325 222.275C286.325 223.363 287.208 224.246 288.296 224.246Z" fill="#32B3C2"/>
<path d="M280.796 224.263L288.266 224.246C289.055 224.245 289.694 223.602 289.693 222.813C289.691 222.024 288.66 220.301 287.87 220.303L280.649 222.453C279.853 222.689 279.708 223.808 280.453 224.176C280.563 224.232 280.678 224.264 280.796 224.263Z" fill="#32B3C2"/>
<path d="M285.798 221.863C285.995 221.797 286.084 221.567 285.982 221.385L285.608 220.72C285.53 220.581 285.364 220.517 285.213 220.568C285.015 220.634 284.927 220.863 285.028 221.046L285.403 221.711C285.481 221.849 285.646 221.914 285.798 221.863Z" fill="white"/>
<path d="M284.782 222.203C284.979 222.137 285.068 221.907 284.966 221.725L284.592 221.06C284.514 220.921 284.348 220.857 284.197 220.908C283.999 220.974 283.911 221.204 284.012 221.386L284.387 222.051C284.466 222.189 284.631 222.253 284.782 222.203Z" fill="white"/>
<path d="M272.499 193.766L280.441 192.897C280.935 193.457 281.533 195.19 281.709 195.969C281.991 197.214 281.741 198.456 281.108 199.455C280.475 200.458 279.465 201.219 278.217 201.501C277.608 201.64 274.595 201.687 273.179 200.306C271.106 198.287 272.499 193.766 272.499 193.766Z" fill="#F7B75D"/>
<path d="M277.455 198.011H282.566L280.602 210.173L289.229 220.226L284.752 221.484L276.521 212.252C276.116 211.793 275.906 211.157 276.011 210.507L277.455 198.011Z" fill="#F7B75D"/>
<path d="M256.564 192.84L268.403 192.634C268.926 192.625 269.401 192.326 269.636 191.86L274.277 182.633L271.762 181.367L267.503 189.835L256.515 190.026L256.564 192.84Z" fill="#61C8E0"/>
<path d="M273.466 174.067L273.825 181.538L277.287 181.374L276.787 174.159L276.645 172.106L273.466 174.067Z" fill="#F99AB6"/>
<path d="M276.114 176.422C276.114 176.422 275.33 178.346 273.693 178.826L273.573 176.321L276.114 176.422Z" fill="#F99AB6"/>
<path d="M272.338 178.492C272.2 178.47 271.932 178.395 271.798 178.358C270.51 178.004 269.238 175.881 269.287 174.659C269.345 173.201 269.498 172.47 269.414 171.481C269.297 170.126 270.614 169.063 271.974 169.118L274.73 169.227C275.766 169.268 276.573 170.141 276.532 171.178L276.353 175.648C276.289 177.243 273.914 178.742 272.338 178.492Z" fill="#F99AB6"/>
<path d="M278.028 179.485C277.66 179.237 277.206 179.114 276.731 179.169L275.198 179.348C274.457 179.435 273.78 179.702 273.206 180.099C274.79 180.561 276.704 180.401 278.028 179.485Z" fill="#F99AB6"/>
<path d="M280.408 182.426C280.339 181.223 279.272 179.6 277.959 179.44C275.739 179.753 273.745 179.874 272.995 180.052C271.703 180.948 270.935 182.507 271.13 184.176L271.325 197.999C275.476 200.927 283.083 199.751 283.083 199.751C283.083 193.784 280.544 184.793 280.408 182.426Z" fill="#61C8E0"/>
<path d="M264.89 192.763L274.556 192.866C275.259 192.874 275.859 192.362 275.963 191.667L277.554 181.027L274.771 180.61L273.361 190.04L264.92 189.949L264.89 192.763Z" fill="#61C8E0"/>
<path d="M273.388 179.979C274.02 179.829 275.145 179.791 276.933 179.574C275.941 181.903 273.264 183.839 272.472 186.567C272.057 186.112 272.097 180.874 273.388 179.979Z" fill="#F7B75D"/>
<path d="M273.498 180.407C273.613 180.276 273.983 180.017 273.994 179.88C274.28 179.845 274.234 179.952 274.631 179.915C273.548 180.919 274.174 182.571 273.747 184.081C273.202 184.852 272.733 185.666 272.472 186.567C272.242 186.315 272.153 184.595 272.338 182.96C272.357 182.783 272.616 181.413 273.498 180.407Z" fill="#35A6B4"/>
<path d="M273.372 180.665C273.508 180.843 274.09 180.931 274.272 180.8C274.447 180.676 274.619 179.999 274.619 179.999L273.275 179.798C273.275 179.798 273.241 180.495 273.372 180.665Z" fill="#21899C"/>
<path d="M270.994 171.831C265.659 170.671 269.501 167.28 269.501 167.28C269.501 167.28 269.607 168.546 270.641 168.132C272.618 167.339 276.918 166.841 278.1 169.423C279.02 171.433 277.307 175.832 276.983 176.979C276.451 176.646 276.899 171.469 274.712 171.685C273.518 171.802 272.161 172.084 270.994 171.831Z" fill="white"/>
<path d="M271.802 177.377C270.712 177.328 271.413 175.527 271.829 175.55C272.244 175.573 272.891 177.425 271.802 177.377Z" fill="#FFFEFF"/>
<path d="M275.302 181.277L278.009 179.477L277.092 178.471L273.871 179.903L275.302 181.277Z" fill="white"/>
<path d="M273.051 180.581L273.206 179.981L273.725 179.44L273.945 179.903L273.051 180.581Z" fill="white"/>
<path d="M275.491 189.487C275.491 189.157 275.223 188.889 274.894 188.889H253.289C252.836 188.889 252.466 189.158 252.466 189.486C252.466 189.815 252.836 190.083 253.289 190.083H274.894C275.224 190.083 275.491 189.815 275.491 189.487Z" fill="#61C8E0"/>
<path d="M276.339 189.486C276.339 189.815 276.05 190.083 275.695 190.083H267.491C267.137 190.083 266.848 189.815 266.848 189.486C266.848 189.158 267.137 188.889 267.491 188.889H275.695C276.05 188.889 276.339 189.158 276.339 189.486Z" fill="white"/>
<path d="M252.499 177.709V188.604C252.499 189.09 252.893 189.483 253.378 189.483H267.753C268.238 189.483 268.632 189.09 268.632 188.604V177.709C268.632 177.223 268.238 176.83 267.753 176.83H253.378C252.893 176.831 252.499 177.223 252.499 177.709Z" fill="white"/>
<path d="M251.828 177.709V188.604C251.828 189.09 252.223 189.483 252.707 189.483H267.082C267.567 189.483 267.961 189.09 267.961 188.604V177.709C267.961 177.223 267.567 176.83 267.082 176.83H252.707C252.223 176.831 251.828 177.223 251.828 177.709Z" fill="#32B3C2"/>
<path d="M262.265 183.157C262.265 182.645 261.851 182.231 261.339 182.231H258.451C257.939 182.231 257.524 182.645 257.524 183.157C257.524 183.669 257.939 184.084 258.451 184.084H261.339C261.851 184.083 262.265 183.668 262.265 183.157Z" fill="white"/>
<path d="M265.799 191.354C265.898 190.766 265.775 190.194 265.492 189.719L261.857 189.107C261.435 189.463 261.131 189.963 261.033 190.551C260.811 191.867 261.698 193.114 263.014 193.335C264.33 193.557 265.577 192.67 265.799 191.354Z" fill="#F99AB6"/>
<path d="M258.128 190.682C258.178 190.088 258.008 189.528 257.687 189.078L254.014 188.771C253.623 189.161 253.362 189.685 253.313 190.279C253.202 191.609 254.19 192.777 255.52 192.888C256.85 192.999 258.018 192.012 258.128 190.682Z" fill="#F99AB6"/>
<path d="M248.714 118.217C248.306 117.626 248.861 116.639 248.515 115.466C247.469 111.926 248.696 110.383 248.696 110.383C248.675 109.084 249.767 107.944 251.398 107.342C252.163 107.061 253.045 106.898 253.988 106.891C255.413 106.882 256.714 107.235 257.68 107.816C258.717 108.44 259.47 109.329 259.388 110.314C259.329 111.012 258.579 111.934 259.342 113.112C261.225 116.02 260.408 117.696 259.407 118.217C258.486 118.697 257.426 118.737 256.883 119.046C254.109 120.631 250.163 120.318 248.714 118.217Z" fill="white"/>
<path d="M240.014 131.176C239.373 131.104 238.711 130.988 238.03 130.83C237.529 130.715 237.217 130.215 237.333 129.715C237.449 129.214 237.946 128.901 238.449 129.018C241.629 129.754 244.233 129.44 246.189 128.082C249.174 126.01 249.706 122.186 249.711 122.148C249.777 121.638 250.249 121.286 250.753 121.346C251.263 121.412 251.622 121.879 251.555 122.388C251.531 122.579 250.905 127.074 247.249 129.611C245.286 130.973 242.858 131.497 240.014 131.176Z" fill="#F99AB6"/>
<path d="M249.271 123.573C249.089 123.573 248.918 123.591 248.758 123.624C249.071 122.739 249.168 122.093 249.17 122.079C249.266 121.348 249.898 120.796 250.64 120.796C250.699 120.796 250.758 120.8 250.824 120.808C251.63 120.913 252.2 121.656 252.095 122.462C252.083 122.554 251.928 123.634 251.381 125.027C251.091 124.217 250.39 123.573 249.271 123.573Z" fill="#61C8E0"/>
<path d="M251.022 122.788C250.545 122.547 250.159 121.823 250.73 121.161C251.292 120.511 252.158 120.149 253.086 120.113L253.326 120.104C254.149 120.073 254.895 120.431 255.391 121.012C254.998 122.236 252.314 123.283 251.022 122.788Z" fill="#F99AB6"/>
<path d="M252.598 118.244L252.577 119.295L252.538 121.269L254.054 121.295L254.101 118.774L254.122 117.796C253.662 118.103 253.141 118.268 252.598 118.244Z" fill="#F99AB6"/>
<path d="M252.598 118.495L252.577 119.546C253.114 119.466 253.765 119.226 254.104 118.829L254.121 118.046C253.662 118.354 253.141 118.519 252.598 118.495Z" fill="#F99AB6"/>
<path d="M252.973 119.038C254.409 119.022 255.676 118.322 256.468 117.251C257.016 116.509 257.335 115.589 257.325 114.597L257.307 112.868C257.294 111.611 256.756 110.483 255.904 109.69C255.108 108.952 254.039 108.503 252.866 108.515C252.092 108.523 251.366 108.731 250.737 109.088C249.395 109.854 248.498 111.303 248.514 112.955L248.532 114.684C248.548 116.275 249.407 117.66 250.68 118.418C251.351 118.819 252.136 119.045 252.973 119.038Z" fill="#F99AB6"/>
<path d="M248.254 133.337C247.742 135.584 250.525 137.82 252.772 138.332C255.019 138.844 257.255 137.436 257.767 135.189C258.279 132.943 256.871 130.707 254.625 130.195C252.378 129.684 248.766 131.09 248.254 133.337Z" fill="#F7B75D"/>
<path d="M252.684 116.75C252.586 117.296 252.114 117.714 251.538 117.72C250.962 117.726 250.481 117.317 250.373 116.773L252.684 116.75Z" fill="#FFFEFF"/>
<path d="M248.546 123.807C248.261 124.594 249.052 125.553 249.884 125.644C250.716 125.735 251.729 124.649 251.82 123.817C251.912 122.985 250.672 121.163 250.204 121.856C249.757 122.518 248.79 123.133 248.546 123.807Z" fill="#61C8E0"/>
<path d="M255.394 121.012C255.753 121.434 255.983 121.971 256.01 122.567C256.01 122.567 254.657 129.115 257.515 132.578C257.515 132.578 252.357 135.67 248.212 133.581C248.212 130.615 250.025 128.567 249.739 123.76C249.678 122.754 250.078 121.829 250.731 121.161C250.77 122.69 253.914 120.85 255.394 121.012Z" fill="#61C8E0"/>
<path d="M249.746 152.032C249.015 151.938 248.534 152.554 248.438 152.737C247.912 153.735 247.834 154.866 246.836 156.541C246.155 157.684 245.648 157.851 245.141 158.788C244.706 159.593 245.444 160.013 246.274 159.85C246.599 159.787 248.603 159.624 248.911 158.101C249.136 156.988 250.938 156.622 251.003 156.223C251.042 155.98 250.87 155.197 250.969 154.22C251.09 153.022 250.41 152.116 249.746 152.032Z" fill="#32B3C2"/>
<path d="M248.044 157.172C248.602 156.35 249.567 153.686 249.44 153.037C249.291 152.275 247.814 151.957 247.608 152.581C247.255 153.654 247.367 155.656 246.091 157.555C246.107 158.116 247.394 158.131 248.044 157.172Z" fill="#F99AB6"/>
<path d="M226.8 141.651C227.313 141.12 227.105 140.367 227.017 140.18C226.531 139.161 225.671 138.424 224.926 136.621C224.417 135.392 224.586 134.886 224.137 133.92C223.752 133.09 222.975 133.43 222.61 134.192C222.467 134.491 221.397 136.194 222.435 137.351C223.193 138.197 222.408 139.86 222.69 140.151C222.861 140.328 223.591 140.658 224.316 141.322C225.202 142.135 226.334 142.132 226.8 141.651Z" fill="#32B3C2"/>
<path d="M223.696 137.211C224.022 138.15 225.581 140.518 226.176 140.803C226.876 141.139 228.014 140.146 227.636 139.608C226.989 138.683 225.316 137.575 224.557 135.419C224.099 135.096 223.316 136.117 223.696 137.211Z" fill="#F99AB6"/>
<path d="M243.914 139.352L243.987 139.319L253.839 134.794C254.774 134.364 255.878 134.774 256.307 135.708C256.736 136.642 256.327 137.746 255.393 138.175C255.39 138.177 255.377 138.183 255.373 138.184L246.894 141.964L249.893 152.257L247.317 153.109L243.02 141.524C242.704 140.67 243.103 139.727 243.914 139.352Z" fill="#F7B75D"/>
<path d="M252.964 133.709C252.484 133.709 251.973 133.682 251.433 133.626C250.922 133.574 250.55 133.117 250.603 132.605C250.656 132.094 251.115 131.725 251.624 131.775C253.342 131.952 255.553 131.895 256.331 130.619C257.56 128.606 255.241 124.175 254.332 122.781C254.052 122.35 254.173 121.774 254.603 121.494C255.034 121.213 255.61 121.334 255.891 121.765C256.315 122.416 259.976 128.217 257.92 131.588C257.059 132.999 255.395 133.709 252.964 133.709Z" fill="#F99AB6"/>
<path d="M257.807 113.344C257.807 113.344 254.69 114.459 252.743 113.105C250.796 111.751 249.907 109.663 250.757 108.44C251.607 107.219 253.874 107.326 255.821 108.68C257.767 110.034 257.807 113.344 257.807 113.344Z" fill="white"/>
<path d="M253.928 134.356C253.928 134.356 252.203 134.401 249.618 134.508C248.326 134.57 246.818 134.641 245.203 134.718C243.589 134.815 241.866 134.916 240.144 135.018L239.498 135.057L239.337 135.067L239.297 135.069L239.117 135.085L239.037 135.097L238.719 135.144L238.083 135.242L238.043 135.248L237.888 135.275L237.868 135.281L237.79 135.301L237.635 135.338L237.325 135.415C236.501 135.619 235.689 135.82 234.905 136.014C234.12 136.212 233.359 136.389 232.643 136.582C231.925 136.771 231.247 136.949 230.622 137.114C229.368 137.436 228.33 137.736 227.601 137.936C226.874 138.144 226.459 138.263 226.459 138.263L226.98 140.599C226.98 140.599 227.406 140.53 228.153 140.41C228.897 140.281 229.964 140.111 231.235 139.869C231.872 139.752 232.561 139.625 233.291 139.491C234.021 139.362 234.786 139.199 235.58 139.044C236.373 138.887 237.193 138.723 238.025 138.557L238.338 138.494L238.494 138.463L238.573 138.447L238.593 138.443C238.626 138.437 238.342 138.488 238.467 138.466L238.477 138.465L238.517 138.46L239.155 138.386L239.475 138.346L239.555 138.335H239.565C239.599 138.331 239.308 138.358 239.436 138.347L239.457 138.345L239.497 138.344L239.658 138.337L240.304 138.313C242.028 138.246 243.751 138.177 245.367 138.115C246.981 138.033 248.489 137.957 249.781 137.89C252.364 137.744 254.085 137.619 254.085 137.619L253.928 134.356Z" fill="#F7B75D"/>
<path d="M253.362 135.454C253.362 135.145 253.111 134.895 252.802 134.895H232.54C232.115 134.895 231.768 135.146 231.768 135.454C231.768 135.763 232.116 136.015 232.54 136.015H252.802C253.111 136.014 253.362 135.763 253.362 135.454Z" fill="#61C8E0"/>
<path d="M254.157 135.454C254.157 135.763 253.886 136.015 253.553 136.015H245.859C245.528 136.015 245.256 135.763 245.256 135.454C245.256 135.146 245.527 134.895 245.859 134.895H253.553C253.886 134.895 254.157 135.146 254.157 135.454Z" fill="white"/>
<path d="M231.801 124.41V134.628C231.801 135.083 232.17 135.452 232.625 135.452H246.105C246.56 135.452 246.929 135.083 246.929 134.628V124.41C246.929 123.955 246.56 123.586 246.105 123.586H232.625C232.17 123.585 231.801 123.955 231.801 124.41Z" fill="white"/>
<path d="M231.172 124.41V134.628C231.172 135.083 231.541 135.452 231.996 135.452H245.476C245.931 135.452 246.3 135.083 246.3 134.628V124.41C246.3 123.955 245.931 123.586 245.476 123.586H231.996C231.541 123.585 231.172 123.955 231.172 124.41Z" fill="white"/>
<path d="M240.959 129.518C240.959 129.039 240.57 128.649 240.09 128.649H237.382C236.903 128.649 236.513 129.039 236.513 129.518C236.513 129.998 236.903 130.387 237.382 130.387H240.09C240.57 130.387 240.959 129.999 240.959 129.518Z" fill="#21899C"/>
<path d="M256.938 123.413C255.837 123.413 255.144 124.037 254.845 124.827C254.506 124.13 254.157 123.513 253.874 123.079C253.43 122.399 253.623 121.483 254.305 121.038C254.544 120.882 254.823 120.8 255.109 120.8C255.61 120.8 256.072 121.05 256.345 121.468C256.558 121.795 257.01 122.522 257.489 123.474C257.317 123.435 257.135 123.413 256.938 123.413Z" fill="#61C8E0"/>
<path d="M247.399 131.969C247.175 132.475 247.154 133.019 247.299 133.51L250.428 134.895C250.89 134.671 251.279 134.291 251.502 133.785C252.003 132.651 251.49 131.327 250.357 130.825C249.226 130.325 247.9 130.836 247.399 131.969Z" fill="#F99AB6"/>
<path d="M144.062 200.377C146.167 200.377 147.874 198.67 147.874 196.565C147.874 194.46 146.167 192.753 144.062 192.753C141.957 192.753 140.25 194.46 140.25 196.565C140.25 198.67 141.957 200.377 144.062 200.377Z" fill="#35A6B4"/>
<path d="M144.062 197.791C145.453 197.791 146.581 196.663 146.581 195.272C146.581 193.881 145.453 192.753 144.062 192.753C142.671 192.753 141.543 193.881 141.543 195.272C141.543 196.663 142.671 197.791 144.062 197.791Z" fill="#35A6B4"/>
<path d="M91.4253 200.377C93.5306 200.377 95.2372 198.67 95.2372 196.565C95.2372 194.46 93.5306 192.753 91.4253 192.753C89.32 192.753 87.6133 194.46 87.6133 196.565C87.6133 198.67 89.32 200.377 91.4253 200.377Z" fill="#35A6B4"/>
<path d="M91.4253 197.791C92.8165 197.791 93.9442 196.663 93.9442 195.272C93.9442 193.881 92.8165 192.753 91.4253 192.753C90.0341 192.753 88.9062 193.881 88.9062 195.272C88.9062 196.663 90.0341 197.791 91.4253 197.791Z" fill="#35A6B4"/>
<path d="M128.473 130.804C130.578 130.804 132.285 129.097 132.285 126.992C132.285 124.887 130.578 123.18 128.473 123.18C126.368 123.18 124.661 124.887 124.661 126.992C124.661 129.097 126.368 130.804 128.473 130.804Z" fill="#35A6B4"/>
<path d="M128.473 128.218C129.864 128.218 130.992 127.09 130.992 125.699C130.992 124.308 129.864 123.18 128.473 123.18C127.082 123.18 125.954 124.308 125.954 125.699C125.954 127.09 127.082 128.218 128.473 128.218Z" fill="#35A6B4"/>
<path d="M128.473 131.803C125.821 131.803 123.662 129.645 123.662 126.991C123.662 124.337 125.82 122.179 128.473 122.179C131.126 122.179 133.285 124.337 133.285 126.991C133.285 129.645 131.126 131.803 128.473 131.803ZM128.473 124.18C126.923 124.18 125.662 125.442 125.662 126.992C125.662 128.542 126.923 129.804 128.473 129.804C130.023 129.804 131.285 128.542 131.285 126.992C131.285 125.442 130.023 124.18 128.473 124.18Z" fill="#61C8E0"/>
<path d="M134.213 212.215H101.85C95.5498 212.215 90.4248 207.09 90.4248 200.79V195.626C90.4248 195.073 90.8728 194.626 91.4248 194.626C91.9768 194.626 92.4248 195.073 92.4248 195.626V200.79C92.4248 205.987 96.6528 210.215 101.85 210.215H134.213C139.092 210.215 143.062 206.245 143.062 201.366V195.626C143.062 195.073 143.51 194.626 144.062 194.626C144.614 194.626 145.062 195.073 145.062 195.626V201.366C145.062 207.349 140.195 212.215 134.213 212.215Z" fill="#61C8E0"/>
<path d="M144.063 197.565H138.324C132.342 197.565 127.474 192.698 127.474 186.715V126.991C127.474 126.438 127.922 125.991 128.474 125.991C129.026 125.991 129.474 126.438 129.474 126.991V186.715C129.474 191.595 133.444 195.565 138.324 195.565H144.063C144.615 195.565 145.063 196.012 145.063 196.565C145.063 197.118 144.615 197.565 144.063 197.565Z" fill="#61C8E0"/>
<path d="M233.569 221.436H201.205C195.223 221.436 190.356 216.57 190.356 210.587V205.785C190.356 205.232 190.804 204.785 191.356 204.785C191.908 204.785 192.356 205.232 192.356 205.785V210.587C192.356 215.466 196.325 219.436 201.205 219.436H233.569C238.765 219.436 242.993 215.208 242.993 210.011V172.985C242.993 172.432 243.441 171.985 243.993 171.985C244.545 171.985 244.993 172.432 244.993 172.985V210.011C244.993 216.311 239.869 221.436 233.569 221.436Z" fill="#61C8E0"/>
<path d="M197.096 206.786H191.357C190.805 206.786 190.357 206.339 190.357 205.786C190.357 205.233 190.805 204.786 191.357 204.786H197.096C201.976 204.786 205.946 200.816 205.946 195.936V100.698C205.946 100.146 206.394 99.698 206.946 99.698C207.498 99.698 207.946 100.146 207.946 100.698V195.936C207.945 201.918 203.078 206.786 197.096 206.786Z" fill="#61C8E0"/>
<path d="M297.926 227.492H61.9258C61.0968 227.492 60.4258 226.82 60.4258 225.992C60.4258 225.164 61.0968 224.492 61.9258 224.492H297.926C298.755 224.492 299.426 225.164 299.426 225.992C299.426 226.82 298.754 227.492 297.926 227.492Z" fill="#21899C"/>
<path d="M149.636 175.083C149.456 174.606 145.238 163.331 145.238 156.429H147.742C147.742 162.874 151.937 174.087 151.98 174.2L149.636 175.083Z" fill="#F99AB6"/>
<path d="M138.641 165.817L134.445 158.786C134.269 158.491 134.221 158.137 134.315 157.806C134.408 157.476 134.633 157.197 134.937 157.036L141.675 153.493L142.84 155.71L137.272 158.638L140.792 164.534L138.641 165.817Z" fill="#F99AB6"/>
<path d="M150.796 131.094C150.796 131.094 149.145 129.099 148.397 128.456C147.029 127.28 145.899 128.58 145.899 128.58C139.087 127.533 137.807 137.263 140.911 139.687C143.425 141.652 145.524 140.298 145.524 140.298C145.524 140.298 146.942 141.356 149.115 141.69C150.459 141.896 152.083 141.013 152.083 141.013C152.083 141.013 153.984 142.372 155.441 140.363C156.897 138.352 154.743 136.222 153.598 136.201C153.598 136.201 154.968 134.551 153.089 133.455C152.347 133.024 150.796 131.094 150.796 131.094Z" fill="#61C8E0"/>
<path d="M142.371 143.182C141.913 142.95 141.542 142.254 142.09 141.618C142.631 140.992 143.464 140.645 144.357 140.61L144.587 140.602C145.378 140.572 146.096 140.916 146.572 141.475C146.193 142.651 143.613 143.658 142.371 143.182Z" fill="#F99AB6"/>
<path d="M143.75 138.813L143.729 139.823L143.692 141.72L145.149 141.746L145.194 139.322L145.214 138.382C144.774 138.678 144.272 138.836 143.75 138.813Z" fill="#F99AB6"/>
<path d="M143.75 138.813L143.729 139.823C144.246 139.747 144.873 139.516 145.198 139.135L145.215 138.382C144.775 138.678 144.272 138.836 143.75 138.813Z" fill="#F99AB6"/>
<path d="M142.938 138.812C144.17 139.432 145.563 139.392 146.711 138.825C147.506 138.433 148.185 137.788 148.614 136.936L149.361 135.451C149.903 134.372 149.94 133.171 149.561 132.118C149.207 131.136 148.491 130.281 147.484 129.774C146.818 129.44 146.107 129.297 145.412 129.327C143.929 129.389 142.522 130.231 141.808 131.651L141.061 133.135C140.373 134.502 140.497 136.064 141.25 137.274C141.647 137.911 142.219 138.45 142.938 138.812Z" fill="#F99AB6"/>
<path d="M147.605 134.436C144.572 134.928 144.238 131.659 144.411 130.313C144.772 127.5 148.447 128.042 149.733 129.442C150.53 130.309 151.946 132.659 151.335 135.578C150.725 138.497 147.746 140.311 147.746 140.311C144.472 137.911 147.854 135.612 147.854 135.612L147.605 134.436Z" fill="#61C8E0"/>
<path d="M144.944 158.227C147.159 158.227 148.956 156.431 148.956 154.215C148.956 151.999 147.159 150.203 144.944 150.203C142.728 150.203 140.932 151.999 140.932 154.215C140.932 156.431 142.728 158.227 144.944 158.227Z" fill="#F7B75D"/>
<path d="M143.27 136.51C142.947 136.934 142.358 137.083 141.864 136.834C141.37 136.586 141.139 136.024 141.287 135.512L143.27 136.51Z" fill="#FFFEFF"/>
<path d="M138.074 155.362C143.375 159.959 149.948 162.213 149.948 162.213C149.948 162.213 151.069 155.487 148.588 152.574C147.342 151.112 140.931 153.237 140.931 153.237L138.074 155.362Z" fill="#F7B75D"/>
<path d="M140.24 143.854C139.966 144.61 140.73 145.374 141.53 145.461C142.329 145.548 143.049 144.971 143.136 144.171C143.223 143.371 142.032 141.619 141.581 142.286C141.153 142.922 140.476 143.207 140.24 143.854Z" fill="#F7B75D"/>
<path d="M146.572 141.475C146.918 141.88 147.138 142.397 147.165 142.969C147.165 142.969 146.806 149.559 148.612 152.594C149.389 153.9 140.909 153.864 140.909 153.864L141.137 144.116C141.091 143.149 141.463 142.261 142.09 141.618C142.127 143.088 145.15 141.32 146.572 141.475Z" fill="#F7B75D"/>
<path d="M145.297 143.879C143.79 143.879 133.635 143.402 127.986 130.883L130.268 129.852C135.534 141.522 144.978 141.386 145.383 141.373L145.469 143.876C145.444 143.877 145.386 143.879 145.297 143.879Z" fill="#F7B75D"/>
<path d="M130.202 127.844C129.751 127.566 129.238 127.475 128.752 127.549L127.03 130.34C127.182 130.807 127.494 131.225 127.945 131.504C128.956 132.127 130.28 131.813 130.903 130.803C131.527 129.792 131.213 128.467 130.202 127.844Z" fill="#F99AB6"/>
<path d="M140.713 167.663C141.614 167.663 142.345 166.932 142.345 166.031C142.345 165.13 141.614 164.399 140.713 164.399C139.812 164.399 139.081 165.13 139.081 166.031C139.081 166.932 139.812 167.663 140.713 167.663Z" fill="#61C8E0"/>
<path d="M135.222 169.366L141.151 167.604C141.778 167.418 142.134 166.759 141.949 166.132C141.762 165.506 140.541 164.379 139.914 164.566L134.683 167.962C134.106 168.337 134.252 169.259 134.93 169.377C135.029 169.395 135.128 169.393 135.222 169.366Z" fill="#61C8E0"/>
<path d="M151.082 177.105C151.984 177.105 152.714 176.374 152.714 175.473C152.714 174.572 151.984 173.841 151.082 173.841C150.181 173.841 149.45 174.572 149.45 175.473C149.45 176.374 150.181 177.105 151.082 177.105Z" fill="#61C8E0"/>
<path d="M147.166 180.566L152.058 176.782C152.576 176.382 152.67 175.639 152.271 175.122C151.871 174.604 150.325 173.996 149.807 174.395L146.156 179.454C145.754 180.012 146.223 180.818 146.898 180.683C146.997 180.663 147.089 180.625 147.166 180.566Z" fill="#61C8E0"/>
<path d="M143.589 153.058C142.948 153.058 142.257 152.995 141.529 152.838L141.604 152.488C145.028 153.224 147.692 151.76 147.718 151.746L147.894 152.058C147.805 152.109 146.082 153.058 143.589 153.058Z" fill="#F7A93E"/>
<path d="M164.765 226.344C164.253 226.344 163.749 226.109 163.424 225.663L157.682 217.804C157.235 217.193 157.259 216.356 157.741 215.771L165.245 206.659C165.828 205.951 166.873 205.851 167.58 206.432C168.287 207.014 168.389 208.06 167.807 208.767L161.121 216.886L166.103 223.706C166.643 224.446 166.482 225.483 165.742 226.024C165.446 226.241 165.103 226.344 164.765 226.344Z" fill="#32B3C2"/>
<path d="M175.786 226.33C175.446 226.33 175.103 226.226 174.807 226.01C174.068 225.469 173.908 224.431 174.449 223.692L179.453 216.854L172.794 208.756C172.212 208.049 172.314 207.004 173.022 206.422C173.729 205.839 174.775 205.943 175.356 206.649L182.834 215.741C183.315 216.327 183.339 217.164 182.892 217.775L177.127 225.651C176.801 226.094 176.297 226.33 175.786 226.33Z" fill="#32B3C2"/>
<path d="M165.899 196.5C165.899 199.143 168.042 201.285 170.685 201.285C173.328 201.285 175.471 199.142 175.471 196.5C175.471 193.856 173.327 192.654 170.685 192.654C168.042 192.654 165.899 193.856 165.899 196.5Z" fill="#61C8E0"/>
<path d="M168.932 202.378L168.943 206.93L168.953 209.906L172.441 209.898L172.266 202.621L172.216 200.55L168.932 202.378Z" fill="#F99AB6"/>
<path d="M165.256 209.511C165.268 208.09 166.495 206.716 167.767 206.055C169.669 205.065 172.605 205.754 173.54 206.311C175.132 207.258 176.08 209.183 175.969 211.162L176.08 221.776H164.809C164.809 221.776 165.229 212.741 165.256 209.511Z" fill="#32B3C2"/>
<path d="M172.943 206.041C171.555 205.457 169.597 205.265 168.015 205.943L169.187 207.115C169.927 207.855 171.128 207.855 171.87 207.115C172.228 206.756 172.585 206.398 172.943 206.041Z" fill="#F99AB6"/>
<path d="M169.777 193.76H171.592C173.196 193.76 174.698 195.074 174.497 196.665C174.351 197.824 174.497 198.694 174.497 200.414C174.497 201.856 172.808 204.653 171.366 204.653H170.003C168.561 204.653 166.871 201.856 166.871 200.414C166.871 198.694 167.017 197.824 166.871 196.665C166.672 195.075 168.173 193.76 169.777 193.76Z" fill="#F99AB6"/>
<path d="M172.156 202.062C172.026 202.757 171.418 203.283 170.685 203.283C169.952 203.283 169.344 202.758 169.213 202.062H172.156Z" fill="#FFFEFF"/>
<path d="M172.254 231.927H168.633C166.03 231.927 164.079 229.546 164.59 226.995L164.809 221.775H176.079L176.297 226.995C176.808 229.546 174.856 231.927 172.254 231.927Z" fill="#35A6B4"/>
<path d="M153.95 226.103L169.34 224.636L169.779 229.245L154.389 230.712C153.128 230.833 152.009 229.908 151.889 228.648L151.885 228.603C151.766 227.342 152.689 226.224 153.95 226.103Z" fill="#35A6B4"/>
<path d="M184.673 226.103L169.283 224.636L168.844 229.245L184.234 230.712C185.495 230.833 186.613 229.908 186.733 228.648L186.738 228.603C186.857 227.342 185.934 226.224 184.673 226.103Z" fill="#35A6B4"/>
<path d="M176.468 229.232H164.42C163.801 229.232 163.299 228.73 163.299 228.111V220.125C163.299 219.506 163.801 219.004 164.42 219.004H176.468C177.087 219.004 177.589 219.506 177.589 220.125V228.111C177.589 228.73 177.087 229.232 176.468 229.232Z" fill="white"/>
<path d="M176.468 229.707H164.42C163.801 229.707 163.299 229.205 163.299 228.586V220.6C163.299 219.981 163.801 219.479 164.42 219.479H176.468C177.087 219.479 177.589 219.981 177.589 220.6V228.586C177.589 229.205 177.087 229.707 176.468 229.707Z" fill="#21899C"/>
<path d="M172.093 225.444H168.793C168.327 225.444 167.949 225.066 167.949 224.601V224.583C167.949 224.117 168.327 223.739 168.793 223.739H172.093C172.56 223.739 172.937 224.117 172.937 224.583V224.601C172.937 225.066 172.56 225.444 172.093 225.444Z" fill="white"/>
<path d="M164.377 233.933L168.861 233.664L168.847 233.747C168.804 234.008 169.009 234.243 169.274 234.235C169.475 234.23 169.645 234.083 169.678 233.883L169.722 233.612L170.227 233.581L170.206 233.71C170.163 233.972 170.368 234.206 170.633 234.2C170.834 234.194 171.004 234.046 171.036 233.846L171.089 233.53L173.909 233.36C173.97 233.339 174.027 233.307 174.083 233.27C174.193 233.246 174.304 233.217 174.413 233.178C175.711 232.707 176.383 231.276 175.913 229.977C175.443 228.68 174.011 228.008 172.713 228.477C172.703 228.481 172.694 228.486 172.686 228.489C172.681 228.491 172.675 228.491 172.671 228.493L163.767 231.715C163.626 231.766 163.503 231.854 163.396 231.966C162.668 232.728 163.326 233.998 164.377 233.933Z" fill="white"/>
<path d="M173.58 233.939C174.96 233.939 176.079 232.82 176.079 231.44C176.079 230.06 174.96 228.941 173.58 228.941C172.2 228.941 171.081 230.06 171.081 231.44C171.081 232.82 172.2 233.939 173.58 233.939Z" fill="#F7B75D"/>
<path d="M163.783 232.326L172.686 229.105C173.627 228.765 174.666 229.251 175.007 230.193C175.347 231.134 174.866 233.631 173.925 233.972L164.392 234.544C163.341 234.607 162.684 233.339 163.411 232.577C163.519 232.465 163.643 232.377 163.783 232.326Z" fill="#F7B75D"/>
<path d="M170.783 233.015C171.048 233.007 171.253 233.243 171.21 233.503L171.053 234.458C171.021 234.657 170.851 234.806 170.649 234.811C170.385 234.818 170.18 234.583 170.222 234.322L170.38 233.367C170.412 233.167 170.582 233.02 170.783 233.015Z" fill="white"/>
<path d="M169.425 233.05C169.69 233.044 169.895 233.279 169.852 233.54L169.695 234.495C169.663 234.694 169.493 234.842 169.292 234.847C169.027 234.855 168.822 234.618 168.865 234.359L169.022 233.404C169.054 233.205 169.224 233.056 169.425 233.05Z" fill="white"/>
<path d="M183.735 227.074L173.338 229.872C172.339 230.141 171.746 231.169 172.016 232.168L172.026 232.205C172.295 233.205 173.323 233.797 174.322 233.527L184.719 230.73C185.718 230.461 186.311 229.433 186.042 228.433L186.032 228.398C185.763 227.398 184.734 226.806 183.735 227.074Z" fill="#F99AB6"/>
<path d="M174.244 233.933L169.761 233.664L169.774 233.747C169.817 234.008 169.612 234.243 169.347 234.235C169.145 234.23 168.976 234.083 168.943 233.883L168.899 233.612L168.394 233.581L168.415 233.71C168.458 233.972 168.253 234.206 167.988 234.2C167.787 234.194 167.617 234.046 167.584 233.846L167.532 233.53L164.712 233.36C164.652 233.339 164.594 233.307 164.537 233.27C164.427 233.246 164.317 233.217 164.209 233.178C162.911 232.707 162.239 231.276 162.709 229.977C163.179 228.68 164.61 228.008 165.908 228.477C165.918 228.481 165.928 228.486 165.936 228.489C165.941 228.491 165.946 228.491 165.951 228.493L174.853 231.715C174.995 231.766 175.118 231.854 175.225 231.966C175.953 232.728 175.295 233.998 174.244 233.933Z" fill="white"/>
<path d="M165.042 233.939C166.422 233.939 167.541 232.82 167.541 231.44C167.541 230.06 166.422 228.941 165.042 228.941C163.662 228.941 162.543 230.06 162.543 231.44C162.543 232.82 163.662 233.939 165.042 233.939Z" fill="#F7B75D"/>
<path d="M174.839 232.326L165.935 229.105C164.995 228.765 163.956 229.251 163.615 230.193C163.274 231.134 163.756 233.631 164.697 233.972L174.229 234.544C175.28 234.607 175.938 233.339 175.211 232.577C175.103 232.465 174.979 232.377 174.839 232.326Z" fill="#F7B75D"/>
<path d="M167.839 233.015C167.574 233.007 167.369 233.243 167.412 233.503L167.569 234.458C167.601 234.657 167.771 234.806 167.972 234.811C168.237 234.818 168.442 234.583 168.399 234.322L168.242 233.367C168.21 233.167 168.04 233.02 167.839 233.015Z" fill="white"/>
<path d="M169.197 233.05C168.932 233.044 168.727 233.279 168.77 233.54L168.926 234.495C168.959 234.694 169.129 234.842 169.33 234.847C169.595 234.855 169.8 234.618 169.757 234.359L169.6 233.404C169.568 233.205 169.398 233.056 169.197 233.05Z" fill="white"/>
<path d="M154.888 227.074L165.284 229.872C166.283 230.141 166.877 231.169 166.607 232.168L166.596 232.205C166.327 233.205 165.299 233.797 164.299 233.527L153.903 230.73C152.903 230.461 152.312 229.433 152.581 228.433L152.591 228.398C152.86 227.398 153.889 226.806 154.888 227.074Z" fill="#F99AB6"/>
<path d="M170.975 191.909C175.337 191.909 175.259 196.586 175.259 196.586C170.687 197.463 168.932 194.222 168.932 193.589C168.932 193.589 169.41 191.909 170.975 191.909Z" fill="#61C8E0"/>
<path d="M168.707 192.939C165.223 192.476 166.014 197.048 166.014 197.048C168.314 196.604 169.674 194.734 169.594 194.319L168.707 192.939Z" fill="#61C8E0"/>
</svg>
