<svg width="356" height="298" viewBox="0 0 356 298" fill="none" xmlns="http://www.w3.org/2000/svg">
<path d="M176.707 286.789C251.178 286.789 311.548 226.419 311.548 151.948C311.548 77.4773 251.178 17.1069 176.707 17.1069C102.237 17.1069 41.8662 77.4773 41.8662 151.948C41.8662 226.419 102.237 286.789 176.707 286.789Z" fill="#C2F3FF"/>
<path d="M70.663 229.983H126.006C131.711 229.983 136.336 234.608 136.336 240.313C136.336 246.018 131.711 250.643 126.006 250.643H70.663C64.958 250.643 60.333 246.018 60.333 240.313C60.333 234.608 64.958 229.983 70.663 229.983Z" fill="#C2F3FF"/>
<path d="M57.3337 270.712H139.334C143.031 270.712 146.029 273.71 146.029 277.407C146.029 281.105 143.031 284.102 139.334 284.102H57.3337C53.6357 284.102 50.6387 281.105 50.6387 277.407C50.6387 273.71 53.6357 270.712 57.3337 270.712Z" fill="#C2F3FF"/>
<path d="M236.043 284.102H249.347C252.826 284.102 255.647 286.922 255.647 290.401V291.194C255.647 294.673 252.827 297.493 249.347 297.493H236.043C232.564 297.493 229.744 294.673 229.744 291.194V290.401C229.744 286.923 232.563 284.102 236.043 284.102Z" fill="#C2F3FF"/>
<path d="M230.223 244.496H291.156C297.221 244.496 302.138 249.413 302.138 255.478C302.138 261.543 297.221 266.46 291.156 266.46H230.223C224.158 266.46 219.241 261.543 219.241 255.478C219.241 249.413 224.158 244.496 230.223 244.496Z" fill="#C2F3FF"/>
<path d="M80.2031 250.493H118.762C115.913 250.493 113.324 251.725 111.458 253.591C109.584 255.465 108.426 257.678 108.426 260.534C108.426 266.239 113.057 270.493 118.762 270.493H80.2031C83.0511 270.493 85.6331 269.737 87.5061 267.88C89.3721 266.015 90.5291 263.555 90.5291 260.698C90.5291 254.985 85.9071 250.493 80.2031 250.493Z" fill="#C2F3FF"/>
<path d="M231.362 132.533H330.767C341.014 132.533 349.322 140.841 349.322 151.088C349.322 161.335 341.014 169.643 330.767 169.643H231.362C221.115 169.643 212.808 161.335 212.808 151.088C212.808 140.841 221.115 132.533 231.362 132.533Z" fill="#C2F3FF"/>
<path d="M195.965 205.69H343.251C349.893 205.69 355.276 211.074 355.276 217.715C355.276 224.357 349.891 229.74 343.25 229.74H195.965C189.323 229.74 183.939 224.356 183.939 217.715C183.939 211.074 189.324 205.69 195.965 205.69Z" fill="#C2F3FF"/>
<path d="M260.69 169.558H329.948C324.832 169.558 320.18 171.594 316.829 174.985C313.464 178.392 311.385 182.403 311.385 187.597C311.385 197.969 319.701 205.69 329.948 205.69H260.69C265.805 205.69 270.443 204.226 273.808 200.849C277.159 197.457 279.238 193.145 279.238 187.952C279.238 177.565 270.936 169.558 260.69 169.558Z" fill="#C2F3FF"/>
<path d="M148.278 116.398H31.7957C20.9157 116.398 12.0957 107.579 12.0957 96.699C12.0957 85.819 20.9157 76.999 31.7957 76.999H148.276C159.157 76.999 167.976 85.819 167.976 96.699C167.977 107.579 159.158 116.398 148.278 116.398Z" fill="#C2F3FF"/>
<path d="M196.794 230.454H28.468C12.745 230.454 0 217.708 0 201.985C0 186.263 12.745 173.517 28.468 173.517H196.793C212.516 173.517 225.261 186.263 225.261 201.985C225.261 217.707 212.516 230.454 196.794 230.454Z" fill="#C2F3FF"/>
<path d="M292.04 71.14H199.109C190.428 71.14 183.392 64.103 183.392 55.423C183.392 46.742 190.428 39.7061 199.109 39.7061H292.04C300.721 39.7061 307.757 46.742 307.757 55.423C307.756 64.102 300.72 71.14 292.04 71.14Z" fill="#C2F3FF"/>
<path d="M160.617 44.311H89.9819C82.7009 44.311 76.7979 38.409 76.7979 31.126C76.7979 23.845 82.6999 17.942 89.9819 17.942H160.617C167.898 17.942 173.802 23.844 173.802 31.126C173.801 38.409 167.898 44.311 160.617 44.311Z" fill="#C2F3FF"/>
<path d="M263.453 17.107H241.385C236.661 17.107 232.832 13.278 232.832 8.55298C232.832 3.82898 236.661 0 241.385 0H263.453C268.178 0 272.007 3.82898 272.007 8.55298C272.006 13.277 268.177 17.107 263.453 17.107Z" fill="#C2F3FF"/>
<path d="M148.281 213.939C148.281 208.618 148.281 200.902 148.281 200.902H133.946H119.611C119.611 200.902 119.611 208.618 119.611 213.939C119.611 219.259 100.117 223.567 100.117 223.567H133.946H167.774C167.774 223.567 148.281 219.26 148.281 213.939Z" fill="white"/>
<path d="M198.938 111.85H68.954C66.7 111.85 64.873 113.72 64.873 116.027V198.511H203.019V116.027C203.018 113.72 201.192 111.85 198.938 111.85Z" fill="white"/>
<path d="M196.552 117.989H71.5039V192.321H196.552V117.989Z" fill="#35A6B4"/>
<path d="M64.873 198.243V203.05C64.873 205.357 66.7 207.226 68.954 207.226H198.938C201.192 207.226 203.018 205.357 203.018 203.05V198.243H64.873Z" fill="#8EDEF2"/>
<path fill-rule="evenodd" clip-rule="evenodd" d="M89.9234 192.16V182.929H94.9364V189.228H97.0844V192.16H100.76V190.609H105.009V192.16H108.876V190.264L117.781 184.223L124.823 190.264L140.387 186.122L149.419 180.219L157.001 190.264V192.16H158.868L164.494 190.596L167.902 192.16H169.414L171.626 189.141V182.554H176.886V192.16H183.078V169.001L175.634 161.187V169.811H169.592V180.857H167.811V145.383H159.861V159.787L146.843 165.012V176.715H145.74L145.521 151.61H137.488V146.475L126.959 133.92V149.967H124.298V142.823H117.75V132.145H114.679V128.846H103.652V124.522H97.0814V149.187H83.0244V192.16H89.9234Z" fill="#8EDEF2"/>
<path d="M164.967 147.906H162.77V156.749H164.967V147.906Z" fill="#21899C"/>
<path d="M164.967 163.464H162.77V172.307H164.967V163.464Z" fill="#21899C"/>
<path d="M126.743 151.631H124.546V157.006H126.743V151.631Z" fill="#21899C"/>
<path d="M126.743 158.659H124.546V164.034H126.743V158.659Z" fill="#21899C"/>
<g opacity="0.45">
<path d="M112.638 134.959H104.866V140.335H112.638V134.959Z" fill="#21899C"/>
</g>
<g opacity="0.45">
<path d="M112.638 142.166H104.866V147.541H112.638V142.166Z" fill="#21899C"/>
</g>
<g opacity="0.45">
<path d="M112.638 149.372H104.866V154.747H112.638V149.372Z" fill="#21899C"/>
</g>
<path d="M126.743 166.877H124.546V172.252H126.743V166.877Z" fill="#21899C"/>
<path d="M126.743 175.096H124.546V180.471H126.743V175.096Z" fill="#21899C"/>
<path d="M154.669 167.729H149.805V171.974H154.669V167.729Z" fill="#21899C"/>
<path d="M154.669 175.198H149.805V179.443H154.669V175.198Z" fill="#21899C"/>
<path d="M142.84 156.937H136.06V158.666H142.84V156.937Z" fill="#21899C"/>
<path d="M142.84 160.462H136.06V162.191H142.84V160.462Z" fill="#21899C"/>
<path d="M142.84 163.985H136.06V165.714H142.84V163.985Z" fill="#21899C"/>
<path d="M142.84 167.509H136.06V169.238H142.84V167.509Z" fill="#21899C"/>
<path d="M142.84 171.032H136.06V172.761H142.84V171.032Z" fill="#21899C"/>
<path d="M142.84 174.557H136.06V176.286H142.84V174.557Z" fill="#21899C"/>
<path d="M142.84 178.08H136.06V179.809H142.84V178.08Z" fill="#21899C"/>
<path d="M96.3504 151.096H86.8164V152.825H96.3504V151.096Z" fill="#21899C"/>
<path d="M96.3504 154.619H86.8164V156.348H96.3504V154.619Z" fill="#21899C"/>
<path d="M96.3504 158.224H86.8164V159.953H96.3504V158.224Z" fill="#21899C"/>
<path d="M96.3504 161.747H86.8164V163.476H96.3504V161.747Z" fill="#21899C"/>
<path d="M179.984 187.513V176.783H174.724V183.633H172.33V188.303L167.873 184.143L164.126 185.443V186.823H160.848V184.113L157.996 182.353L152.128 178.753L144.36 183.543H128.306L120.538 178.753L114.396 182.523L111.818 184.113V186.823H108.542V185.443L104.794 184.143L100.337 188.303V183.633H97.9417V176.783H92.6827V187.513H88.3857V192.313H184.281V187.513H179.984Z" fill="#C2F3FF"/>
<path d="M146.251 185.954H127.118C122.598 185.954 118.934 182.29 118.934 177.77C118.934 173.25 122.598 169.586 127.118 169.586H146.251C150.771 169.586 154.435 173.25 154.435 177.77C154.435 182.29 150.771 185.954 146.251 185.954Z" fill="#8EDEF2"/>
<path d="M221.903 158.563C222.652 136.467 241.148 119.153 263.249 119.823C263.297 119.824 263.346 119.824 263.395 119.826C285.559 120.577 302.919 139.137 302.169 161.281C301.419 183.425 282.843 200.769 260.679 200.018C260.63 200.017 260.582 200.013 260.533 200.011C238.438 199.184 221.155 180.659 221.903 158.563Z" fill="#21899C"/>
<path d="M269.162 196.498C268.901 196.172 268.685 195.825 268.504 195.47C268.67 193.722 269.44 192.007 270.239 190.366C270.506 189.819 270.776 189.28 271.028 188.751C273.058 185.375 273.026 183.26 271.847 181.755C271.552 181.378 271.186 181.04 270.762 180.731C270.229 180.533 269.675 180.336 269.113 180.136C268.55 179.935 267.976 179.731 267.403 179.517C266.702 179.421 266.06 179.281 265.473 179.101C256.348 176.934 263.61 169.672 265.184 163.913C265.401 163.458 265.594 163.055 265.823 162.698C266.51 161.63 267.52 160.988 270.49 160.676C270.89 160.634 271.329 160.623 271.789 160.613C272.544 160.61 273.223 160.507 273.841 160.329C274.459 160.152 275.017 159.901 275.529 159.603C275.854 158.819 276.253 158.19 276.706 157.683C277.102 157.24 277.539 156.889 278.006 156.61C278.472 156.331 278.967 156.123 279.479 155.964C281.766 153.333 285.397 156.964 287.763 153.687C287.804 153.351 287.771 152.879 287.428 152.417C287.085 151.955 286.434 151.502 285.24 151.204C283.797 150.845 282.641 150.619 281.711 150.438C279.282 149.963 278.062 147.911 275.615 146.08C273.99 144.864 272.868 143.686 272.116 142.772C271.634 141.751 271.478 140.774 268.925 139.543C265.465 137.874 262.392 141.848 260.764 139.565C260.281 138.887 260.984 137.801 261.276 137.196C261.86 135.98 262.013 134.681 262.823 133.57C263.087 133.208 263.382 133.029 263.691 132.917C263.691 132.917 264.944 132.678 265.413 132.345C266.39 131.65 267.78 131.289 268.994 131.405C269.093 131.415 269.182 131.438 269.275 131.456L269.28 131.455L269.283 131.457C271.317 131.851 271.409 135.159 273.897 135.159C276.866 135.159 276.497 132.302 275.441 131.918C274.375 131.281 273.353 131.723 272.226 131.723C270.949 131.723 268.287 130.551 267.872 130.604C267.204 130.689 266.307 131.078 265.65 131.203L263.718 131.403C262.901 131.378 260.801 128.466 263.096 127.048C263.793 126.615 267.035 125.955 267.035 125.955C267.935 125.909 268.868 123.65 269.875 123.82C270.613 123.945 271.825 125.749 275.702 125.949C276.564 125.993 282.704 124.496 282.578 126.951C282.552 127.472 283.223 127.924 283.695 127.859C284.549 127.776 285.341 127.838 286.172 127.901C279.809 123.099 271.984 120.117 263.431 119.827C263.401 119.826 263.37 119.826 263.34 119.825C253.436 119.512 244.25 122.849 237.054 128.606C237.785 129.177 238.589 129.664 239.489 129.888C239.789 129.963 240.055 130.282 240.031 130.6C239.917 132.078 237.231 132.31 238.117 135.371C238.489 136.655 240.487 136.962 241.78 137.344C242.384 137.522 243.089 137.767 243.278 138.455C243.634 139.75 244.737 140.51 245.078 140.627C245.324 140.711 245.539 140.826 245.735 140.955L246.355 141.539C246.719 142.038 246.873 142.673 246.752 143.395C246.466 145.127 244.678 145.227 243.324 144.745C243.324 144.745 242.741 144.499 242.627 144.432C242.529 144.374 242.448 144.308 242.367 144.242C242.171 144.127 241.996 143.967 241.842 143.768L241.571 143.571L239.694 140.953C239.694 140.953 237.721 139.756 236.934 141.066C236.713 141.433 236.392 141.776 236.049 141.987C235.704 142.213 232.698 143.131 233.381 142.32C233.763 141.866 234.224 141.162 233.172 140.507C232.176 139.887 231.234 141.136 230.751 142.517C230.39 143.551 229.217 141.331 227.945 142.158C227.788 142.261 227.405 143.693 227.332 143.81C226.716 144.789 226.182 144.699 225.101 144.394C224.779 145.165 224.486 145.952 224.209 146.747C224.425 146.762 224.65 146.799 224.893 146.892C227.395 147.849 229 145.435 231.337 146.311C233.976 147.301 234.186 144.609 236.428 144.292C239.144 143.909 239.056 145.859 244.36 146.43C246.882 146.701 248.158 148.459 250.406 149.127C251.693 149.51 252.138 150.635 251.98 151.669C252.505 156.165 252.457 163.729 246.145 163.407C244.116 163.303 238.401 161.814 237.332 163.863C235.684 167.023 235.125 170.233 234.731 173.759C234.54 175.477 232.624 180.153 232.624 180.153C232.083 181.616 231.821 185.586 231.563 185.937C238.609 194.195 248.951 199.596 260.624 200.017C260.653 200.018 260.684 200.021 260.714 200.022C264.964 200.166 269.077 199.627 272.966 198.527C271.123 198.252 269.941 197.47 269.162 196.498Z" fill="#35A6B4"/>
<path d="M299.499 145.48L299.413 145.535C299.413 145.535 298.779 145.631 298.704 146.005L298.669 146.179C298.51 146.822 297.947 148.287 296.119 148.309C294.809 148.324 294.365 149.729 293.934 151.087C293.58 152.204 293.178 153.47 292.358 154.138C291.889 154.519 291.495 154.878 291.13 155.214C290.737 155.752 290.458 156.327 290.262 156.931C290.067 157.534 289.956 158.163 289.903 158.813C290.168 159.336 290.392 159.854 290.583 160.366C290.972 161.115 291.268 161.845 291.482 162.554C291.697 163.264 291.832 163.955 291.899 164.63C291.975 165.317 292.025 165.987 292.045 166.646C292.066 167.303 292.06 167.947 292.02 168.575C291.719 170.246 291.141 171.963 290.328 173.593C290.063 174.123 293.711 183.739 293.576 184.671C298.676 178.196 301.869 170.133 302.169 161.282C302.357 155.714 301.395 150.372 299.499 145.48Z" fill="#35A6B4"/>
<path fill-rule="evenodd" clip-rule="evenodd" d="M254.459 80.985C245.287 80.985 235.304 88.084 235.304 99.925C235.304 117.947 254.504 136.992 254.504 136.992C254.504 136.992 273.704 117.637 273.704 99.925C273.704 88.084 263.106 80.985 254.459 80.985ZM264.011 99.236C264.011 104.354 259.862 108.504 254.743 108.504C249.624 108.504 245.475 104.355 245.475 99.236C245.475 94.117 249.624 89.969 254.743 89.969C259.862 89.969 264.011 94.118 264.011 99.236Z" fill="#F7B75D"/>
<path d="M219.652 92.0299C218.376 92.0299 217.099 91.5779 216.128 90.6749C214.654 89.3059 212.256 89.3049 210.781 90.6749C210.527 90.9089 210.132 90.8959 209.897 90.6439C209.662 90.3899 209.676 89.9949 209.929 89.7599C211.873 87.9519 215.034 87.9529 216.979 89.7599C218.453 91.1299 220.852 91.1289 222.327 89.7599C224.269 87.9529 227.431 87.9529 229.376 89.7599C230.85 91.1299 233.249 91.1289 234.724 89.7599C236.667 87.9519 239.829 87.9529 241.773 89.7599C242.026 89.9949 242.041 90.3899 241.805 90.6439C241.57 90.8959 241.174 90.9109 240.921 90.6749C239.447 89.3059 237.048 89.3049 235.574 90.6749C233.631 92.4809 230.469 92.4819 228.525 90.6749C227.05 89.3059 224.652 89.3059 223.177 90.6749C222.206 91.5779 220.929 92.0299 219.652 92.0299Z" fill="white"/>
<path d="M147.151 106.585C145.875 106.585 144.598 106.134 143.627 105.231C142.153 103.861 139.755 103.86 138.279 105.231C138.026 105.465 137.631 105.451 137.396 105.198C137.161 104.945 137.175 104.55 137.427 104.315C139.372 102.508 142.533 102.508 144.477 104.315C145.952 105.685 148.351 105.684 149.825 104.315C151.768 102.508 154.93 102.508 156.875 104.315C158.349 105.685 160.748 105.684 162.223 104.315C164.166 102.508 167.328 102.508 169.272 104.315C169.525 104.55 169.54 104.945 169.304 105.198C169.068 105.451 168.673 105.466 168.42 105.231C166.946 103.861 164.547 103.86 163.073 105.231C161.13 107.036 157.968 107.038 156.023 105.231C154.549 103.86 152.151 103.86 150.676 105.231C149.705 106.134 148.427 106.585 147.151 106.585Z" fill="white"/>
<path d="M293.697 137.507C293.517 137.03 289.299 125.755 289.299 118.853H291.803C291.803 125.298 295.998 136.511 296.041 136.624L293.697 137.507Z" fill="#F99AB6"/>
<path d="M282.701 128.241L278.505 121.211C278.329 120.915 278.281 120.561 278.375 120.23C278.468 119.899 278.693 119.621 278.997 119.461L285.735 115.917L286.9 118.134L281.332 121.062L284.852 126.958L282.701 128.241Z" fill="#F99AB6"/>
<path d="M294.858 93.5179C294.858 93.5179 293.206 91.5229 292.458 90.8799C291.09 89.7039 289.961 91.0039 289.961 91.0039C283.148 89.9579 281.869 99.6869 284.972 102.111C287.486 104.076 289.585 102.721 289.585 102.721C289.585 102.721 291.003 103.78 293.176 104.114C294.52 104.32 296.144 103.437 296.144 103.437C296.144 103.437 298.045 104.796 299.502 102.786C300.958 100.776 298.804 98.6459 297.659 98.6249C297.659 98.6249 299.029 96.9749 297.15 95.8789C296.408 95.4469 294.858 93.5179 294.858 93.5179Z" fill="#21899C"/>
<path d="M286.431 105.606C285.973 105.374 285.602 104.678 286.15 104.043C286.691 103.416 287.524 103.068 288.417 103.035L288.647 103.026C289.438 102.996 290.156 103.34 290.632 103.9C290.253 105.075 287.673 106.082 286.431 105.606Z" fill="#F99AB6"/>
<path d="M287.811 101.237L287.79 102.247L287.753 104.144L289.21 104.17L289.255 101.746L289.275 100.806C288.835 101.102 288.334 101.261 287.811 101.237Z" fill="#F99AB6"/>
<path d="M287.811 101.237L287.79 102.247C288.307 102.171 288.934 101.94 289.259 101.559L289.275 100.807C288.835 101.102 288.334 101.261 287.811 101.237Z" fill="#F99AB6"/>
<path d="M286.998 101.236C288.23 101.856 289.623 101.816 290.771 101.249C291.566 100.857 292.245 100.213 292.673 99.36L293.421 97.875C293.963 96.796 294 95.595 293.621 94.542C293.267 93.56 292.551 92.705 291.544 92.199C290.879 91.864 290.167 91.721 289.472 91.751C287.989 91.813 286.582 92.655 285.868 94.075L285.121 95.56C284.433 96.926 284.557 98.488 285.31 99.698C285.708 100.335 286.279 100.874 286.998 101.236Z" fill="#F99AB6"/>
<path d="M291.667 96.859C288.634 97.353 288.3 94.0829 288.473 92.7379C288.834 89.9239 292.509 90.4659 293.795 91.8659C294.592 92.7329 296.008 95.083 295.397 98.002C294.787 100.921 291.808 102.735 291.808 102.735C288.534 100.335 291.916 98.0349 291.916 98.0349L291.667 96.859Z" fill="#21899C"/>
<path d="M289.004 120.652C291.22 120.652 293.016 118.856 293.016 116.64C293.016 114.424 291.22 112.628 289.004 112.628C286.788 112.628 284.992 114.424 284.992 116.64C284.992 118.856 286.788 120.652 289.004 120.652Z" fill="#8EDEF2"/>
<path d="M287.333 98.9339C287.009 99.3579 286.42 99.5069 285.926 99.2579C285.433 99.0099 285.201 98.4479 285.349 97.9359L287.333 98.9339Z" fill="#FFFEFF"/>
<path d="M282.135 117.786C287.436 122.383 294.009 124.637 294.009 124.637C294.009 124.637 295.13 117.911 292.649 114.998C291.403 113.535 284.992 115.661 284.992 115.661L282.135 117.786Z" fill="#8EDEF2"/>
<path d="M284.301 106.278C284.027 107.034 284.791 107.798 285.591 107.885C286.39 107.972 287.11 107.395 287.197 106.595C287.284 105.795 286.093 104.043 285.642 104.71C285.214 105.347 284.537 105.631 284.301 106.278Z" fill="#8EDEF2"/>
<path d="M290.633 103.9C290.979 104.304 291.199 104.821 291.226 105.394C291.226 105.394 290.867 111.983 292.673 115.018C293.45 116.324 284.97 116.287 284.97 116.287L285.198 106.541C285.152 105.573 285.524 104.685 286.151 104.043C286.188 105.513 289.211 103.744 290.633 103.9Z" fill="#8EDEF2"/>
<path d="M289.358 106.304C287.851 106.304 277.696 105.826 272.047 93.3069L274.329 92.278C279.595 103.947 289.039 103.811 289.444 103.799L289.53 106.302C289.505 106.302 289.447 106.304 289.358 106.304Z" fill="#8EDEF2"/>
<path d="M274.263 90.2679C273.813 89.9899 273.299 89.8989 272.813 89.9729L271.091 92.7639C271.243 93.2309 271.555 93.6499 272.006 93.9279C273.017 94.5509 274.341 94.2379 274.964 93.2269C275.588 92.2169 275.274 90.8909 274.263 90.2679Z" fill="#F99AB6"/>
<path d="M284.775 130.087C285.676 130.087 286.407 129.356 286.407 128.455C286.407 127.554 285.676 126.823 284.775 126.823C283.873 126.823 283.143 127.554 283.143 128.455C283.143 129.356 283.873 130.087 284.775 130.087Z" fill="#21899C"/>
<path d="M279.282 131.789L285.211 130.028C285.838 129.842 286.195 129.183 286.009 128.556C285.822 127.929 284.601 126.803 283.975 126.99L278.743 130.386C278.166 130.761 278.312 131.683 278.99 131.801C279.089 131.819 279.188 131.817 279.282 131.789Z" fill="#21899C"/>
<path d="M295.144 139.529C296.045 139.529 296.776 138.798 296.776 137.897C296.776 136.996 296.045 136.265 295.144 136.265C294.242 136.265 293.512 136.996 293.512 137.897C293.512 138.798 294.242 139.529 295.144 139.529Z" fill="#21899C"/>
<path d="M291.227 142.99L296.119 139.206C296.637 138.807 296.731 138.062 296.332 137.546C295.932 137.028 294.386 136.42 293.868 136.82L290.217 141.878C289.815 142.436 290.284 143.242 290.959 143.107C291.058 143.088 291.15 143.051 291.227 142.99Z" fill="#21899C"/>
<path d="M287.65 115.482C287.009 115.482 286.318 115.419 285.59 115.262L285.665 114.912C289.089 115.648 291.753 114.184 291.779 114.17L291.955 114.482C291.866 114.533 290.143 115.482 287.65 115.482Z" fill="#8EDEF2"/>
<path d="M302.818 226.343H43.4766C42.6476 226.343 41.9766 225.671 41.9766 224.843C41.9766 224.015 42.6476 223.343 43.4766 223.343H302.818C303.647 223.343 304.318 224.015 304.318 224.843C304.318 225.671 303.647 226.343 302.818 226.343Z" fill="#8EDEF2"/>
<path d="M105.26 95.5429L103.182 103.501L96.3682 106.342L97.3301 108.648L104.715 105.569C105.075 105.42 105.345 105.11 105.444 104.732L107.678 96.1749C107.851 95.5139 107.455 94.8379 106.794 94.6649L106.771 94.6589C106.109 94.4869 105.433 94.8819 105.26 95.5429Z" fill="#8EDEF2"/>
<path d="M101.052 118.329C101.642 117.901 101.82 117.115 101.502 116.484C101.502 116.484 101.314 116.108 100.973 115.459C100.625 114.813 100.147 113.88 99.5417 112.777C99.0097 111.794 98.3897 110.67 97.7157 109.471C98.5077 109.646 99.2877 109.816 100.044 109.977C100.813 110.139 101.555 110.295 102.259 110.443C102.964 110.587 103.63 110.722 104.245 110.847C105.476 111.095 106.507 111.282 107.225 111.421C107.946 111.555 108.359 111.625 108.359 111.625C109.45 111.811 110.484 111.076 110.67 109.985C110.847 108.944 110.18 107.953 109.171 107.703C109.171 107.703 108.764 107.603 108.05 107.441C107.334 107.284 106.315 107.045 105.086 106.785C104.472 106.655 103.807 106.515 103.103 106.367C102.398 106.223 101.655 106.072 100.885 105.916C99.3457 105.606 97.7007 105.292 96.0557 104.981L95.4387 104.866L95.2847 104.838L95.2077 104.824L95.1877 104.82L95.0297 104.794L95.0207 104.793L94.9817 104.789C94.3267 104.713 93.7447 104.896 93.2837 105.225C92.8247 105.555 92.5017 106.021 92.3517 106.564C92.1977 107.102 92.2567 107.736 92.4967 108.224C92.6617 108.547 92.6437 108.484 92.6797 108.549L92.7637 108.68L92.9307 108.941C93.3787 109.632 93.8207 110.314 94.2467 110.972C95.1027 112.288 95.9157 113.51 96.6197 114.551C97.3187 115.596 97.9257 116.451 98.3397 117.058C98.7577 117.661 99.0037 118 99.0037 118C99.4787 118.657 100.396 118.804 101.052 118.329Z" fill="#21899C"/>
<path d="M100.38 118.794C101.488 118.794 102.386 117.896 102.386 116.788C102.386 115.68 101.488 114.782 100.38 114.782C99.2722 114.782 98.374 115.68 98.374 116.788C98.374 117.896 99.2722 118.794 100.38 118.794Z" fill="#F7B75D"/>
<path d="M97.6042 124.181L101.997 117.978C102.461 117.322 102.307 116.415 101.65 115.95C100.995 115.486 98.9592 115.325 98.4952 115.981L96.0172 123.236C95.7452 124.036 96.5852 124.816 97.3302 124.416C97.4402 124.355 97.5352 124.278 97.6042 124.181Z" fill="#F7B75D"/>
<path d="M98.0651 118.746C98.0391 118.536 97.8281 118.401 97.6261 118.466L96.8871 118.705C96.7331 118.755 96.6351 118.907 96.6561 119.068C96.6821 119.278 96.8931 119.413 97.0951 119.348L97.8341 119.109C97.9881 119.059 98.0841 118.907 98.0651 118.746Z" fill="white"/>
<path d="M98.1989 119.829C98.1729 119.618 97.961 119.483 97.76 119.549L97.021 119.788C96.867 119.837 96.7689 119.989 96.7899 120.15C96.8149 120.361 97.0269 120.496 97.2279 120.43L97.9679 120.191C98.1209 120.141 98.2179 119.989 98.1989 119.829Z" fill="white"/>
<path d="M100.381 117.991C101.045 117.991 101.584 117.452 101.584 116.788C101.584 116.124 101.045 115.585 100.381 115.585C99.7163 115.585 99.1777 116.124 99.1777 116.788C99.1777 117.452 99.7163 117.991 100.381 117.991Z" fill="#21899C"/>
<path d="M108.986 90.4209L109.209 92.0759L109.573 91.9589C109.849 91.8699 110.037 91.6129 110.037 91.3229C110.037 91.1269 110.123 90.9399 110.272 90.8129L111.205 89.8579C111.594 89.4609 111.866 88.9579 111.952 88.4079C112.016 87.9989 111.988 87.5499 111.723 87.2039C111.355 86.7249 112.61 85.4109 111.718 84.3079C111.316 83.8099 110.684 83.4429 110.424 82.9089C109.553 81.1209 108.246 81.2609 107.334 81.9039C106.521 82.4759 106.167 81.3149 104.571 81.5139C103.328 81.6689 102.831 82.5569 102.932 83.2939C102.932 83.2939 100.814 83.3789 100.814 85.7459C100.814 88.1139 103.314 88.4089 103.314 88.4089L108.986 90.4209Z" fill="#21899C"/>
<path d="M106.415 88.6459L106.765 92.6449L106.998 95.2599L110.063 94.9909L109.364 88.6089L109.165 86.7939L106.415 88.6459Z" fill="#F99AB6"/>
<path d="M108.847 90.6409V91.2798C108.351 91.9078 107.562 92.3908 106.766 92.6448L106.59 90.6409H108.847Z" fill="#F99AB6"/>
<path d="M105.584 92.5118H105.087C104.001 92.5118 102.73 90.4058 102.73 89.3188C102.73 88.0238 102.839 87.3699 102.73 86.4969C102.579 85.2979 103.709 84.3088 104.917 84.3088H107.365C108.286 84.3088 109.032 85.0549 109.032 85.9749V89.9468C109.031 91.3628 107.001 92.5118 105.584 92.5118Z" fill="#F99AB6"/>
<path d="M105.28 84.3079C105.28 84.3079 105.06 86.1169 108.114 86.0049C108.114 86.0049 108.024 89.576 109.63 89.833L109.915 88.6299C109.915 88.6299 110.579 84.7139 109.096 84.0499C107.613 83.3869 105.28 84.3079 105.28 84.3079Z" fill="#21899C"/>
<path d="M110.653 93.2899C110.318 93.0829 109.911 92.9889 109.491 93.0559L108.138 93.2689C107.483 93.3719 106.892 93.6319 106.397 94.0049C107.819 94.3589 109.51 94.1489 110.653 93.2899Z" fill="#F99AB6"/>
<path d="M112.793 95.6909C112.678 94.6279 111.687 93.6009 110.653 93.2899C109.51 94.1489 107.819 94.3589 106.397 94.0049C105.284 94.8449 104.657 96.2549 104.888 97.7299L106.324 105.822L113.624 104.832C113.624 104.832 113.054 98.1089 112.793 95.6909Z" fill="#8EDEF2"/>
<path d="M85.7964 118.87C85.7964 118.87 86.0774 118.556 86.5794 118.016C87.0854 117.48 87.7944 116.702 88.6694 115.792C89.5394 114.878 94.3504 110.007 94.3504 110.007L94.4574 109.908C94.5314 109.845 94.6064 109.782 94.6854 109.723C94.8404 109.605 95.0034 109.495 95.1734 109.399C95.5154 109.206 95.8844 109.061 96.2664 108.968C96.3624 108.946 96.4584 108.925 96.5554 108.908C96.5994 108.9 104.758 108.137 105.459 107.966C106.696 107.664 106.237 105.336 106.237 105.336L113.57 104.211C113.623 105.261 114.3 106.279 114.484 106.964C114.778 108.059 114.6 109.17 114.074 110.078C113.55 110.989 112.679 111.7 111.583 111.995C111.048 112.14 110.509 112.169 109.99 112.101C109.794 112.119 109.498 112.144 109.11 112.175C108.377 112.229 107.33 112.319 106.072 112.402C105.442 112.442 104.761 112.486 104.041 112.532C103.319 112.574 102.56 112.617 101.772 112.663C100.985 112.703 100.171 112.744 99.3454 112.786C98.6304 112.817 97.9044 112.849 97.1774 112.882C97.1514 112.884 97.1244 112.892 97.0974 112.9C97.0834 112.905 97.0714 112.911 97.0574 112.917L97.0374 112.928C97.0344 112.929 97.0314 112.932 97.0284 112.934L97.0234 112.937L96.9974 112.959C96.6874 113.241 96.3794 113.522 96.0724 113.799C95.4564 114.352 94.8494 114.897 94.2634 115.423C93.0874 116.474 91.9814 117.444 91.0254 118.269C90.0744 119.098 89.2614 119.768 88.7024 120.248C88.1394 120.723 87.8104 120.987 87.8104 120.987C87.2614 121.431 86.4564 121.426 85.9124 120.94C85.3094 120.401 85.2574 119.475 85.7964 118.87Z" fill="#21899C"/>
<path d="M86.5216 122.418C87.6295 122.418 88.5276 121.52 88.5276 120.412C88.5276 119.304 87.6295 118.406 86.5216 118.406C85.4137 118.406 84.5156 119.304 84.5156 120.412C84.5156 121.52 85.4137 122.418 86.5216 122.418Z" fill="#F7B75D"/>
<path d="M78.6415 119.911L85.8554 122.306C86.6174 122.559 87.4414 122.146 87.6944 121.383C87.9474 120.62 87.5065 118.626 86.7455 118.373L79.0834 118.118C78.2384 118.09 77.7374 119.122 78.3374 119.718C78.4254 119.806 78.5265 119.874 78.6415 119.911Z" fill="#F7B75D"/>
<path d="M84.2429 119.209C84.4559 119.209 84.6149 119.016 84.5749 118.808L84.4289 118.044C84.3989 117.885 84.2589 117.771 84.0969 117.771C83.8849 117.771 83.726 117.963 83.766 118.172L83.9119 118.935C83.9419 119.094 84.0819 119.209 84.2429 119.209Z" fill="white"/>
<path d="M83.1521 119.209C83.3651 119.209 83.5241 119.016 83.4841 118.808L83.3381 118.044C83.3081 117.885 83.1681 117.771 83.0061 117.771C82.7941 117.771 82.6351 117.963 82.6751 118.172L82.8211 118.935C82.8511 119.094 82.9911 119.209 83.1521 119.209Z" fill="white"/>
<path d="M86.5213 121.615C87.1857 121.615 87.7244 121.076 87.7244 120.412C87.7244 119.748 87.1857 119.209 86.5213 119.209C85.8569 119.209 85.3184 119.748 85.3184 120.412C85.3184 121.076 85.8569 121.615 86.5213 121.615Z" fill="#21899C"/>
<path d="M106.227 90.5588C106.128 91.0818 105.671 91.4789 105.12 91.4789C104.567 91.4789 104.11 91.0828 104.012 90.5588H106.227Z" fill="#FFFEFF"/>
<path d="M92.196 105.099C92.718 105.018 93.1671 104.753 93.4871 104.381L92.981 101.15C92.563 100.894 92.055 100.779 91.533 100.861C90.363 101.045 89.562 102.141 89.746 103.312C89.928 104.481 91.026 105.282 92.196 105.099Z" fill="#F99AB6"/>
<path d="M112.577 105.297C112.871 105.197 113.119 104.99 113.269 104.716C113.432 104.42 113.468 104.07 113.369 103.747L110.559 94.6189L108.171 95.3539L110.601 103.248L104.691 104.858L105.348 107.268L112.503 105.319C112.528 105.312 112.552 105.306 112.577 105.297Z" fill="#8EDEF2"/>
<path d="M113.308 103.203L111.209 95.7844L110.866 95.8814L112.966 103.3L113.308 103.203Z" fill="#61C8E0"/>
<path d="M110.016 101.055L108.784 96.6729L108.357 96.7289L109.589 101.11L110.016 101.055Z" fill="#61C8E0"/>
<path d="M101.692 105.834C101.622 106.357 101.748 106.862 102.013 107.274L105.255 107.708C105.619 107.38 105.873 106.926 105.943 106.402C106.1 105.227 105.275 104.148 104.101 103.991C102.927 103.835 101.848 104.659 101.692 105.834Z" fill="#F99AB6"/>
<path d="M107.479 107.45C107.479 107.154 107.24 106.915 106.945 106.915H87.572C87.166 106.915 86.834 107.155 86.834 107.449C86.834 107.744 87.166 107.984 87.572 107.984H106.945C107.24 107.984 107.479 107.745 107.479 107.45Z" fill="#21899C"/>
<path d="M108.239 107.449C108.239 107.744 107.979 107.984 107.662 107.984H100.306C99.9895 107.984 99.7305 107.744 99.7305 107.449C99.7305 107.155 99.9895 106.915 100.306 106.915H107.662C107.979 106.915 108.239 107.155 108.239 107.449Z" fill="white"/>
<path d="M86.8633 96.89V106.66C86.8633 107.096 87.2163 107.448 87.6503 107.448H100.54C100.976 107.448 101.328 107.095 101.328 106.66V96.89C101.328 96.454 100.975 96.1019 100.54 96.1019H87.6503C87.2153 96.1009 86.8633 96.454 86.8633 96.89Z" fill="white"/>
<path d="M86.2617 96.89V106.66C86.2617 107.096 86.6147 107.448 87.0497 107.448H99.9387C100.375 107.448 100.727 107.095 100.727 106.66V96.89C100.727 96.454 100.374 96.1019 99.9387 96.1019H87.0497C86.6147 96.1009 86.2617 96.454 86.2617 96.89Z" fill="#21899C"/>
<path d="M95.6201 101.774C95.6201 101.315 95.2492 100.943 94.7902 100.943H92.2001C91.7411 100.943 91.3701 101.315 91.3701 101.774C91.3701 102.233 91.7411 102.605 92.2001 102.605H94.7902C95.2492 102.605 95.6201 102.233 95.6201 101.774Z" fill="white"/>
<path d="M194.302 91.7391C194.71 91.1471 194.155 90.1601 194.501 88.9871C195.547 85.4471 194.321 83.9051 194.321 83.9051C194.341 82.6041 193.249 81.4651 191.618 80.8641C190.853 80.5831 189.971 80.419 189.028 80.413C187.603 80.403 186.302 80.7561 185.336 81.3371C184.298 81.9601 183.546 82.85 183.628 83.835C183.687 84.533 184.437 85.4551 183.673 86.6331C181.791 89.5411 182.608 91.2181 183.609 91.7391C184.53 92.2181 185.59 92.2581 186.133 92.5671C188.907 94.1521 192.853 93.8391 194.302 91.7391Z" fill="white"/>
<path d="M203.002 104.697C203.643 104.625 204.305 104.509 204.986 104.351C205.487 104.236 205.799 103.736 205.683 103.236C205.567 102.735 205.07 102.423 204.567 102.54C201.387 103.275 198.783 102.961 196.827 101.604C193.842 99.532 193.31 95.708 193.305 95.669C193.239 95.159 192.767 94.807 192.263 94.867C191.753 94.933 191.394 95.4 191.46 95.91C191.485 96.099 192.111 100.595 195.767 103.132C197.73 104.495 200.158 105.018 203.002 104.697Z" fill="#F99AB6"/>
<path d="M193.745 97.0931C193.928 97.0931 194.098 97.1131 194.258 97.1441C193.945 96.2601 193.848 95.6141 193.846 95.6001C193.75 94.8691 193.118 94.3181 192.376 94.3181C192.317 94.3181 192.258 94.3211 192.192 94.3291C191.386 94.4341 190.816 95.1771 190.921 95.9821C190.933 96.0761 191.088 97.1561 191.634 98.5481C191.925 97.7371 192.626 97.0931 193.745 97.0931Z" fill="#21899C"/>
<path d="M191.993 96.3089C192.47 96.0669 192.856 95.343 192.285 94.682C191.723 94.031 190.857 93.668 189.929 93.633L189.689 93.6239C188.866 93.5929 188.12 93.9509 187.624 94.5329C188.017 95.7569 190.701 96.8039 191.993 96.3089Z" fill="#F99AB6"/>
<path d="M190.418 91.7651L190.439 92.8161L190.478 94.7891L188.962 94.8161L188.915 92.2951L188.894 91.3171C189.354 91.6241 189.876 91.7891 190.418 91.7651Z" fill="#F99AB6"/>
<path d="M190.418 92.0161L190.439 93.0661C189.902 92.9861 189.251 92.7471 188.912 92.3501L188.895 91.5681C189.354 91.8751 189.876 92.0401 190.418 92.0161Z" fill="#F99AB6"/>
<path d="M190.043 92.5581C188.607 92.5441 187.34 91.8431 186.548 90.7711C186 90.0301 185.681 89.1111 185.691 88.1181L185.709 86.3891C185.722 85.1321 186.26 84.0041 187.113 83.2121C187.908 82.4731 188.978 82.0241 190.15 82.0361C190.924 82.0441 191.65 82.2521 192.279 82.6101C193.621 83.3741 194.518 84.8241 194.502 86.4771L194.484 88.2061C194.468 89.7971 193.609 91.1821 192.336 91.9401C191.666 92.3401 190.88 92.5661 190.043 92.5581Z" fill="#F99AB6"/>
<path d="M194.762 106.858C195.274 109.105 192.491 111.341 190.243 111.853C187.997 112.365 185.761 110.957 185.249 108.71C184.737 106.464 186.145 104.228 188.391 103.716C190.638 103.205 194.251 104.612 194.762 106.858Z" fill="#F7B75D"/>
<path d="M190.333 90.27C190.431 90.817 190.903 91.235 191.479 91.241C192.055 91.247 192.536 90.8391 192.644 90.2941L190.333 90.27Z" fill="#FFFEFF"/>
<path d="M194.47 97.3281C194.755 98.1141 193.964 99.074 193.132 99.165C192.3 99.257 191.287 98.1701 191.196 97.3381C191.104 96.5061 192.344 94.6841 192.812 95.3781C193.259 96.0391 194.226 96.6541 194.47 97.3281Z" fill="#21899C"/>
<path d="M187.623 94.534C187.264 94.955 187.035 95.493 187.007 96.088C187.007 96.088 188.36 102.636 185.502 106.099C185.502 106.099 190.66 109.191 194.805 107.102C194.805 104.136 192.992 102.088 193.278 97.281C193.339 96.275 192.939 95.35 192.286 94.683C192.248 96.211 189.102 94.372 187.623 94.534Z" fill="#21899C"/>
<path d="M192.047 127.74C192.146 128.717 191.974 129.499 192.013 129.743C192.077 130.142 193.88 130.509 194.105 131.622C194.413 133.145 196.417 133.307 196.742 133.37C197.572 133.534 198.309 133.114 197.875 132.309C197.368 131.371 196.86 131.204 196.18 130.061C195.182 128.386 195.105 127.256 194.578 126.257C194.482 126.074 194.002 125.458 193.27 125.552C192.606 125.638 191.926 126.543 192.047 127.74Z" fill="#21899C"/>
<path d="M194.972 130.693C194.414 129.87 193.449 127.207 193.576 126.558C193.725 125.796 195.202 125.478 195.408 126.102C195.761 127.174 195.649 129.177 196.925 131.076C196.909 131.637 195.623 131.653 194.972 130.693Z" fill="#F99AB6"/>
<path d="M218.701 114.844C219.426 114.181 220.156 113.851 220.327 113.673C220.609 113.382 219.824 111.719 220.582 110.873C221.619 109.716 220.55 108.013 220.407 107.714C220.042 106.951 219.264 106.611 218.88 107.441C218.431 108.408 218.601 108.915 218.092 110.144C217.346 111.945 216.487 112.683 216 113.703C215.912 113.889 215.704 114.641 216.217 115.173C216.682 115.653 217.814 115.656 218.701 114.844Z" fill="#21899C"/>
<path d="M219.32 110.733C218.994 111.672 217.435 114.039 216.84 114.324C216.14 114.659 215.002 113.667 215.38 113.129C216.027 112.204 217.7 111.097 218.459 108.939C218.918 108.617 219.7 109.638 219.32 110.733Z" fill="#F99AB6"/>
<path d="M199.1 112.873L199.027 112.84L189.175 108.315C188.24 107.886 187.136 108.295 186.707 109.229C186.278 110.163 186.687 111.267 187.621 111.696C187.624 111.698 187.637 111.703 187.641 111.705L196.12 115.484L193.121 125.778L195.697 126.631L199.994 115.045C200.31 114.191 199.912 113.248 199.1 112.873Z" fill="#F7B75D"/>
<path d="M190.052 107.231C190.532 107.231 191.043 107.203 191.583 107.147C192.094 107.094 192.466 106.637 192.413 106.126C192.36 105.615 191.901 105.246 191.392 105.296C189.674 105.473 187.463 105.416 186.685 104.14C185.456 102.127 187.775 97.6961 188.684 96.3021C188.964 95.8711 188.843 95.2951 188.413 95.0151C187.982 94.7351 187.406 94.8561 187.125 95.2861C186.701 95.9361 183.04 101.739 185.096 105.109C185.959 106.52 187.622 107.23 190.052 107.231Z" fill="#F99AB6"/>
<path d="M185.21 86.8661C185.21 86.8661 188.327 87.9801 190.273 86.6261C192.22 85.2721 193.109 83.1841 192.259 81.9621C191.408 80.7391 189.142 80.8471 187.195 82.2011C185.25 83.5561 185.21 86.8661 185.21 86.8661Z" fill="white"/>
<path d="M189.088 107.877C189.088 107.877 190.813 107.922 193.398 108.029C194.691 108.091 196.198 108.163 197.813 108.239C199.427 108.335 201.15 108.437 202.872 108.54L203.518 108.578L203.679 108.587L203.719 108.59L203.899 108.607L203.979 108.619L204.297 108.665L204.933 108.763L204.973 108.769L205.128 108.797L205.148 108.802L205.226 108.821L205.381 108.86L205.691 108.936C206.515 109.14 207.327 109.341 208.112 109.536C208.896 109.733 209.657 109.91 210.374 110.104C211.091 110.292 211.769 110.471 212.395 110.635C213.648 110.957 214.686 111.258 215.415 111.457C216.142 111.665 216.557 111.784 216.557 111.784L216.036 114.12C216.036 114.12 215.61 114.051 214.863 113.931C214.119 113.801 213.052 113.632 211.781 113.391C211.144 113.274 210.455 113.147 209.725 113.012C208.995 112.883 208.23 112.719 207.436 112.565C206.643 112.407 205.824 112.244 204.991 112.078L204.678 112.016L204.522 111.985L204.443 111.969L204.423 111.965C204.39 111.958 204.674 112.01 204.549 111.987L204.539 111.986L204.5 111.981L203.861 111.907L203.541 111.867L203.461 111.857L203.451 111.855C203.417 111.852 203.708 111.878 203.58 111.868L203.559 111.867L203.519 111.865L203.358 111.859L202.712 111.834C200.988 111.767 199.265 111.699 197.649 111.636C196.035 111.554 194.527 111.478 193.235 111.412C190.652 111.266 188.931 111.141 188.931 111.141L189.088 107.877Z" fill="#F7B75D"/>
<path d="M189.654 108.975C189.654 108.665 189.905 108.415 190.214 108.415H210.476C210.901 108.415 211.248 108.666 211.248 108.974C211.248 109.283 210.9 109.534 210.476 109.534H190.214C189.905 109.534 189.654 109.284 189.654 108.975Z" fill="#21899C"/>
<path d="M188.859 108.975C188.859 109.284 189.13 109.535 189.463 109.535H197.157C197.488 109.535 197.76 109.284 197.76 108.975C197.76 108.667 197.489 108.416 197.157 108.416H189.463C189.13 108.416 188.859 108.667 188.859 108.975Z" fill="white"/>
<path d="M211.215 97.931V108.149C211.215 108.604 210.846 108.973 210.391 108.973H196.911C196.456 108.973 196.087 108.604 196.087 108.149V97.931C196.087 97.476 196.456 97.1071 196.911 97.1071H210.391C210.846 97.1061 211.215 97.475 211.215 97.931Z" fill="white"/>
<path d="M211.845 97.931V108.149C211.845 108.604 211.477 108.973 211.021 108.973H197.541C197.086 108.973 196.717 108.604 196.717 108.149V97.931C196.717 97.476 197.086 97.1071 197.541 97.1071H211.021C211.477 97.1061 211.845 97.475 211.845 97.931Z" fill="white"/>
<path d="M202.058 103.039C202.058 102.56 202.447 102.171 202.927 102.171H205.635C206.114 102.171 206.504 102.56 206.504 103.039C206.504 103.519 206.114 103.908 205.635 103.908H202.927C202.447 103.908 202.058 103.519 202.058 103.039Z" fill="#8EDEF2"/>
<path d="M186.078 96.9341C187.179 96.9341 187.872 97.5571 188.171 98.3471C188.51 97.6501 188.859 97.0331 189.142 96.6001C189.586 95.9181 189.393 95.0031 188.711 94.5581C188.472 94.4021 188.193 94.3191 187.907 94.3191C187.406 94.3191 186.944 94.5691 186.671 94.9891C186.458 95.3151 186.006 96.0421 185.527 96.9941C185.699 96.9561 185.881 96.9341 186.078 96.9341Z" fill="#21899C"/>
<path d="M195.617 105.491C195.841 105.996 195.861 106.54 195.717 107.032L192.588 108.416C192.126 108.192 191.738 107.812 191.514 107.306C191.013 106.173 191.526 104.848 192.659 104.347C193.791 103.845 195.116 104.357 195.617 105.491Z" fill="#F99AB6"/>
<path d="M80.9948 219.627C82.2059 219.627 83.1877 218.645 83.1877 217.434C83.1877 216.223 82.2059 215.241 80.9948 215.241C79.7836 215.241 78.8018 216.223 78.8018 217.434C78.8018 218.645 79.7836 219.627 80.9948 219.627Z" fill="#F7B75D"/>
<path d="M72.3654 217.253L80.3544 219.532C81.1994 219.772 82.0794 219.284 82.3204 218.439C82.5614 217.594 81.9884 215.437 81.1434 215.196L72.7644 215.273C71.8404 215.282 71.3414 216.432 72.0244 217.054C72.1264 217.146 72.2394 217.217 72.3654 217.253Z" fill="#F7B75D"/>
<path d="M78.451 216.225C78.682 216.215 78.848 215.996 78.795 215.771L78.6 214.944C78.559 214.772 78.402 214.653 78.225 214.661C77.994 214.671 77.828 214.889 77.881 215.114L78.076 215.941C78.117 216.113 78.274 216.233 78.451 216.225Z" fill="white"/>
<path d="M77.2593 216.276C77.4913 216.265 77.6563 216.047 77.6033 215.822L77.4083 214.995C77.3683 214.823 77.2103 214.704 77.0333 214.711C76.8023 214.722 76.6373 214.94 76.6893 215.165L76.8843 215.992C76.9253 216.164 77.0833 216.283 77.2593 216.276Z" fill="white"/>
<path d="M83.4042 201.912L83.4472 201.89L95.4252 194.829L99.0062 198.711L86.4392 205.374L83.4911 218.202L83.4022 218.187L80.0352 215.135L82.3122 203.376C82.4352 202.775 82.8192 202.223 83.4042 201.912Z" fill="#21899C"/>
<path d="M109.489 223.551C110.578 223.551 111.461 222.668 111.461 221.579C111.461 220.49 110.578 219.607 109.489 219.607C108.399 219.607 107.517 220.49 107.517 221.579C107.517 222.668 108.399 223.551 109.489 223.551Z" fill="#F7B75D"/>
<path d="M101.988 223.567L109.458 223.549C110.248 223.548 110.887 222.906 110.885 222.116C110.883 221.326 109.852 219.605 109.062 219.607L101.841 221.756C101.045 221.993 100.901 223.111 101.645 223.48C101.754 223.535 101.87 223.567 101.988 223.567Z" fill="#F7B75D"/>
<path d="M106.991 221.166C107.188 221.101 107.277 220.87 107.175 220.688L106.801 220.022C106.723 219.883 106.558 219.82 106.406 219.871C106.208 219.936 106.12 220.167 106.221 220.349L106.596 221.015C106.674 221.153 106.839 221.217 106.991 221.166Z" fill="white"/>
<path d="M105.974 221.506C106.171 221.441 106.26 221.21 106.159 221.028L105.784 220.363C105.706 220.224 105.541 220.16 105.389 220.211C105.192 220.277 105.103 220.507 105.204 220.689L105.579 221.355C105.658 221.493 105.823 221.557 105.974 221.506Z" fill="white"/>
<path d="M93.6904 193.069L101.633 192.201C102.126 192.76 102.724 194.493 102.901 195.272C103.182 196.517 102.932 197.759 102.299 198.758C101.667 199.761 100.656 200.522 99.4083 200.804C98.7993 200.943 95.7864 200.99 94.3704 199.609C92.2974 197.59 93.6904 193.069 93.6904 193.069Z" fill="#21899C"/>
<path d="M98.6466 197.314H103.759L101.795 209.477L110.421 219.529L105.945 220.788L97.7126 211.555C97.3076 211.097 97.0976 210.46 97.2026 209.81L98.6466 197.314Z" fill="#21899C"/>
<path d="M77.756 192.143L89.5941 191.937C90.1171 191.928 90.592 191.629 90.827 191.163L95.468 181.935L92.9531 180.67L88.694 189.138L77.707 189.329L77.756 192.143Z" fill="#21899C"/>
<path d="M94.6572 173.37L95.0162 180.841L98.4792 180.677L97.9782 173.462L97.8352 171.409L94.6572 173.37Z" fill="#F99AB6"/>
<path d="M97.3057 175.726C97.3057 175.726 96.5216 177.649 94.8846 178.129L94.7656 175.624L97.3057 175.726Z" fill="#F99AB6"/>
<path d="M93.529 177.795C93.391 177.774 93.1229 177.698 92.9889 177.662C91.7009 177.308 90.4289 175.184 90.4779 173.962C90.5359 172.504 90.6889 171.773 90.6049 170.784C90.4879 169.429 91.8049 168.366 93.1659 168.421L95.9209 168.53C96.9569 168.571 97.7639 169.445 97.7229 170.481L97.544 174.951C97.48 176.546 95.105 178.045 93.529 177.795Z" fill="#F99AB6"/>
<path d="M99.2195 178.788C98.8515 178.54 98.3975 178.417 97.9225 178.472L96.3904 178.651C95.6484 178.738 94.9715 179.005 94.3975 179.402C95.9825 179.864 97.8955 179.704 99.2195 178.788Z" fill="#F99AB6"/>
<path d="M101.599 181.729C101.53 180.526 100.463 178.903 99.1501 178.744C96.9301 179.056 94.9361 179.178 94.1861 179.355C92.8951 180.251 92.1261 181.81 92.3211 183.48L92.5161 197.302C96.6681 200.231 104.275 199.054 104.275 199.054C104.275 193.087 101.736 184.097 101.599 181.729Z" fill="#21899C"/>
<path d="M86.0811 192.066L95.748 192.169C96.45 192.177 97.0501 191.665 97.1541 190.971L98.7451 180.33L95.962 179.914L94.5521 189.343L86.1111 189.252L86.0811 192.066Z" fill="#21899C"/>
<path d="M94.5791 179.282C95.2121 179.132 96.3361 179.094 98.1241 178.877C97.1321 181.206 94.4561 183.142 93.6631 185.87C93.2481 185.416 93.2881 180.178 94.5791 179.282Z" fill="#F7B75D"/>
<path d="M94.689 179.711C94.804 179.579 95.174 179.32 95.185 179.183C95.472 179.148 95.425 179.256 95.823 179.219C94.739 180.222 95.365 181.874 94.938 183.384C94.394 184.155 93.924 184.969 93.663 185.87C93.434 185.618 93.344 183.898 93.529 182.263C93.548 182.086 93.807 180.716 94.689 179.711Z" fill="#21899C"/>
<path d="M94.5638 179.968C94.6998 180.146 95.2818 180.234 95.4638 180.103C95.6388 179.979 95.8118 179.302 95.8118 179.302L94.4669 179.101C94.4669 179.101 94.4328 179.798 94.5638 179.968Z" fill="#8EDEF2"/>
<path d="M92.1859 171.134C86.8509 169.974 90.6928 166.583 90.6928 166.583C90.6928 166.583 90.7989 167.849 91.8329 167.435C93.8099 166.642 98.1098 166.145 99.2918 168.726C100.212 170.737 98.4988 175.135 98.1748 176.282C97.6428 175.949 98.0909 170.772 95.9049 170.988C94.7099 171.105 93.3529 171.389 92.1859 171.134Z" fill="#21899C"/>
<path d="M92.9931 176.681C91.9031 176.632 92.6051 174.831 93.0201 174.854C93.4351 174.877 94.0831 176.728 92.9931 176.681Z" fill="#FFFEFF"/>
<path d="M96.4935 180.58L99.2004 178.781L98.2834 177.774L95.0635 179.206L96.4935 180.58Z" fill="white"/>
<path d="M94.2432 179.884L94.3972 179.284L94.9161 178.744L95.1362 179.206L94.2432 179.884Z" fill="white"/>
<path d="M96.6823 188.79C96.6823 188.46 96.4142 188.193 96.0852 188.193H74.4802C74.0272 188.193 73.6572 188.461 73.6572 188.789C73.6572 189.118 74.0272 189.386 74.4802 189.386H96.0852C96.4152 189.386 96.6823 189.119 96.6823 188.79Z" fill="#35A6B4"/>
<path d="M97.53 188.789C97.53 189.118 97.241 189.386 96.886 189.386H88.6821C88.3281 189.386 88.0391 189.118 88.0391 188.789C88.0391 188.461 88.3281 188.193 88.6821 188.193H96.886C97.241 188.193 97.53 188.461 97.53 188.789Z" fill="#C2F3FF"/>
<path d="M73.6904 177.013V187.909C73.6904 188.394 74.0844 188.788 74.5694 188.788H88.9444C89.4294 188.788 89.8235 188.394 89.8235 187.909V177.013C89.8235 176.528 89.4294 176.134 88.9444 176.134H74.5694C74.0844 176.134 73.6904 176.527 73.6904 177.013Z" fill="#C2F3FF"/>
<path d="M73.0205 177.013V187.909C73.0205 188.394 73.4145 188.788 73.8995 188.788H88.2735C88.7585 188.788 89.1525 188.394 89.1525 187.909V177.013C89.1525 176.528 88.7585 176.134 88.2735 176.134H73.8995C73.4145 176.134 73.0205 176.527 73.0205 177.013Z" fill="white"/>
<path d="M83.4578 182.46C83.4578 181.948 83.0428 181.534 82.5308 181.534H79.6428C79.1308 181.534 78.7158 181.948 78.7158 182.46C78.7158 182.972 79.1308 183.387 79.6428 183.387H82.5308C83.0428 183.387 83.4578 182.972 83.4578 182.46Z" fill="#C2F3FF"/>
<path d="M86.9905 190.657C87.0895 190.069 86.9665 189.497 86.6835 189.022L83.0495 188.41C82.6265 188.766 82.3225 189.267 82.2245 189.854C82.0025 191.17 82.8895 192.417 84.2055 192.638C85.5225 192.86 86.7685 191.974 86.9905 190.657Z" fill="#F99AB6"/>
<path d="M79.3206 189.985C79.3696 189.391 79.1996 188.831 78.8786 188.381L75.2066 188.074C74.8146 188.464 74.5546 188.988 74.5046 189.582C74.3936 190.912 75.3816 192.08 76.7116 192.191C78.0416 192.303 79.2096 191.315 79.3206 189.985Z" fill="#F99AB6"/>
<path d="M165.356 91.874L169.401 97.6901C169.426 97.8761 169.524 98.0481 169.689 98.1641C169.823 98.2581 169.98 98.2931 170.131 98.2841C170.283 98.2931 170.437 98.2581 170.573 98.1641C170.738 98.0491 170.837 97.8761 170.86 97.6901L174.905 91.874C175.124 91.557 175.047 91.1241 174.731 90.9061C174.417 90.6891 173.985 90.7651 173.767 91.0811L170.13 96.3121L166.493 91.0811C166.275 90.7661 165.843 90.6891 165.529 90.9061C165.216 91.1241 165.139 91.557 165.356 91.874Z" fill="#8EDEF2"/>
<path d="M165.356 85.6481L169.401 91.4641C169.426 91.6491 169.524 91.823 169.689 91.939C169.823 92.034 169.98 92.0691 170.131 92.0601C170.283 92.0691 170.437 92.034 170.573 91.939C170.738 91.824 170.837 91.6491 170.86 91.4641L174.905 85.6481C175.124 85.3331 175.047 84.901 174.731 84.684C174.417 84.463 173.985 84.54 173.767 84.855L170.13 90.09L166.493 84.855C166.275 84.541 165.843 84.463 165.529 84.684C165.216 84.901 165.139 85.3331 165.356 85.6481Z" fill="#8EDEF2"/>
<path d="M165.089 79.4271L169.133 85.2421C169.158 85.4291 169.257 85.6021 169.421 85.7161C169.557 85.8121 169.712 85.8471 169.865 85.8361C170.016 85.8471 170.171 85.8121 170.307 85.7161C170.471 85.6031 170.569 85.4291 170.594 85.2421L174.638 79.4271C174.858 79.1091 174.779 78.6771 174.465 78.4601C174.15 78.2411 173.718 78.3191 173.5 78.6331L169.864 83.866L166.227 78.6331C166.008 78.3201 165.576 78.2411 165.263 78.4601C164.95 78.6771 164.874 79.1081 165.089 79.4271Z" fill="#8EDEF2"/>
<path d="M165.089 73.201L169.133 79.019C169.158 79.204 169.257 79.377 169.421 79.493C169.557 79.585 169.712 79.622 169.865 79.611C170.016 79.622 170.171 79.585 170.307 79.493C170.471 79.378 170.569 79.204 170.594 79.019L174.638 73.201C174.858 72.886 174.779 72.454 174.465 72.234C174.15 72.016 173.718 72.094 173.5 72.409L169.864 77.641L166.227 72.409C166.008 72.095 165.576 72.016 165.263 72.234C164.95 72.454 164.874 72.886 165.089 73.201Z" fill="#8EDEF2"/>
<path d="M127.173 100.327L129.329 103.428C129.343 103.527 129.395 103.619 129.482 103.681C129.554 103.731 129.637 103.749 129.718 103.744C129.799 103.749 129.881 103.73 129.954 103.681C130.042 103.619 130.095 103.527 130.107 103.428L132.263 100.327C132.379 100.157 132.338 99.9269 132.17 99.8099C132.002 99.6949 131.772 99.7359 131.656 99.9029L129.717 102.693L127.779 99.9029C127.663 99.7359 127.432 99.6949 127.264 99.8099C127.099 99.9269 127.058 100.157 127.173 100.327Z" fill="#8EDEF2"/>
<path d="M127.173 97.0079L129.329 100.109C129.343 100.208 129.395 100.301 129.482 100.363C129.554 100.413 129.637 100.432 129.718 100.426C129.799 100.432 129.881 100.412 129.954 100.363C130.042 100.301 130.095 100.208 130.107 100.109L132.263 97.0079C132.379 96.8389 132.338 96.6099 132.17 96.4929C132.002 96.3759 131.772 96.4169 131.656 96.5849L129.717 99.3759L127.779 96.5849C127.663 96.4169 127.432 96.3759 127.264 96.4929C127.099 96.6089 127.058 96.8389 127.173 97.0079Z" fill="#8EDEF2"/>
<path d="M127.031 93.6899L129.186 96.7909C129.2 96.8909 129.252 96.9829 129.34 97.0439C129.412 97.0949 129.495 97.1129 129.576 97.1069C129.657 97.1129 129.739 97.0939 129.811 97.0439C129.899 96.9829 129.952 96.8909 129.965 96.7909L132.12 93.6899C132.237 93.5209 132.195 93.2909 132.028 93.1739C131.86 93.0579 131.63 93.0989 131.513 93.2669L129.575 96.0569L127.637 93.2669C127.52 93.0989 127.289 93.0579 127.122 93.1739C126.956 93.2909 126.916 93.5209 127.031 93.6899Z" fill="#8EDEF2"/>
<path d="M127.031 90.3709L129.186 93.474C129.2 93.573 129.252 93.664 129.34 93.726C129.412 93.776 129.495 93.795 129.576 93.789C129.657 93.795 129.739 93.775 129.811 93.726C129.899 93.664 129.952 93.573 129.965 93.474L132.12 90.3709C132.237 90.2029 132.195 89.9729 132.028 89.8559C131.86 89.7399 131.63 89.7809 131.513 89.9489L129.575 92.739L127.637 89.9489C127.52 89.7809 127.289 89.7399 127.122 89.8559C126.956 89.9729 126.916 90.2029 127.031 90.3709Z" fill="#8EDEF2"/>
<path fill-rule="evenodd" clip-rule="evenodd" d="M72.5113 105.239C76.2743 105.239 79.3242 102.188 79.3242 98.426C79.3242 94.663 76.2743 91.613 72.5113 91.613C68.7483 91.613 65.6982 94.664 65.6982 98.426C65.6982 102.188 68.7493 105.239 72.5113 105.239Z" fill="#8EDEF2"/>
<path d="M72.5145 103.211C75.1572 103.211 77.2995 101.069 77.2995 98.4261C77.2995 95.7834 75.1572 93.6411 72.5145 93.6411C69.8718 93.6411 67.7295 95.7834 67.7295 98.4261C67.7295 101.069 69.8718 103.211 72.5145 103.211Z" fill="#F7B75D"/>
<path fill-rule="evenodd" clip-rule="evenodd" d="M72.3254 98.965C73.1694 99.22 73.3514 99.352 73.3514 99.706C73.3514 100.065 72.7754 100.161 72.4364 100.161C72.1134 100.161 71.7294 100.058 71.5004 99.911C71.4094 99.852 71.2874 99.879 71.2284 99.97L70.8004 100.632C70.7394 100.724 70.7664 100.846 70.8594 100.905C71.1744 101.109 71.5904 101.255 72.0204 101.314V101.722C72.0204 101.83 72.1094 101.919 72.2174 101.919H73.0064C73.1144 101.919 73.2024 101.83 73.2024 101.722V101.248C74.0274 101.03 74.5334 100.451 74.5334 99.705C74.5334 98.396 73.4114 98.057 72.6674 97.832C71.8684 97.59 71.7074 97.479 71.7104 97.179C71.7104 96.846 72.2594 96.757 72.5844 96.757C72.9824 96.757 73.4314 96.936 73.6744 97.194C73.7104 97.232 73.7604 97.255 73.8124 97.256C73.8654 97.258 73.9164 97.238 73.9544 97.202L74.5264 96.66C74.6054 96.585 74.6094 96.461 74.5344 96.382C74.2004 96.028 73.7224 95.767 73.2034 95.648V95.198C73.2034 95.089 73.1154 95.001 73.0074 95.001H72.2184C72.1104 95.001 72.0214 95.089 72.0214 95.198V95.627C71.1084 95.797 70.5284 96.393 70.5284 97.177C70.5174 98.417 71.6054 98.747 72.3254 98.965Z" fill="white"/>
<path fill-rule="evenodd" clip-rule="evenodd" d="M91.603 85.567C93.869 85.567 95.706 83.73 95.706 81.464C95.706 79.198 93.869 77.361 91.603 77.361C89.337 77.361 87.5 79.198 87.5 81.464C87.5 83.73 89.337 85.567 91.603 85.567Z" fill="#8EDEF2"/>
<path d="M91.6046 84.346C93.1957 84.346 94.4856 83.0561 94.4856 81.465C94.4856 79.8738 93.1957 78.584 91.6046 78.584C90.0135 78.584 88.7236 79.8738 88.7236 81.465C88.7236 83.0561 90.0135 84.346 91.6046 84.346Z" fill="#F7B75D"/>
<path fill-rule="evenodd" clip-rule="evenodd" d="M91.4912 81.7889C91.9992 81.9419 92.1092 82.0209 92.1092 82.2349C92.1092 82.4509 91.7622 82.5079 91.5582 82.5079C91.3632 82.5079 91.1322 82.4459 90.9952 82.3579C90.9402 82.3229 90.8672 82.3379 90.8302 82.3939L90.5732 82.7919C90.5372 82.8469 90.5522 82.9199 90.6082 82.9559C90.7982 83.0789 91.0482 83.1669 91.3072 83.2029V83.4479C91.3072 83.5129 91.3612 83.5669 91.4262 83.5669H91.9012C91.9662 83.5669 92.0202 83.5129 92.0202 83.4479V83.1629C92.5162 83.0319 92.8212 82.6839 92.8212 82.2339C92.8212 81.4459 92.1452 81.2409 91.6972 81.1059C91.2172 80.9599 91.1202 80.8939 91.1212 80.7119C91.1212 80.5109 91.4522 80.4579 91.6472 80.4579C91.8872 80.4579 92.1572 80.5649 92.3032 80.7209C92.3252 80.7439 92.3552 80.7569 92.3862 80.7579C92.4172 80.7589 92.4492 80.7469 92.4712 80.7259L92.8162 80.3999C92.8642 80.3549 92.8662 80.2799 92.8212 80.2319C92.6202 80.0189 92.3332 79.8619 92.0202 79.7899V79.5189C92.0202 79.4529 91.9662 79.3999 91.9012 79.3999H91.4262C91.3612 79.3999 91.3072 79.4529 91.3072 79.5189V79.7769C90.7572 79.8799 90.4092 80.2379 90.4092 80.7109C90.4022 81.4589 91.0572 81.6569 91.4912 81.7889Z" fill="white"/>
<path fill-rule="evenodd" clip-rule="evenodd" d="M119.584 85.198C121.308 85.198 122.705 83.801 122.705 82.076C122.705 80.352 121.308 78.954 119.584 78.954C117.859 78.954 116.462 80.352 116.462 82.076C116.462 83.801 117.86 85.198 119.584 85.198Z" fill="#8EDEF2"/>
<path d="M119.585 84.2681C120.795 84.2681 121.777 83.2867 121.777 82.076C121.777 80.8654 120.795 79.884 119.585 79.884C118.374 79.884 117.393 80.8654 117.393 82.076C117.393 83.2867 118.374 84.2681 119.585 84.2681Z" fill="#F7B75D"/>
<path fill-rule="evenodd" clip-rule="evenodd" d="M119.499 82.323C119.886 82.439 119.97 82.5 119.97 82.663C119.97 82.827 119.705 82.871 119.55 82.871C119.403 82.871 119.226 82.824 119.121 82.757C119.08 82.73 119.023 82.742 118.996 82.784L118.801 83.087C118.774 83.129 118.785 83.185 118.827 83.212C118.972 83.306 119.162 83.372 119.359 83.4V83.588C119.359 83.638 119.4 83.678 119.449 83.678H119.811C119.861 83.678 119.901 83.638 119.901 83.588V83.371C120.279 83.271 120.511 83.006 120.511 82.664C120.511 82.064 119.996 81.908 119.656 81.806C119.29 81.695 119.217 81.645 119.218 81.506C119.218 81.354 119.469 81.313 119.618 81.313C119.801 81.313 120.006 81.395 120.118 81.513C120.134 81.531 120.156 81.54 120.181 81.541C120.206 81.542 120.229 81.533 120.245 81.517L120.508 81.268C120.544 81.234 120.546 81.177 120.512 81.141C120.359 80.979 120.14 80.859 119.902 80.804V80.598C119.902 80.548 119.862 80.507 119.812 80.507H119.45C119.401 80.507 119.36 80.548 119.36 80.598V80.794C118.942 80.872 118.676 81.145 118.676 81.504C118.67 82.071 119.168 82.223 119.499 82.323Z" fill="white"/>
<path fill-rule="evenodd" clip-rule="evenodd" d="M212.043 129.751C213.768 129.751 215.165 128.354 215.165 126.629C215.165 124.905 213.768 123.508 212.043 123.508C210.319 123.508 208.921 124.905 208.921 126.629C208.92 128.353 210.319 129.751 212.043 129.751Z" fill="#8EDEF2"/>
<path d="M212.044 128.821C213.254 128.821 214.236 127.84 214.236 126.629C214.236 125.418 213.254 124.437 212.044 124.437C210.833 124.437 209.852 125.418 209.852 126.629C209.852 127.84 210.833 128.821 212.044 128.821Z" fill="#F7B75D"/>
<path fill-rule="evenodd" clip-rule="evenodd" d="M211.958 126.876C212.345 126.993 212.428 127.053 212.428 127.216C212.428 127.38 212.164 127.424 212.009 127.424C211.861 127.424 211.685 127.377 211.58 127.31C211.538 127.283 211.482 127.295 211.455 127.337L211.26 127.64C211.232 127.682 211.244 127.739 211.286 127.765C211.431 127.859 211.621 127.925 211.818 127.953V128.141C211.818 128.191 211.859 128.232 211.908 128.232H212.27C212.32 128.232 212.36 128.191 212.36 128.141V127.924C212.738 127.824 212.969 127.559 212.969 127.217C212.969 126.617 212.455 126.461 212.115 126.359C211.749 126.248 211.675 126.198 211.677 126.06C211.677 125.907 211.928 125.866 212.077 125.866C212.259 125.866 212.465 125.949 212.576 126.066C212.593 126.084 212.615 126.094 212.639 126.094C212.663 126.095 212.687 126.086 212.704 126.07L212.967 125.822C213.003 125.788 213.005 125.73 212.97 125.694C212.818 125.532 212.598 125.412 212.361 125.357V125.151C212.361 125.101 212.321 125.061 212.271 125.061H211.909C211.86 125.061 211.819 125.101 211.819 125.151V125.347C211.4 125.425 211.134 125.698 211.134 126.058C211.128 126.625 211.627 126.776 211.958 126.876Z" fill="white"/>
<path fill-rule="evenodd" clip-rule="evenodd" d="M145.917 78.8889C143.436 78.8889 140.733 80.8099 140.733 84.0139C140.733 88.8909 145.928 94.0439 145.928 94.0439C145.928 94.0439 151.123 88.8069 151.123 84.0139C151.124 80.8089 148.256 78.8889 145.917 78.8889ZM148.501 83.8269C148.501 85.2119 147.378 86.3349 145.993 86.3349C144.608 86.3349 143.485 85.2119 143.485 83.8269C143.485 82.4419 144.608 81.3189 145.993 81.3189C147.378 81.3189 148.501 82.4419 148.501 83.8269Z" fill="#8EDEF2"/>
<path fill-rule="evenodd" clip-rule="evenodd" d="M232.011 122.553C229.53 122.553 226.827 124.474 226.827 127.678C226.827 132.554 232.022 137.708 232.022 137.708C232.022 137.708 237.217 132.47 237.217 127.678C237.218 124.474 234.351 122.553 232.011 122.553ZM234.596 127.491C234.596 128.876 233.473 129.999 232.088 129.999C230.703 129.999 229.58 128.876 229.58 127.491C229.58 126.106 230.703 124.983 232.088 124.983C233.473 124.983 234.596 126.106 234.596 127.491Z" fill="#8EDEF2"/>
<path fill-rule="evenodd" clip-rule="evenodd" d="M291.822 157.183C289.34 157.183 286.638 159.104 286.638 162.308C286.638 167.185 291.833 172.338 291.833 172.338C291.833 172.338 297.028 167.101 297.028 162.308C297.029 159.103 294.162 157.183 291.822 157.183ZM294.407 162.122C294.407 163.507 293.284 164.629 291.899 164.629C290.514 164.629 289.391 163.507 289.391 162.122C289.391 160.736 290.514 159.614 291.899 159.614C293.284 159.614 294.407 160.736 294.407 162.122Z" fill="#8EDEF2"/>
<path d="M132.256 125.153L133.596 127.868L136.591 128.304L134.423 130.416L134.936 133.399L132.256 131.991L129.577 133.399L130.088 130.416L127.921 128.304L130.917 127.868L132.256 125.153Z" fill="#F7B75D"/>
<path d="M144.442 125.153L145.781 127.868L148.777 128.304L146.609 130.416L147.121 133.399L144.442 131.991L141.762 133.399L142.274 130.416L140.107 128.304L143.102 127.868L144.442 125.153Z" fill="#F7B75D"/>
<path d="M156.626 125.153L157.966 127.868L160.962 128.304L158.794 130.416L159.306 133.399L156.626 131.991L153.948 133.399L154.459 130.416L152.292 128.304L155.288 127.868L156.626 125.153Z" fill="#F7B75D"/>
<path d="M168.812 125.153L170.152 127.868L173.148 128.304L170.98 130.416L171.492 133.399L168.812 131.991L166.133 133.399L166.645 130.416L164.477 128.304L167.472 127.868L168.812 125.153Z" fill="#F7B75D"/>
<path d="M180.998 125.153L182.337 127.868L185.333 128.304L183.166 130.416L183.677 133.399L180.998 131.991L178.318 133.399L178.83 130.416L176.663 128.304L179.658 127.868L180.998 125.153Z" fill="#F7B75D"/>
<path d="M205.315 204.102C204.674 204.102 204.08 203.689 203.88 203.044C203.636 202.253 204.08 201.413 204.872 201.168C205.164 201.078 205.451 200.981 205.735 200.875C206.511 200.586 207.376 200.979 207.665 201.756C207.955 202.532 207.561 203.397 206.784 203.686C206.445 203.812 206.103 203.928 205.756 204.036C205.609 204.081 205.461 204.102 205.315 204.102Z" fill="#21899C"/>
<path d="M200.17 204.871H199.265C198.437 204.871 197.765 204.199 197.765 203.371C197.765 202.543 198.437 201.871 199.265 201.871H200.17C200.52 201.871 200.867 201.859 201.211 201.838C202.057 201.793 202.75 202.414 202.802 203.241C202.854 204.068 202.225 204.78 201.399 204.832C200.993 204.857 200.583 204.871 200.17 204.871ZM195.185 204.871H193.144C192.316 204.871 191.644 204.199 191.644 203.371C191.644 202.543 192.316 201.871 193.144 201.871H195.185C196.013 201.871 196.685 202.543 196.685 203.371C196.685 204.199 196.013 204.871 195.185 204.871ZM189.063 204.871H187.023C186.195 204.871 185.523 204.199 185.523 203.371C185.523 202.543 186.195 201.871 187.023 201.871H189.063C189.891 201.871 190.563 202.543 190.563 203.371C190.563 204.199 189.891 204.871 189.063 204.871ZM182.942 204.871H180.902C180.074 204.871 179.402 204.199 179.402 203.371C179.402 202.543 180.074 201.871 180.902 201.871H182.942C183.77 201.871 184.442 202.543 184.442 203.371C184.442 204.199 183.77 204.871 182.942 204.871ZM176.821 204.871H174.781C173.953 204.871 173.281 204.199 173.281 203.371C173.281 202.543 173.953 201.871 174.781 201.871H176.821C177.649 201.871 178.321 202.543 178.321 203.371C178.321 204.199 177.649 204.871 176.821 204.871ZM170.7 204.871H168.659C167.831 204.871 167.159 204.199 167.159 203.371C167.159 202.543 167.831 201.871 168.659 201.871H170.7C171.528 201.871 172.2 202.543 172.2 203.371C172.2 204.199 171.528 204.871 170.7 204.871ZM164.579 204.871H162.538C161.71 204.871 161.038 204.199 161.038 203.371C161.038 202.543 161.71 201.871 162.538 201.871H164.579C165.407 201.871 166.079 202.543 166.079 203.371C166.079 204.199 165.407 204.871 164.579 204.871ZM158.457 204.871H156.417C155.589 204.871 154.917 204.199 154.917 203.371C154.917 202.543 155.589 201.871 156.417 201.871H158.457C159.285 201.871 159.957 202.543 159.957 203.371C159.957 204.199 159.285 204.871 158.457 204.871ZM152.335 204.871H150.295C149.467 204.871 148.795 204.199 148.795 203.371C148.795 202.543 149.467 201.871 150.295 201.871H152.335C153.163 201.871 153.835 202.543 153.835 203.371C153.835 204.199 153.164 204.871 152.335 204.871ZM146.214 204.871H146.003C145.305 204.871 144.605 204.809 143.922 204.688C143.107 204.543 142.563 203.765 142.707 202.95C142.851 202.134 143.626 201.582 144.445 201.735C144.955 201.825 145.479 201.871 146.003 201.871H146.214C147.042 201.871 147.714 202.543 147.714 203.371C147.714 204.199 147.043 204.871 146.214 204.871ZM140.412 203.228C140.134 203.228 139.852 203.151 139.6 202.989C138.949 202.569 138.334 202.082 137.775 201.541C137.179 200.965 137.164 200.015 137.74 199.42C138.318 198.823 139.267 198.811 139.861 199.385C140.28 199.79 140.738 200.155 141.225 200.468C141.921 200.916 142.122 201.844 141.673 202.541C141.387 202.986 140.904 203.228 140.412 203.228ZM136.512 198.628C135.931 198.628 135.378 198.289 135.134 197.722C134.825 197.008 134.587 196.259 134.426 195.497C134.255 194.686 134.773 193.891 135.583 193.719C136.386 193.553 137.189 194.065 137.361 194.876C137.481 195.443 137.658 196.002 137.887 196.534C138.215 197.295 137.865 198.177 137.104 198.505C136.912 198.589 136.71 198.628 136.512 198.628ZM135.67 192.623C134.842 192.623 134.17 191.951 134.17 191.123V189.082C134.17 188.254 134.842 187.582 135.67 187.582C136.498 187.582 137.17 188.254 137.17 189.082V191.123C137.17 191.951 136.499 192.623 135.67 192.623ZM135.67 186.502C134.842 186.502 134.17 185.83 134.17 185.002V182.961C134.17 182.133 134.842 181.461 135.67 181.461C136.498 181.461 137.17 182.133 137.17 182.961V185.002C137.17 185.83 136.499 186.502 135.67 186.502Z" fill="#21899C"/>
<path d="M228.628 141.135C228.034 141.135 227.473 140.781 227.236 140.198C226.925 139.429 227.296 138.555 228.063 138.244C228.399 138.108 228.74 137.983 229.085 137.866C229.869 137.601 230.721 138.021 230.986 138.806C231.252 139.59 230.831 140.442 230.046 140.707C229.757 140.805 229.471 140.91 229.19 141.024C229.006 141.1 228.816 141.135 228.628 141.135Z" fill="#8EDEF2"/>
<path d="M210.699 201.351C210.245 201.351 209.796 201.145 209.501 200.754C209.002 200.092 209.134 199.151 209.795 198.653C210.288 198.281 210.764 197.878 211.209 197.453C211.808 196.881 212.756 196.902 213.329 197.503C213.901 198.102 213.879 199.052 213.279 199.623C212.751 200.128 212.186 200.607 211.601 201.048C211.331 201.253 211.013 201.351 210.699 201.351ZM214.834 196.925C214.553 196.925 214.269 196.846 214.016 196.682C213.322 196.229 213.126 195.299 213.578 194.606C213.915 194.09 214.224 193.548 214.5 192.997C214.87 192.257 215.771 191.957 216.512 192.323C217.253 192.693 217.555 193.594 217.186 194.335C216.859 194.99 216.491 195.633 216.092 196.245C215.804 196.685 215.324 196.925 214.834 196.925ZM217.216 191.354C217.104 191.354 216.989 191.341 216.875 191.315C216.067 191.127 215.566 190.321 215.754 189.514C215.894 188.914 215.999 188.299 216.068 187.686C216.161 186.863 216.904 186.265 217.725 186.363C218.548 186.455 219.141 187.197 219.048 188.02C218.967 188.749 218.841 189.481 218.675 190.194C218.515 190.887 217.898 191.354 217.216 191.354ZM217.67 185.299C216.842 185.299 216.17 184.627 216.17 183.799V181.769C216.17 180.941 216.842 180.269 217.67 180.269C218.498 180.269 219.17 180.941 219.17 181.769V183.799C219.17 184.627 218.499 185.299 217.67 185.299ZM217.67 179.209C216.842 179.209 216.17 178.537 216.17 177.709V175.68C216.17 174.852 216.842 174.18 217.67 174.18C218.498 174.18 219.17 174.852 219.17 175.68V177.709C219.17 178.537 218.499 179.209 217.67 179.209ZM217.67 173.12C216.842 173.12 216.17 172.448 216.17 171.62V169.59C216.17 168.762 216.842 168.09 217.67 168.09C218.498 168.09 219.17 168.762 219.17 169.59V171.62C219.17 172.448 218.499 173.12 217.67 173.12ZM217.67 167.03C216.842 167.03 216.17 166.358 216.17 165.53V163.5C216.17 162.672 216.842 162 217.67 162C218.498 162 219.17 162.672 219.17 163.5V165.53C219.17 166.358 218.499 167.03 217.67 167.03ZM217.67 160.94C216.842 160.94 216.17 160.268 216.17 159.44V157.411C216.17 156.583 216.842 155.911 217.67 155.911C218.498 155.911 219.17 156.583 219.17 157.411V159.44C219.17 160.268 218.499 160.94 217.67 160.94ZM217.851 154.86C217.78 154.86 217.707 154.855 217.634 154.844C216.815 154.726 216.245 153.965 216.364 153.145C216.468 152.419 216.617 151.694 216.803 150.988C217.016 150.188 217.837 149.713 218.638 149.923C219.439 150.136 219.915 150.957 219.703 151.758C219.545 152.352 219.421 152.963 219.332 153.575C219.226 154.322 218.584 154.86 217.851 154.86ZM219.741 149.105C219.502 149.105 219.259 149.048 219.033 148.927C218.304 148.535 218.028 147.626 218.42 146.896C218.766 146.252 219.153 145.621 219.572 145.019C220.045 144.338 220.979 144.17 221.66 144.646C222.34 145.12 222.507 146.054 222.033 146.734C221.68 147.24 221.354 147.772 221.064 148.314C220.793 148.818 220.276 149.105 219.741 149.105ZM223.487 144.343C223.075 144.343 222.666 144.175 222.37 143.845C221.816 143.228 221.868 142.28 222.484 141.727C223.029 141.238 223.607 140.776 224.204 140.354C224.881 139.875 225.816 140.034 226.295 140.71C226.774 141.386 226.614 142.322 225.939 142.801C225.436 143.157 224.948 143.547 224.489 143.959C224.201 144.216 223.843 144.343 223.487 144.343Z" fill="#21899C"/>
<path d="M206.261 203.781C205.652 203.781 205.078 203.407 204.855 202.802C204.567 202.026 204.963 201.162 205.74 200.874C206.026 200.768 206.307 200.654 206.585 200.532C207.346 200.197 208.23 200.545 208.562 201.302C208.895 202.061 208.55 202.946 207.792 203.279C207.46 203.425 207.124 203.561 206.783 203.687C206.611 203.751 206.434 203.781 206.261 203.781Z" fill="#21899C"/>
<path d="M255.003 139.871H254.003C253.175 139.871 252.503 139.199 252.503 138.371C252.503 137.543 253.175 136.871 254.003 136.871H255.003C255.831 136.871 256.503 137.543 256.503 138.371C256.503 139.199 255.832 139.871 255.003 139.871Z" fill="#8EDEF2"/>
<path d="M234.747 139.876C233.934 139.876 233.266 139.225 233.248 138.407C233.231 137.579 233.889 136.893 234.717 136.876L236.888 136.871C237.716 136.871 238.388 137.543 238.388 138.371C238.388 139.199 237.716 139.871 236.888 139.871L234.78 139.876C234.768 139.876 234.757 139.876 234.747 139.876ZM249.724 139.871H247.584C246.756 139.871 246.084 139.199 246.084 138.371C246.084 137.543 246.756 136.871 247.584 136.871H249.724C250.552 136.871 251.224 137.543 251.224 138.371C251.224 139.199 250.552 139.871 249.724 139.871ZM243.305 139.871H241.166C240.338 139.871 239.666 139.199 239.666 138.371C239.666 137.543 240.338 136.871 241.166 136.871H243.305C244.133 136.871 244.805 137.543 244.805 138.371C244.805 139.199 244.133 139.871 243.305 139.871Z" fill="#8EDEF2"/>
<path d="M229.567 140.787C228.941 140.787 228.358 140.393 228.146 139.767C227.88 138.983 228.301 138.131 229.086 137.866C229.427 137.751 229.774 137.644 230.124 137.548C230.921 137.331 231.748 137.798 231.969 138.596C232.189 139.394 231.72 140.22 230.921 140.441C230.627 140.522 230.335 140.611 230.048 140.709C229.888 140.762 229.726 140.787 229.567 140.787Z" fill="#8EDEF2"/>
<path d="M141.665 179.507L138.241 176.082L135.412 178.91L138.836 182.335L141.665 179.507Z" fill="white"/>
<path d="M141.696 173.785L133.105 182.375L133.107 173.786L141.696 173.785Z" fill="white"/>
<path d="M268.685 202.024L249.026 182.364C248.13 181.469 246.674 181.294 245.688 182.087C244.55 183.001 244.466 184.663 245.453 185.684C246.572 186.841 249.059 189.376 250.277 190.615C250.665 191.011 250.659 191.641 250.267 192.033C249.873 192.428 249.235 192.428 248.841 192.033L243.193 186.385C242.007 185.199 240.085 185.199 238.899 186.385C237.729 187.555 237.711 189.447 238.859 190.638L244.667 196.599C244.95 196.889 244.947 197.354 244.66 197.642C244.374 197.928 243.91 197.932 243.619 197.65L235.636 189.921C234.444 188.777 232.556 188.798 231.388 189.966L230.994 190.361C229.831 191.523 229.805 193.399 230.934 194.593L239.143 203.159L238.478 203.824L219.057 184.981C217.891 183.85 216.033 183.864 214.883 185.013C213.723 186.173 213.722 188.055 214.881 189.217L241.866 216.26H229.04C227.092 216.26 225.513 217.839 225.513 219.787V219.79C225.513 221.558 226.818 223.008 228.515 223.262H253.974C254.87 223.075 255.694 222.618 256.346 221.965L268.686 210.625C271.05 208.259 271.05 204.39 268.685 202.024Z" fill="white"/>
<path d="M225.851 235.413H185.851C185.022 235.413 184.351 234.741 184.351 233.913C184.351 233.085 185.022 232.413 185.851 232.413H225.851C226.68 232.413 227.351 233.085 227.351 233.913C227.351 234.741 226.68 235.413 225.851 235.413Z" fill="#8EDEF2"/>
<path d="M173.851 235.413H163.851C163.022 235.413 162.351 234.741 162.351 233.913C162.351 233.085 163.022 232.413 163.851 232.413H173.851C174.68 232.413 175.351 233.085 175.351 233.913C175.351 234.741 174.68 235.413 173.851 235.413Z" fill="#8EDEF2"/>
<path d="M201.69 228.266C201.179 228.266 200.674 228.031 200.349 227.585L194.607 219.726C194.161 219.115 194.185 218.278 194.666 217.694L202.171 208.581C202.753 207.873 203.798 207.773 204.505 208.354C205.213 208.936 205.314 209.982 204.732 210.689L198.046 218.808L203.028 225.629C203.569 226.368 203.407 227.406 202.668 227.946C202.373 228.162 202.03 228.266 201.69 228.266Z" fill="#21899C"/>
<path d="M212.71 228.251C212.37 228.251 212.027 228.147 211.732 227.931C210.993 227.39 210.832 226.352 211.373 225.613L216.377 218.775L209.718 210.678C209.136 209.97 209.238 208.925 209.946 208.343C210.654 207.76 211.7 207.864 212.282 208.57L219.759 217.662C220.24 218.248 220.264 219.085 219.816 219.696L214.052 227.572C213.726 228.016 213.222 228.251 212.71 228.251Z" fill="#21899C"/>
<path d="M202.825 198.421C202.825 201.064 204.969 203.206 207.611 203.206C210.255 203.206 212.397 201.063 212.397 198.421C212.397 195.777 210.254 194.575 207.611 194.575C204.968 194.575 202.825 195.777 202.825 198.421Z" fill="#21899C"/>
<path d="M205.856 204.3L205.868 208.851L205.878 211.827L209.366 211.819L209.191 204.543L209.141 202.473L205.856 204.3Z" fill="#F99AB6"/>
<path d="M202.181 211.433C202.192 210.012 203.419 208.638 204.691 207.977C206.593 206.987 209.529 207.676 210.464 208.233C212.056 209.18 213.005 211.105 212.893 213.084L213.005 223.698H201.733C201.733 223.698 202.155 214.662 202.181 211.433Z" fill="#21899C"/>
<path d="M209.868 207.962C208.48 207.378 206.522 207.186 204.941 207.864L206.112 209.035C206.853 209.776 208.054 209.776 208.795 209.035C209.152 208.678 209.51 208.319 209.868 207.962Z" fill="#F99AB6"/>
<path d="M206.703 195.683H208.519C210.123 195.683 211.624 196.996 211.424 198.587C211.278 199.746 211.424 200.616 211.424 202.336C211.424 203.778 209.735 206.576 208.292 206.576H206.929C205.487 206.576 203.798 203.778 203.798 202.336C203.798 200.616 203.944 199.746 203.798 198.587C203.597 196.995 205.099 195.683 206.703 195.683Z" fill="#F99AB6"/>
<path d="M209.084 203.983C208.953 204.678 208.346 205.205 207.612 205.205C206.88 205.205 206.271 204.679 206.141 203.983H209.084Z" fill="#FFFEFF"/>
<path d="M209.18 233.849H205.558C202.955 233.849 201.004 231.468 201.515 228.917L201.733 223.697H213.005L213.222 228.917C213.733 231.468 211.782 233.849 209.18 233.849Z" fill="#35A6B4"/>
<path d="M190.876 228.024L206.266 226.557L206.705 231.166L191.315 232.633C190.055 232.754 188.936 231.829 188.816 230.57L188.811 230.524C188.691 229.264 189.616 228.145 190.876 228.024Z" fill="#35A6B4"/>
<path d="M221.599 228.024L206.209 226.557L205.77 231.166L221.16 232.633C222.42 232.754 223.539 231.829 223.659 230.57L223.663 230.524C223.783 229.264 222.859 228.145 221.599 228.024Z" fill="#35A6B4"/>
<path d="M213.394 231.154H201.346C200.727 231.154 200.225 230.652 200.225 230.033V222.046C200.225 221.427 200.727 220.925 201.346 220.925H213.394C214.013 220.925 214.515 221.427 214.515 222.046V230.033C214.515 230.652 214.013 231.154 213.394 231.154Z" fill="white"/>
<path d="M213.394 231.628H201.346C200.727 231.628 200.225 231.126 200.225 230.507V222.521C200.225 221.902 200.727 221.4 201.346 221.4H213.394C214.013 221.4 214.515 221.902 214.515 222.521V230.507C214.515 231.126 214.013 231.628 213.394 231.628Z" fill="#8EDEF2"/>
<path d="M209.019 227.365H205.719C205.253 227.365 204.875 226.988 204.875 226.522V226.504C204.875 226.038 205.253 225.66 205.719 225.66H209.019C209.485 225.66 209.863 226.038 209.863 226.504V226.522C209.863 226.988 209.485 227.365 209.019 227.365Z" fill="white"/>
<path d="M201.303 235.855L205.788 235.585L205.773 235.668C205.731 235.929 205.936 236.164 206.2 236.157C206.402 236.151 206.572 236.004 206.604 235.804L206.649 235.533L207.153 235.503L207.132 235.632C207.089 235.893 207.295 236.128 207.559 236.121C207.761 236.115 207.93 235.967 207.963 235.768L208.015 235.451L210.836 235.281C210.896 235.26 210.953 235.229 211.01 235.191C211.12 235.167 211.231 235.138 211.34 235.099C212.638 234.629 213.309 233.197 212.839 231.899C212.37 230.601 210.937 229.929 209.639 230.399C209.63 230.402 209.621 230.407 209.612 230.411C209.607 230.412 209.602 230.412 209.597 230.414L200.694 233.636C200.552 233.687 200.429 233.775 200.322 233.888C199.594 234.649 200.252 235.918 201.303 235.855Z" fill="white"/>
<path d="M210.505 235.86C211.885 235.86 213.004 234.741 213.004 233.361C213.004 231.981 211.885 230.862 210.505 230.862C209.125 230.862 208.006 231.981 208.006 233.361C208.006 234.741 209.125 235.86 210.505 235.86Z" fill="#F7B75D"/>
<path d="M200.709 234.248L209.612 231.026C210.553 230.685 211.592 231.172 211.932 232.114C212.273 233.055 211.791 235.552 210.851 235.893L201.318 236.465C200.267 236.528 199.609 235.26 200.337 234.498C200.445 234.387 200.568 234.299 200.709 234.248Z" fill="#F7B75D"/>
<path d="M207.709 234.936C207.973 234.928 208.178 235.164 208.136 235.424L207.979 236.379C207.946 236.578 207.777 236.727 207.575 236.732C207.31 236.739 207.105 236.504 207.148 236.243L207.305 235.288C207.337 235.089 207.507 234.941 207.709 234.936Z" fill="white"/>
<path d="M206.351 234.973C206.615 234.966 206.82 235.201 206.778 235.462L206.621 236.417C206.588 236.616 206.419 236.764 206.217 236.769C205.953 236.777 205.747 236.541 205.79 236.281L205.947 235.326C205.98 235.126 206.149 234.977 206.351 234.973Z" fill="white"/>
<path d="M220.661 228.996L210.265 231.793C209.265 232.062 208.673 233.09 208.942 234.09L208.952 234.126C209.221 235.126 210.249 235.718 211.249 235.449L221.645 232.652C222.645 232.382 223.237 231.354 222.968 230.355L222.958 230.318C222.689 229.319 221.661 228.726 220.661 228.996Z" fill="#F99AB6"/>
<path d="M211.172 235.855L206.687 235.585L206.701 235.668C206.744 235.929 206.539 236.164 206.274 236.157C206.073 236.151 205.903 236.004 205.871 235.804L205.826 235.533L205.322 235.503L205.343 235.632C205.386 235.893 205.181 236.128 204.917 236.121C204.715 236.115 204.545 235.967 204.513 235.768L204.46 235.451L201.64 235.281C201.58 235.26 201.522 235.229 201.466 235.191C201.356 235.167 201.245 235.138 201.136 235.099C199.838 234.629 199.167 233.197 199.636 231.899C200.106 230.601 201.538 229.929 202.837 230.399C202.846 230.402 202.855 230.407 202.864 230.411C202.869 230.412 202.874 230.412 202.879 230.414L211.782 233.636C211.923 233.687 212.047 233.775 212.154 233.888C212.88 234.649 212.223 235.918 211.172 235.855Z" fill="white"/>
<path d="M201.969 235.86C203.349 235.86 204.468 234.741 204.468 233.361C204.468 231.981 203.349 230.862 201.969 230.862C200.589 230.862 199.47 231.981 199.47 233.361C199.47 234.741 200.589 235.86 201.969 235.86Z" fill="#F7B75D"/>
<path d="M211.765 234.248L202.862 231.026C201.921 230.685 200.882 231.172 200.542 232.114C200.201 233.055 200.683 235.552 201.623 235.893L211.156 236.465C212.207 236.528 212.865 235.26 212.137 234.498C212.03 234.387 211.907 234.299 211.765 234.248Z" fill="#F7B75D"/>
<path d="M204.765 234.936C204.501 234.928 204.295 235.164 204.338 235.424L204.495 236.379C204.528 236.578 204.697 236.727 204.899 236.732C205.163 236.739 205.369 236.504 205.326 236.243L205.169 235.288C205.136 235.089 204.967 234.941 204.765 234.936Z" fill="white"/>
<path d="M206.124 234.973C205.859 234.966 205.654 235.201 205.697 235.462L205.854 236.417C205.887 236.616 206.056 236.764 206.258 236.769C206.522 236.777 206.727 236.541 206.684 236.281L206.528 235.326C206.495 235.126 206.325 234.977 206.124 234.973Z" fill="white"/>
<path d="M191.813 228.996L202.21 231.793C203.21 232.062 203.802 233.09 203.533 234.09L203.523 234.126C203.253 235.126 202.225 235.718 201.226 235.449L190.829 232.652C189.83 232.382 189.237 231.354 189.507 230.355L189.517 230.318C189.786 229.319 190.814 228.726 191.813 228.996Z" fill="#F99AB6"/>
<path d="M207.9 193.829C212.261 193.829 212.184 198.507 212.184 198.507C207.611 199.384 205.856 196.143 205.856 195.511C205.856 195.511 206.335 193.829 207.9 193.829Z" fill="#21899C"/>
<path d="M205.632 194.86C202.148 194.397 202.938 198.969 202.938 198.969C205.238 198.525 206.598 196.655 206.519 196.24L205.632 194.86Z" fill="#21899C"/>
<path d="M145.888 165.933C145.409 165.933 144.937 165.713 144.632 165.296L139.254 157.934C138.835 157.362 138.858 156.578 139.309 156.03L146.337 147.494C146.882 146.832 147.862 146.738 148.525 147.282C149.188 147.828 149.283 148.807 148.737 149.47L142.474 157.075L147.142 163.464C147.648 164.156 147.496 165.129 146.803 165.635C146.527 165.836 146.207 165.933 145.888 165.933Z" fill="#F7B75D"/>
<path d="M156.211 165.919C155.893 165.919 155.571 165.821 155.295 165.619C154.603 165.112 154.452 164.14 154.959 163.447L159.647 157.043L153.409 149.458C152.864 148.796 152.959 147.815 153.622 147.27C154.285 146.725 155.264 146.822 155.808 147.484L162.813 156C163.263 156.549 163.287 157.332 162.868 157.905L157.467 165.283C157.162 165.698 156.69 165.919 156.211 165.919Z" fill="#F7B75D"/>
<path d="M151.208 143.188C153.684 143.188 155.691 141.181 155.691 138.705C155.691 136.229 153.684 134.222 151.208 134.222C148.732 134.222 146.725 136.229 146.725 138.705C146.725 141.181 148.732 143.188 151.208 143.188Z" fill="#35A6B4"/>
<path d="M152.852 143.484L152.839 147.748L152.831 150.535L149.563 150.527L149.727 143.712L149.774 141.772L152.852 143.484Z" fill="#F99AB6"/>
<path d="M146.348 150.165C146.359 148.835 147.508 147.548 148.699 146.929C150.482 146.001 153.231 146.647 154.108 147.168C155.599 148.056 156.487 149.857 156.382 151.711L156.486 161.654H145.927C145.927 161.654 146.324 153.19 146.348 150.165Z" fill="#F7B75D"/>
<path d="M151.366 153.165C152.141 150.781 152.993 149.115 153.759 146.996C151.412 146.11 149.139 146.605 148.655 146.996C149.422 149.115 150.272 150.781 151.048 153.165C151.088 153.337 151.204 153.613 151.207 153.609C151.21 153.613 151.213 153.623 151.216 153.626C151.224 153.599 151.327 153.337 151.366 153.165Z" fill="#C2F3FF"/>
<path d="M151.488 147.164H151.207H150.925L150.397 150.387L150.77 152.349L151.207 153.609L151.644 152.349L152.017 150.387L151.488 147.164Z" fill="#21899C"/>
<path d="M152.057 135.276H150.356C148.853 135.276 147.447 136.506 147.635 137.998C147.772 139.084 147.635 139.897 147.635 141.509C147.635 142.861 149.217 145.481 150.568 145.481H151.845C153.196 145.481 154.778 142.861 154.778 141.509C154.778 139.898 154.641 139.084 154.778 137.998C154.966 136.507 153.56 135.276 152.057 135.276Z" fill="#F99AB6"/>
<path d="M149.829 143.187C149.951 143.838 150.52 144.332 151.207 144.332C151.894 144.332 152.463 143.839 152.585 143.187H149.829Z" fill="#FFFEFF"/>
<path d="M152.903 171.163H149.51C147.072 171.163 145.245 168.933 145.724 166.543L145.927 161.654H156.486L156.69 166.543C157.168 168.933 155.34 171.163 152.903 171.163Z" fill="#21899C"/>
<path d="M158.137 167.783H144.754C144.174 167.783 143.703 167.312 143.703 166.733V159.252C143.703 158.672 144.174 158.201 144.754 158.201H158.137C158.717 158.201 159.187 158.672 159.187 159.252V166.733C159.187 167.312 158.717 167.783 158.137 167.783Z" fill="#21899C"/>
<path d="M158.137 168.226H144.754C144.174 168.226 143.703 167.756 143.703 167.176V159.695C143.703 159.115 144.174 158.645 144.754 158.645H158.137C158.717 158.645 159.187 159.115 159.187 159.695V167.176C159.187 167.757 158.717 168.226 158.137 168.226Z" fill="#8EDEF2"/>
<path d="M152.992 164.234H149.9C149.463 164.234 149.11 163.88 149.11 163.444V163.428C149.11 162.991 149.464 162.637 149.9 162.637H152.992C153.428 162.637 153.782 162.991 153.782 163.428V163.444C153.782 163.881 153.427 164.234 152.992 164.234Z" fill="#21899C"/>
<path d="M151.626 147.348C151.467 147.494 150.897 147.479 150.744 147.324C150.599 147.176 150.55 146.502 150.55 146.502L151.866 146.538C151.866 146.538 151.779 147.208 151.626 147.348Z" fill="#8EDEF2"/>
<path d="M149.813 148.183L148.702 146.843L149.628 145.651L151.207 146.509L149.813 148.183Z" fill="white"/>
<path d="M152.601 148.183L153.713 146.843L152.787 145.651L151.208 146.509L152.601 148.183Z" fill="white"/>
<path d="M153.052 182.753L153.96 179.341L153.895 179.339C153.687 179.331 153.538 179.136 153.584 178.934C153.62 178.78 153.76 178.672 153.919 178.678L154.135 178.686L154.238 178.302L154.135 178.298C153.927 178.29 153.779 178.096 153.824 177.894C153.86 177.74 154.001 177.631 154.159 177.638L154.412 177.647L154.983 175.501C155.008 175.458 155.042 175.418 155.08 175.381C155.115 175.3 155.154 175.22 155.202 175.142C155.766 174.215 156.975 173.922 157.901 174.487C158.827 175.052 159.121 176.26 158.555 177.186C158.551 177.193 158.546 177.199 158.542 177.206C158.54 177.21 158.539 177.213 158.537 177.217L154.664 183.571C154.602 183.672 154.516 183.753 154.412 183.818C153.713 184.257 152.839 183.552 153.052 182.753Z" fill="#F7B75D"/>
<path d="M156.412 178.019C157.497 178.019 158.376 177.14 158.376 176.055C158.376 174.97 157.497 174.091 156.412 174.091C155.328 174.091 154.448 174.97 154.448 176.055C154.448 177.14 155.328 178.019 156.412 178.019Z" fill="#35A6B4"/>
<path d="M154.198 183.461L158.07 177.107C158.48 176.436 158.267 175.559 157.595 175.15C156.924 174.741 154.925 174.72 154.516 175.392L152.584 182.644C152.371 183.444 153.245 184.149 153.945 183.707C154.049 183.642 154.136 183.561 154.198 183.461Z" fill="#21899C"/>
<path d="M154.761 177.963C154.808 177.76 154.659 177.566 154.451 177.558L153.691 177.53C153.532 177.524 153.392 177.632 153.356 177.786C153.309 177.988 153.459 178.183 153.666 178.191L154.427 178.219C154.585 178.225 154.726 178.117 154.761 177.963Z" fill="white"/>
<path d="M154.521 179.003C154.568 178.801 154.418 178.606 154.211 178.598L153.451 178.57C153.292 178.564 153.152 178.672 153.116 178.826C153.069 179.029 153.219 179.223 153.426 179.231L154.187 179.259C154.345 179.265 154.486 179.157 154.521 179.003Z" fill="white"/>
<path d="M145.969 165.608L157.738 174.046L154.037 177.221L143.442 169.132C142.478 168.442 142.257 167.1 142.948 166.137L142.973 166.102C143.665 165.139 145.005 164.917 145.969 165.608Z" fill="#21899C"/>
<path d="M152.258 188.244L152.491 184.721L152.554 184.74C152.753 184.8 152.957 184.663 152.978 184.457C152.994 184.299 152.895 184.152 152.743 184.106L152.536 184.044L152.562 183.648L152.661 183.677C152.86 183.736 153.063 183.599 153.085 183.393C153.101 183.235 153.002 183.088 152.85 183.043L152.608 182.971L152.755 180.755C152.744 180.706 152.726 180.657 152.701 180.61C152.694 180.521 152.682 180.432 152.662 180.343C152.425 179.284 151.375 178.619 150.316 178.857C149.257 179.095 148.592 180.145 148.83 181.204C148.832 181.212 148.835 181.219 148.837 181.226C148.837 181.23 148.837 181.234 148.838 181.238L150.468 188.498C150.493 188.613 150.55 188.719 150.627 188.813C151.149 189.456 152.203 189.069 152.258 188.244Z" fill="#F7B75D"/>
<path d="M151.225 182.787C152.309 182.787 153.189 181.908 153.189 180.823C153.189 179.738 152.309 178.859 151.225 178.859C150.14 178.859 149.261 179.738 149.261 180.823C149.261 181.908 150.14 182.787 151.225 182.787Z" fill="#F7B75D"/>
<path d="M150.946 188.547L149.316 181.287C149.144 180.519 149.627 179.758 150.394 179.586C151.162 179.413 153.061 180.036 153.233 180.804L152.736 188.292C152.681 189.117 151.627 189.505 151.105 188.862C151.028 188.766 150.972 188.662 150.946 188.547Z" fill="#21899C"/>
<path d="M152.174 183.158C152.195 182.951 152.399 182.815 152.598 182.874L153.327 183.091C153.478 183.137 153.577 183.283 153.561 183.441C153.54 183.648 153.336 183.785 153.137 183.726L152.408 183.508C152.257 183.463 152.159 183.316 152.174 183.158Z" fill="white"/>
<path d="M152.07 184.221C152.091 184.014 152.295 183.877 152.493 183.937L153.222 184.154C153.374 184.2 153.472 184.346 153.456 184.505C153.435 184.711 153.231 184.848 153.033 184.788L152.304 184.571C152.152 184.525 152.054 184.379 152.07 184.221Z" fill="white"/>
<path d="M154.495 167.466L148.918 180.83L153.398 181.368L158.498 169.136C158.954 168.042 158.437 166.784 157.343 166.328L157.303 166.311C156.209 165.854 154.951 166.372 154.495 167.466Z" fill="#21899C"/>
<path d="M151.001 137.14C153.282 135.845 154.868 137.1 155.55 138.462C155.195 136.364 153.38 134.763 151.181 134.763C149.076 134.763 147.323 136.231 146.863 138.196C148.296 138.591 149.583 137.944 151.001 137.14Z" fill="#35A6B4"/>
</svg>
