<svg width="224" height="51" viewBox="0 0 224 51" fill="none" xmlns="http://www.w3.org/2000/svg">
<g clip-path="url(#clip0_1089_3153)">
<path d="M13.1032 6.86016L23.8178 39.3018C23.8678 39.4754 23.8993 39.6539 23.9116 39.8342C23.9158 39.9554 23.8952 40.0761 23.851 40.189C23.8068 40.3018 23.74 40.4043 23.6548 40.49C23.5696 40.5758 23.4678 40.643 23.3557 40.6875C23.2436 40.7319 23.1236 40.7527 23.0031 40.7485C22.7961 40.7669 22.5896 40.7085 22.4223 40.5844C22.255 40.4603 22.1385 40.279 22.0946 40.0746L18.9382 30.3983H4.97343L1.86396 40.096C1.81161 40.2958 1.69299 40.4716 1.52774 40.5942C1.36249 40.7168 1.16054 40.7788 0.955438 40.77C0.832678 40.7746 0.710268 40.7544 0.595365 40.7107C0.480462 40.667 0.375394 40.6005 0.286371 40.5154C0.197348 40.4302 0.126161 40.3279 0.0769817 40.2146C0.0278026 40.1013 0.0016215 39.9792 0 39.8556C0.0357981 39.5589 0.116343 39.2693 0.238859 38.997L10.8084 6.89021C10.8929 6.65181 11.0484 6.44547 11.2538 6.29946C11.4592 6.15345 11.7044 6.0749 11.9558 6.07454C12.2064 6.05997 12.4546 6.12907 12.6621 6.27114C12.8696 6.4132 13.0247 6.62027 13.1032 6.86016ZM5.59616 28.6167H18.3624L11.9643 8.86925L5.59616 28.6167Z" fill="#35A6B4"/>
<path d="M37.7823 6.28488C37.9935 6.30623 38.1892 6.40603 38.3311 6.56479C38.4731 6.72355 38.5512 6.92987 38.5501 7.14346C38.5501 7.37117 38.4602 7.58957 38.3002 7.75059C38.1403 7.9116 37.9233 8.00205 37.697 8.00205C36.9205 7.87478 36.1371 7.7945 35.3511 7.76164C32.9155 7.76164 31.3374 9.35002 31.3374 11.5652V16.4849H37.6501C37.7705 16.4807 37.8905 16.5015 38.0027 16.5459C38.1148 16.5904 38.2166 16.6576 38.3018 16.7434C38.387 16.8291 38.4538 16.9316 38.498 17.0444C38.5422 17.1573 38.5628 17.2781 38.5586 17.3993C38.5586 17.6418 38.4629 17.8744 38.2925 18.0458C38.1222 18.2173 37.8911 18.3137 37.6501 18.3137H31.3374V39.8298C31.3357 39.9535 31.3096 40.0755 31.2604 40.1888C31.2112 40.3021 31.14 40.4044 31.051 40.4896C30.962 40.5748 30.8569 40.6412 30.742 40.6849C30.6271 40.7286 30.5047 40.7488 30.3819 40.7442C30.2613 40.7484 30.1411 40.7276 30.0288 40.6832C29.9165 40.6388 29.8144 40.5716 29.7288 40.4859C29.6433 40.4002 29.5761 40.2978 29.5314 40.185C29.4868 40.0721 29.4656 39.9512 29.4691 39.8298V11.724C29.4691 8.2081 31.862 6.04447 35.2572 6.04447C36.105 6.03568 36.9513 6.11625 37.7823 6.28488Z" fill="#35A6B4"/>
<path d="M52.1745 16.3423C52.3974 16.3693 52.6029 16.477 52.7527 16.6452C52.9026 16.8135 52.9867 17.0308 52.9892 17.2567C52.9894 17.3743 52.9657 17.4907 52.9194 17.5987C52.8731 17.7067 52.8052 17.8039 52.72 17.8844C52.6349 17.9649 52.5341 18.027 52.4241 18.0667C52.3142 18.1064 52.1973 18.1229 52.0807 18.1153C51.0541 17.9244 50.0146 17.8125 48.9712 17.7804C46.8684 17.7804 45.0983 19.3645 45.0983 22.0734V39.8375C45.0966 39.9615 45.0703 40.0839 45.0209 40.1975C44.9714 40.3111 44.8999 40.4136 44.8104 40.4988C44.7209 40.5841 44.6153 40.6504 44.4999 40.6939C44.3845 40.7373 44.2617 40.7571 44.1385 40.7519C44.0181 40.7561 43.8981 40.7353 43.786 40.6908C43.6739 40.6464 43.572 40.5792 43.4868 40.4934C43.4016 40.4076 43.3349 40.3052 43.2907 40.1923C43.2465 40.0795 43.2259 39.9587 43.23 39.8375V22.0218C43.23 18.3171 45.6698 16.0117 48.8774 16.0117C49.985 16.0027 51.0904 16.1135 52.1745 16.3423Z" fill="#35A6B4"/>
<path d="M60.8147 9.31659C60.8197 9.59775 60.7417 9.8741 60.5906 10.1106C60.4395 10.3472 60.2221 10.5333 59.9659 10.6454C59.7096 10.7575 59.4261 10.7905 59.1512 10.7404C58.8763 10.6902 58.6223 10.559 58.4215 10.3635C58.2207 10.168 58.082 9.91694 58.023 9.64207C57.964 9.3672 57.9874 9.08092 58.0902 8.81943C58.193 8.55795 58.3706 8.33302 58.6004 8.17316C58.8303 8.0133 59.1021 7.92568 59.3815 7.92139C59.7511 7.92948 60.104 8.07768 60.3697 8.33635C60.6354 8.59502 60.7943 8.94509 60.8147 9.31659ZM60.3497 16.9151V39.8264C60.3524 39.9513 60.3292 40.0754 60.2815 40.1907C60.2338 40.306 60.1627 40.4101 60.0728 40.4961C59.9828 40.5822 59.876 40.6484 59.7592 40.6906C59.6424 40.7327 59.5181 40.7498 59.3943 40.7408C59.2739 40.745 59.1538 40.7242 59.0417 40.6798C58.9296 40.6353 58.8278 40.5681 58.7426 40.4823C58.6574 40.3966 58.5906 40.2941 58.5464 40.1813C58.5023 40.0684 58.4816 39.9476 58.4858 39.8264V16.9151C58.4816 16.7939 58.5023 16.6731 58.5464 16.5603C58.5906 16.4474 58.6574 16.3449 58.7426 16.2592C58.8278 16.1734 58.9296 16.1062 59.0417 16.0617C59.1538 16.0173 59.2739 15.9965 59.3943 16.0007C59.5181 15.9917 59.6424 16.0088 59.7592 16.0509C59.876 16.0931 59.9828 16.1593 60.0728 16.2454C60.1627 16.3315 60.2338 16.4355 60.2815 16.5508C60.3292 16.6661 60.3524 16.7902 60.3497 16.9151Z" fill="#35A6B4"/>
<path d="M147.482 7.46936C148.058 7.70976 148.25 7.99738 148.25 8.43097C148.255 8.5417 148.237 8.65224 148.198 8.75595C148.159 8.85966 148.1 8.95443 148.024 9.03458C147.948 9.11473 147.857 9.17864 147.756 9.22245C147.654 9.26626 147.546 9.28907 147.435 9.28955C147.141 9.28442 146.851 9.21867 146.582 9.09637C144.434 8.25137 142.145 7.82736 139.839 7.84714C135.535 7.84714 132.716 10.8307 132.716 13.8572C132.716 17.2916 134.422 18.8628 137.352 20.404L142.854 23.2459C145.964 24.8815 149.167 26.9507 149.167 32.1966C149.167 37.683 144.625 40.7181 139.698 40.7181C136.86 40.7278 134.053 40.12 131.47 38.9365C131.29 38.8775 131.133 38.7627 131.022 38.6084C130.911 38.4542 130.851 38.2685 130.852 38.0779C130.838 37.9593 130.85 37.839 130.887 37.7255C130.924 37.612 130.986 37.5081 131.067 37.421C131.148 37.3339 131.247 37.2658 131.358 37.2213C131.468 37.1768 131.586 37.1571 131.705 37.1635C132.003 37.1818 132.294 37.2637 132.558 37.4039C134.813 38.3688 137.235 38.8765 139.685 38.8979C143.605 38.8979 147.239 36.584 147.239 32.2524C147.239 28.26 144.944 26.4784 141.788 24.8428L136.337 22.0009C132.844 20.1721 130.792 17.9098 130.792 13.9173C130.792 9.53426 134.631 6.02264 139.928 6.02264C142.518 5.98616 145.087 6.47831 147.482 7.46936Z" fill="#35A6B4"/>
<path d="M158.067 9.31659C158.072 9.59775 157.994 9.8741 157.843 10.1106C157.691 10.3472 157.474 10.5333 157.218 10.6454C156.962 10.7575 156.678 10.7905 156.403 10.7404C156.128 10.6902 155.874 10.559 155.673 10.3635C155.473 10.168 155.334 9.91694 155.275 9.64207C155.216 9.3672 155.239 9.08092 155.342 8.81943C155.445 8.55795 155.623 8.33302 155.852 8.17316C156.082 8.0133 156.354 7.92568 156.633 7.92139C157.003 7.92948 157.356 8.07768 157.622 8.33635C157.887 8.59502 158.046 8.94509 158.067 9.31659ZM157.576 16.9151V39.8264C157.579 39.9513 157.556 40.0754 157.508 40.1907C157.46 40.306 157.389 40.4101 157.299 40.4961C157.209 40.5822 157.102 40.6484 156.986 40.6906C156.869 40.7327 156.744 40.7498 156.621 40.7408C156.5 40.745 156.38 40.7242 156.268 40.6798C156.156 40.6353 156.054 40.5681 155.969 40.4823C155.884 40.3966 155.817 40.2941 155.773 40.1813C155.729 40.0684 155.708 39.9476 155.712 39.8264V16.9151C155.707 16.7937 155.728 16.6726 155.772 16.5595C155.815 16.4464 155.882 16.3436 155.968 16.2577C156.053 16.1719 156.155 16.1047 156.267 16.0604C156.38 16.0162 156.5 15.9958 156.621 16.0007C156.744 15.9917 156.869 16.0088 156.986 16.0509C157.102 16.0931 157.209 16.1593 157.299 16.2454C157.389 16.3315 157.46 16.4355 157.508 16.5508C157.556 16.6661 157.579 16.7902 157.576 16.9151Z" fill="#35A6B4"/>
<path d="M180.818 17.2093C181.074 17.3098 181.294 17.4873 181.446 17.7177C181.599 17.9482 181.677 18.2203 181.671 18.4972V42.851C181.671 47.6633 178.561 50.9861 173.49 50.9861C171.23 50.9882 168.997 50.4945 166.947 49.5394C166.804 49.4689 166.683 49.3596 166.599 49.2238C166.514 49.088 166.47 48.9311 166.469 48.7709C166.469 48.5432 166.559 48.3248 166.719 48.1638C166.879 48.0028 167.096 47.9124 167.322 47.9124C167.552 47.9248 167.778 47.9741 167.992 48.0583C169.716 48.8565 171.592 49.2667 173.49 49.2603C177.508 49.2603 179.854 46.7103 179.854 42.9068V38.4851C178.008 39.9169 175.752 40.7104 173.422 40.7474C168.687 40.7474 165.317 38.0515 165.317 32.6123V24.1381C165.317 18.699 168.73 16.0073 173.494 16.0073C175.987 15.9666 178.467 16.3736 180.818 17.2093ZM167.169 23.9492V32.7969C167.169 36.6949 169.561 38.9573 173.481 38.9573C175.814 38.9052 178.053 38.0179 179.794 36.4545V18.7505C177.755 18.0917 175.623 17.767 173.481 17.7888C169.485 17.7717 167.186 20.1929 167.186 23.9492H167.169Z" fill="#35A6B4"/>
<path d="M192.296 6.95886V18.1205C194.242 16.8159 196.51 16.083 198.847 16.0041C203.723 16.0041 206.687 18.8417 206.687 24.1349V39.8298C206.691 39.951 206.671 40.0718 206.626 40.1847C206.582 40.2975 206.515 40.4 206.43 40.4857C206.345 40.5715 206.243 40.6387 206.131 40.6832C206.019 40.7276 205.899 40.7484 205.779 40.7442C205.656 40.7488 205.533 40.7286 205.418 40.6849C205.304 40.6412 205.199 40.5748 205.11 40.4896C205.02 40.4044 204.949 40.3021 204.9 40.1888C204.851 40.0755 204.825 39.9535 204.823 39.8298V23.946C204.823 19.8505 202.481 17.7856 198.702 17.7856C196.374 17.8629 194.132 18.6888 192.304 20.1425V39.8298C192.303 39.9538 192.276 40.0763 192.227 40.1898C192.178 40.3034 192.106 40.4059 192.016 40.4911C191.927 40.5764 191.821 40.6427 191.706 40.6862C191.591 40.7297 191.468 40.7494 191.345 40.7442C191.224 40.7484 191.104 40.7276 190.992 40.6832C190.88 40.6387 190.778 40.5715 190.693 40.4857C190.608 40.4 190.541 40.2975 190.497 40.1847C190.453 40.0718 190.432 39.951 190.436 39.8298V6.95886C190.432 6.83765 190.453 6.71687 190.497 6.60403C190.541 6.4912 190.608 6.38871 190.693 6.30295C190.778 6.21719 190.88 6.14998 190.992 6.10551C191.104 6.06105 191.224 6.04027 191.345 6.04446C191.467 6.03987 191.589 6.06005 191.704 6.10384C191.819 6.14762 191.923 6.2141 192.012 6.29936C192.101 6.38461 192.172 6.4869 192.22 6.60018C192.269 6.71346 192.295 6.83543 192.296 6.95886Z" fill="#35A6B4"/>
<path d="M216.78 6.95842V16.4844H223.045C223.169 16.4754 223.294 16.4925 223.41 16.5347C223.527 16.5768 223.634 16.6431 223.724 16.7291C223.814 16.8152 223.885 16.9192 223.933 17.0345C223.98 17.1499 224.004 17.2739 224.001 17.3988C223.999 17.5225 223.973 17.6445 223.924 17.7578C223.875 17.8711 223.804 17.9734 223.715 18.0586C223.626 18.1438 223.52 18.2102 223.406 18.2539C223.291 18.2976 223.168 18.3178 223.045 18.3132H216.78V34.4847C216.78 37.421 218.213 38.9622 220.751 38.9622C222.137 38.9622 222.615 38.7218 223.092 38.7218C223.209 38.7142 223.326 38.7307 223.436 38.7704C223.546 38.8101 223.647 38.8722 223.732 38.9527C223.817 39.0332 223.885 39.1304 223.931 39.2384C223.977 39.3464 224.001 39.4628 224.001 39.5804C223.998 39.8063 223.914 40.0236 223.765 40.1918C223.615 40.3601 223.409 40.4677 223.186 40.4948C222.368 40.6639 221.535 40.7445 220.7 40.7352C217.351 40.7352 214.916 38.666 214.916 34.3817V6.95842C214.911 6.83704 214.931 6.71599 214.975 6.60286C215.019 6.48973 215.086 6.38698 215.171 6.30109C215.256 6.2152 215.359 6.148 215.471 6.10376C215.583 6.05952 215.704 6.03919 215.824 6.04402C215.947 6.03884 216.07 6.0586 216.185 6.10211C216.3 6.14563 216.405 6.21203 216.495 6.29734C216.584 6.38266 216.655 6.48515 216.704 6.59872C216.753 6.71229 216.779 6.83462 216.78 6.95842Z" fill="#35A6B4"/>
<path d="M86.0244 11.9607L86.9543 12.8966C89.5252 10.3094 93.0118 8.856 96.6473 8.856C100.283 8.856 103.769 10.3094 106.34 12.8966L107.266 11.9607C104.447 9.12951 100.628 7.53943 96.6452 7.53943C92.6629 7.53943 88.8432 9.12951 86.0244 11.9607Z" fill="#35A6B4"/>
<path d="M83.4775 9.39779L84.4031 10.3337C87.6499 7.06621 92.0533 5.23061 96.6447 5.23061C101.236 5.23061 105.64 7.06621 108.886 10.3337L109.812 9.39779C106.317 5.88866 101.582 3.91797 96.6447 3.91797C91.7079 3.91797 86.9726 5.88866 83.4775 9.39779Z" fill="#35A6B4"/>
<path d="M71.2587 27.7519C71.1371 27.6295 71.0688 27.4636 71.0688 27.2905C71.0688 27.1174 71.1371 26.9515 71.2587 26.8291L86.0374 11.9549L86.9422 12.8655L72.1635 27.7398C72.044 27.8601 71.8826 27.9287 71.7135 27.931C71.5445 27.9333 71.3813 27.869 71.2587 27.7519Z" fill="#35A6B4"/>
<path d="M68.7275 25.2065C68.6059 25.0841 68.5376 24.9181 68.5376 24.7451C68.5376 24.572 68.6059 24.4061 68.7275 24.2837L83.5062 9.40945L84.411 10.3201L69.6323 25.1944C69.5128 25.3147 69.3513 25.3833 69.1823 25.3856C69.0133 25.3878 68.8501 25.3236 68.7275 25.2065Z" fill="#35A6B4"/>
<path d="M66.081 22.5538C65.9594 22.4314 65.8911 22.2654 65.8911 22.0924C65.8911 21.9193 65.9594 21.7533 66.081 21.631L80.8597 6.75674L81.7645 7.6674L66.9858 22.5416C66.8663 22.662 66.7048 22.7306 66.5358 22.7329C66.3668 22.7351 66.2036 22.6709 66.081 22.5538Z" fill="#35A6B4"/>
<path d="M86.1698 2.57131C84.2836 3.63117 82.5596 4.95999 81.0513 6.51652C80.9916 6.5895 80.949 6.64529 80.9191 6.68822C80.8971 6.70606 80.8771 6.72621 80.8594 6.74832L81.0684 6.95867L81.7807 7.67559C82.2786 7.1645 82.8056 6.68289 83.3589 6.23317C87.3969 2.9259 92.5097 1.24242 97.7092 1.50804C102.909 1.77365 107.826 3.96951 111.51 7.67129L112.56 6.61954C109.96 4.00443 106.763 2.0701 103.249 0.985726C99.7352 -0.0986515 96.0107 -0.300058 92.4015 0.399091H92.3545C90.7383 0.720895 89.162 1.22043 87.6541 1.88872C87.1252 2.09908 86.6304 2.31803 86.1698 2.57131Z" fill="#35A6B4"/>
<path d="M107.125 32.7337L106.2 31.7979C103.629 34.385 100.142 35.8384 96.5067 35.8384C92.8711 35.8384 89.3845 34.385 86.8136 31.7979L85.8838 32.7337C88.7026 35.5649 92.5222 37.155 96.5045 37.155C100.487 37.155 104.307 35.5649 107.125 32.7337Z" fill="#35A6B4"/>
<path d="M109.671 35.2971L108.746 34.3612C107.138 35.9789 105.23 37.2622 103.13 38.1377C101.03 39.0132 98.7793 39.4639 96.5062 39.4639C94.2331 39.4639 91.9823 39.0132 89.8823 38.1377C87.7822 37.2622 85.874 35.9789 84.2668 34.3612L83.3369 35.2971C86.832 38.8062 91.5673 40.7769 96.5041 40.7769C101.441 40.7769 106.176 38.8062 109.671 35.2971Z" fill="#35A6B4"/>
<path d="M121.889 16.9435C122.01 17.0659 122.079 17.2319 122.079 17.4049C122.079 17.578 122.01 17.744 121.889 17.8663L107.11 32.7406L106.205 31.8299L120.984 16.9557C121.106 16.8333 121.27 16.7645 121.442 16.7645C121.614 16.7645 121.779 16.8333 121.901 16.9557L121.889 16.9435Z" fill="#35A6B4"/>
<path d="M124.42 19.4911C124.542 19.6135 124.61 19.7795 124.61 19.9525C124.61 20.1256 124.542 20.2916 124.42 20.4139L109.641 35.2882L108.736 34.3775L123.515 19.5033C123.635 19.3829 123.796 19.3143 123.965 19.3121C124.134 19.3098 124.297 19.3741 124.42 19.4911Z" fill="#35A6B4"/>
<path d="M127.063 22.1467C127.184 22.269 127.252 22.435 127.252 22.6081C127.252 22.7811 127.184 22.9471 127.063 23.0695L112.284 37.9437L111.379 37.033L126.158 22.1588C126.277 22.0385 126.439 21.9698 126.608 21.9676C126.777 21.9653 126.94 22.0296 127.063 22.1467Z" fill="#35A6B4"/>
<path d="M106.984 42.1232C108.87 41.0619 110.593 39.7333 112.103 38.178L112.235 38.0063L112.295 37.9462L112.086 37.7358L111.369 37.0189C110.872 37.531 110.345 38.0127 109.791 38.4613C105.751 41.7747 100.634 43.4618 95.4298 43.1961C90.2254 42.9305 85.304 40.7309 81.6183 37.0232L80.5732 38.075C83.1718 40.6903 86.3676 42.6249 89.8811 43.7093C93.3945 44.7937 97.1185 44.995 100.727 44.2954H100.77C102.391 43.9803 103.973 43.488 105.487 42.8272C106.029 42.5954 106.519 42.3636 106.984 42.1232Z" fill="#35A6B4"/>
<path d="M96.4443 31.5015C101.415 31.5015 105.444 27.4461 105.444 22.4435C105.444 17.4408 101.415 13.3854 96.4443 13.3854C91.4737 13.3854 87.4443 17.4408 87.4443 22.4435C87.4443 27.4461 91.4737 31.5015 96.4443 31.5015Z" fill="#35A6B4"/>
<path d="M98.9814 27.1346C99.1136 27.302 99.0198 27.4265 98.9174 27.5639L98.0643 28.5041C98.0278 28.5372 97.9812 28.5568 97.9321 28.5599C97.62 28.5483 97.3079 28.5845 97.0065 28.6672C96.9468 28.6672 96.853 28.6114 96.7762 28.5727C96.7248 28.5464 96.6813 28.5066 96.6506 28.4575C96.6198 28.4083 96.6028 28.3518 96.6013 28.2937C96.555 28.099 96.4833 27.9114 96.3881 27.7356C96.3651 27.6795 96.3334 27.6273 96.2942 27.5811C96.2043 27.4769 96.1364 27.3555 96.0946 27.2241C96.0528 27.0928 96.038 26.9542 96.0511 26.8169C96.0474 26.7472 96.0269 26.6794 95.9914 26.6195C95.8762 26.3962 95.7611 26.1687 95.6416 25.9498C95.5701 25.8189 95.5489 25.6661 95.5819 25.5205C95.6184 25.2003 95.7032 24.8876 95.8335 24.5932C95.8528 24.5332 95.8528 24.4686 95.8335 24.4086C95.6956 23.886 95.4419 23.4017 95.0914 22.9919C95.0543 22.9575 95.0308 22.9107 95.0253 22.8602C95.0198 22.8097 95.0327 22.7589 95.0615 22.7172C95.0596 22.703 95.0596 22.6885 95.0615 22.6743C95.1249 22.5637 95.1546 22.4368 95.147 22.3094C95.1394 22.1819 95.0949 22.0595 95.0189 21.9573C95.0066 21.9377 94.9896 21.9215 94.9695 21.9102C94.9494 21.899 94.9267 21.893 94.9037 21.8929C94.7613 21.917 94.6154 21.9079 94.4771 21.8662C94.3388 21.8245 94.2119 21.7514 94.1061 21.6525C94.0697 21.6203 94.0241 21.6005 93.9759 21.5959C93.9276 21.5913 93.8791 21.6021 93.8374 21.6268C93.671 21.6998 93.4919 21.7556 93.3213 21.8286C93.2899 21.8487 93.252 21.8559 93.2155 21.8487C93.179 21.8415 93.1466 21.8205 93.125 21.7899C93.0947 21.7453 93.0483 21.7145 92.9956 21.7041C92.943 21.6936 92.8884 21.7044 92.8435 21.7341C92.6727 21.8079 92.4975 21.871 92.3189 21.923C92.2526 21.9466 92.1804 21.9466 92.1142 21.923C91.8753 21.7856 91.6364 21.6397 91.4018 21.4937C91.376 21.4769 91.354 21.4548 91.3371 21.429C91.3202 21.4031 91.3088 21.374 91.3037 21.3435C91.2825 21.2206 91.2328 21.1045 91.1587 21.0046C91.0846 20.9046 90.9882 20.8236 90.8772 20.7682C90.8274 20.7354 90.785 20.6925 90.7527 20.6422C90.7203 20.5919 90.6988 20.5354 90.6895 20.4763C90.6592 20.2145 90.6929 19.9493 90.7876 19.7036C90.8473 19.5121 90.8473 19.3069 90.7876 19.1154C90.773 19.0742 90.7696 19.0297 90.7778 18.9866C90.7861 18.9436 90.8057 18.9035 90.8345 18.8707C90.9966 18.6475 91.1587 18.4414 91.308 18.1924C91.4013 18.0354 91.5375 17.9088 91.7004 17.8275C91.7772 17.7889 91.8497 17.7288 91.9265 17.6902C91.9981 17.6695 92.0603 17.6243 92.1024 17.5624C92.1444 17.5005 92.1637 17.4257 92.1568 17.351C92.1607 17.2909 92.1865 17.2344 92.2293 17.1922C92.3871 17.0033 92.5535 16.8187 92.7284 16.6427C92.7625 16.6041 92.835 16.5998 92.8905 16.5869C92.9029 16.5826 92.9164 16.5826 92.9288 16.5869C93.0962 16.6563 93.2784 16.6817 93.4583 16.6607C93.6381 16.6397 93.8097 16.5729 93.9568 16.4667C94.029 16.4282 94.1097 16.409 94.1914 16.4109C94.3407 16.4109 94.49 16.4109 94.6392 16.4109C94.7885 16.4109 95.0658 16.4452 95.2279 16.2606C95.358 16.3323 95.4547 16.4528 95.497 16.5959C95.5393 16.739 95.5239 16.8931 95.4539 17.0248C95.6118 17.0248 95.7483 17.0248 95.8805 17.0248C95.9219 17.0207 95.9635 17.0286 96.0006 17.0476C96.0376 17.0667 96.0685 17.096 96.0895 17.1321C96.2302 17.4026 96.516 17.3639 96.7463 17.4283C96.7463 17.4283 96.8018 17.4283 96.8231 17.3897C96.8454 17.3643 96.8654 17.337 96.8828 17.3081C97.1174 16.9904 97.1132 17.0076 97.48 17.1364C97.7794 17.2364 98.0841 17.3195 98.3928 17.3854C98.5223 17.4008 98.6536 17.3861 98.7767 17.3424C98.7903 17.3371 98.805 17.3346 98.8196 17.3352C98.8343 17.3358 98.8487 17.3394 98.8619 17.3459C98.8752 17.3523 98.8869 17.3614 98.8964 17.3727C98.906 17.3839 98.9131 17.397 98.9174 17.4111C99.088 17.7245 99.2672 18.0379 99.4421 18.3513C99.4621 18.3808 99.4753 18.4146 99.4805 18.45C99.5113 18.7502 99.6386 19.032 99.843 19.2528C99.9633 19.4128 100.054 19.593 100.112 19.7851C100.123 19.8431 100.155 19.8949 100.201 19.9311C100.452 20.1036 100.666 20.3238 100.833 20.5793C100.941 20.7007 101.064 20.8074 101.199 20.897C101.229 20.897 101.302 20.897 101.353 20.897L102.168 20.6265C102.232 20.8627 102.209 21.1143 102.104 21.3349C101.952 21.6616 101.736 21.9537 101.468 22.1934C101.272 22.348 101.101 22.5369 100.905 22.7C100.668 22.9166 100.459 23.1617 100.282 23.4298C100.264 23.4519 100.252 23.4786 100.248 23.5071C100.204 23.7549 100.228 24.0101 100.316 24.2455C100.442 24.5985 100.485 24.9763 100.44 25.3488C100.44 25.3831 100.398 25.426 100.359 25.4518C100.078 25.6579 99.7961 25.8811 99.506 26.0614C99.4741 26.0781 99.4483 26.1045 99.4322 26.1369C99.4161 26.1693 99.4106 26.206 99.4165 26.2417C99.4386 26.4183 99.45 26.596 99.4506 26.774C99.4492 26.801 99.4425 26.8275 99.4308 26.8518C99.419 26.8762 99.4026 26.8979 99.3823 26.9157C99.2526 26.9956 99.1187 27.0687 98.9814 27.1346Z" fill="white"/>
<path d="M101.894 24.8088C101.967 24.9677 102.043 25.1265 102.107 25.2896C102.12 25.3288 102.12 25.3707 102.107 25.4098C101.894 25.9379 101.681 26.4659 101.468 26.9896C101.454 27.0132 101.436 27.0335 101.414 27.0491C101.391 27.0647 101.366 27.0752 101.34 27.0798C100.998 27.0798 101.007 27.0798 100.875 26.7535C100.842 26.695 100.827 26.6284 100.831 26.5615C100.834 26.4946 100.857 26.4301 100.896 26.3757C101.018 26.1535 101.064 25.8972 101.028 25.646C101.028 25.5987 101.067 25.5172 101.101 25.5129C101.249 25.4767 101.388 25.4068 101.505 25.3086C101.623 25.2104 101.716 25.0864 101.779 24.9462L101.873 24.8217L101.894 24.8088Z" fill="#35A6B4"/>
</g>
<defs>
<clipPath id="clip0_1089_3153">
<rect width="224" height="51" fill="white"/>
</clipPath>
</defs>
</svg>
